<?xml version="1.0" encoding="UTF-8"?>
<svg id="Ebene_2" xmlns="http://www.w3.org/2000/svg" version="1.1" viewBox="0 0 595.28 841.89">
  <!-- Generator: Adobe Illustrator 30.2.1, SVG Export Plug-In . SVG Version: 2.1.1 Build 1)  -->
  <defs>
    <style>
      .st0 {
        fill: none;
        stroke: #1d1d1b;
        stroke-miterlimit: 10;
        stroke-width: .25px;
      }
    </style>
  </defs>
  <path class="st0" d="M486.29,468.97c2.66-5.44,7.71-9.12,13.73-9.95,3.81-.52,6.3-3.56,5.82-7.63-.52-4.43-3.23-8.58-6.66-11.51-2.17-1.85-4.96-1.97-7.62-1.06-11.36,3.9-17.39,13.32-22.06,23.87-22.37-5.63-51.16-6.65-68.14,10.89,1.17-4.62,2.62-8.83,4.24-13.23.79-2.13,2.74-2.99,4.96-3.13,9.37-.59,18.25-2.16,27.04-5.27,7.54-2.67,17.56-9.39,22.28-15.83,4.43-6.04,5.22-13.23,1.82-19.97l-9.07-17.98c-4.01-7.94-10.75-19.17-16.72-25.74-8.39-9.23-18.99-15.73-30.5-20.47-1.35-.55-2.14-1.84-2.04-3.19.87-11.25-4.64-24.52-11.51-32.98-1.83-2.25-13.59-16.25-15.31-8.74-1.03,4.48-2.24,8.53-4.17,12.62l-2.71,5.73c-5.09-6.94-11.94-12.79-19.45-16.79-1.33-.71-3.26.32-3.87,1.52-9.05,17.81-13.16,33.65-8.17,53.57-.69,1.47-1.45,3.02-2.33,4.36-9.06,13.94-9.91,24.89-15.65,34.58-4.89,8.24-12.71,14.01-21.32,18.01-6.34,2.95-12.67,4.91-19.18,7.38-2.48.95-4.83,1.87-7.25,2.47,16.96-23.93,22.91-53.5,17.41-82.11-2.11-10.96-5.88-21.28-11.72-30.75-7.19-11.64-16.15-21.35-27.49-29.02-21.58-14.6-47.58-20.52-73.51-17.26-24,3.02-46.91,13.89-62.9,32.25-19,21.83-25.98,56.08-12.49,82.24,11.68,22.63,38.23,33.01,61.93,24.13,3.5-1.31,10.58-5.88,7.99-8.77-.44-.49-1.72-.52-2.81-.62-7.12-.61-14.31-4.75-17.69-11.22-3.78-7.22-3.74-16.17,1.15-22.65,6.77-8.97,19.96-9.43,28.21-2.03,6.94,6.23,9.3,15.71,7.42,24.72-2.29,11-9.86,22.7-16.49,31.7-5.41,7.34-10.7,14.21-15.67,21.92-9.21,14.28-16.25,29.47-19.91,46.2-5,22.82-3.82,46.51,3.77,68.57,6.45,18.74,17.71,35.07,32.41,48.16,18.22,16.23,40.95,25.58,65.31,26.87,1.59.08,3.35.36,4.46,1.19,3.2,2.39,6.19,4.4,9.59,6.35,6.23,3.57,2.92,8.65,9.79,11.39,4.01,1.6,8.05,2.41,12.56,2.45l98.07.7c3.62.03,6.75-.09,10.15-.5,3.92-.47,6.44-3.95,6.37-7.77l12.54-.19,8.56-.16c3.11-.06,5.05-1.97,5.03-5-.05-6.6-3.29-12.25-8.66-16.13-10.13-7.31-24.36-6.52-36.4-6.1,9.79-11.33,16.31-21.18,20.28-35.22,4.88,10.14,11.51,18.78,19.58,26.37,3.05,2.87,5.5,5.74,7.34,9.58,2.54,5.29,8.47,7.92,14,5.47,4.53-2,9-2.94,13.99-3.46,22.01-2.26,39.49-12.06,51.91-30.45,8.72-12.92,14.34-28.73,18.99-43.64,10.34-1.46,15.04-13.47,15.26-22.62.6-25.83-22.94-45.67-44.53-56.16Z"/>
</svg>