<?xml version="1.0" encoding="UTF-8"?>
<svg id="Ebene_2" xmlns="http://www.w3.org/2000/svg" version="1.1" viewBox="0 0 595.28 841.89">
  <!-- Generator: Adobe Illustrator 30.2.1, SVG Export Plug-In . SVG Version: 2.1.1 Build 1)  -->
  <defs>
    <style>
      .st0 {
        fill: #f9af15;
      }
    </style>
  </defs>
  <path class="st0" d="M377.99,391.06c1.21,4.18,3.81,7.86,7.93,9.43,3.29,1.25,6.83.58,10.33-.62h0c4.1-1.4,6.63,1.44,8.64.43,1.77-.89-.55-6.01-1.08-7.45-3.06-8.39-10.11-16.65-19.95-12.45-3.42,1.46-6.58,2.36-10.6,3.22,2.18,5.06,2.85.96,4.73,7.44ZM388.31,385.84c1.2-1.01,3.52-.64,4.85.35,1.1.81,2.12,3.15,1.05,4.8h0c-1.43,2.2-4.25,1.92-5.7.41-1.29-1.34-2.05-4.01-.2-5.56Z"/>
  <path class="st0" d="M294.64,523.53c21.06,3.43,31.7,23.02,31.54,43.43h0c-.01,1.23,1.21,2.37,2.33,1.92,1.83-11.86-1.53-23.75-8.48-33.58-7.97-11.27-23.39-18.33-36.97-14.27-.41.12-1.4,1.06-1.16,1.38,1.01,1.3,7.24.23,12.74,1.12Z"/>
  <path class="st0" d="M346.6,369.08c.29.88,1.52,2.13,2.16,1.85,6.08-6.01,4.02-23.39,1.54-30.74-1.29-3.81-6.71-16.02-11.1-15.29-.42.07-.31,1.49-.07,1.87,6.94,10.87,11.5,20.21,7.93,33.4-2.68-3.82-4.82-7.49-8.7-9.15,3.47,6.3,6.11,11.61,8.24,18.05h0Z"/>
  <path class="st0" d="M262.43,442.59c-1.94-1.23-11.26,4.25-13.33,5.62-38.28,25.46-51.15,78.52-36.71,120.86.53,1.55,7.31,22.6,10.87,17.05h-.01c-17-31.86-17.31-69.68-1.21-101.99,7.74-15.55,20.03-28.42,35.35-36.73.81-.44,6.98-3.58,5.04-4.81Z"/>
  <path class="st0" d="M267.72,440.9c.02.19.81.61,1,.56l4.45-1.22h0c1.53-.42,3.18-1.54,3.14-2.92-1.52-1.8-8.83,1.31-8.59,3.58Z"/>
  <path class="st0" d="M471.17,460.66c2.65-5.43,7.7-9.1,13.72-9.93,3.81-.53,6.3-3.56,5.82-7.63-.52-4.43-3.23-8.58-6.66-11.51-2.16-1.85-4.96-1.97-7.62-1.06-11.36,3.9-17.39,13.33-22.06,23.87-13.88-3.5-30.22-5.21-44.68-1.83-7.38,1.73-14.28,4.78-20.1,9.61-.85.71-1.68,1.47-2.48,2.25-.29.28-.59.56-.87.85,1.17-4.62,2.62-8.84,4.24-13.23.79-2.13,2.74-2.99,4.96-3.13,9.36-.59,18.24-2.16,27.04-5.27,7.54-2.66,17.56-9.39,22.28-15.83,4.43-6.05,5.21-13.24,1.82-19.97l-9.07-17.98c-4-7.94-10.75-19.17-16.72-25.74-8.39-9.23-18.99-15.73-30.5-20.47-1.35-.55-2.15-1.84-2.04-3.19.87-11.25-4.64-24.52-11.51-32.98-1.82-2.24-13.58-16.24-15.31-8.74-1.03,4.48-2.24,8.54-4.17,12.62l-2.71,5.73c-5.09-6.94-11.94-12.79-19.45-16.79-1.34-.71-3.26.32-3.87,1.52-9.05,17.81-13.15,33.66-8.17,53.57-.7,1.47-1.45,3.01-2.33,4.36-9.06,13.94-9.9,24.9-15.65,34.58-4.89,8.24-12.71,14.01-21.32,18.01-5.84,2.71-11.68,4.59-17.65,6.81-.51.19-1.02.38-1.53.57-2.49.94-4.83,1.86-7.25,2.47,16.96-23.94,22.91-53.5,17.41-82.11-2.1-10.96-5.87-21.28-11.72-30.75-7.19-11.64-16.15-21.35-27.49-29.02-21.58-14.61-47.57-20.53-73.51-17.26-24.01,3.03-46.92,13.89-62.9,32.25-19,21.83-25.99,56.08-12.49,82.24,11.67,22.63,38.23,33.01,61.93,24.13,3.5-1.31,10.57-5.87,7.99-8.77-.44-.49-1.72-.53-2.81-.62-7.12-.61-14.31-4.76-17.69-11.22-3.78-7.22-3.74-16.17,1.15-22.65,6.77-8.97,19.96-9.44,28.21-2.03,6.94,6.23,9.3,15.71,7.42,24.72-2.3,11-9.86,22.7-16.49,31.7-5.41,7.34-10.7,14.21-15.67,21.92-9.21,14.28-16.25,29.47-19.91,46.2-5,22.81-3.82,46.51,3.77,68.57,6.45,18.74,17.71,35.07,32.41,48.16,18.22,16.22,40.95,25.58,65.31,26.87,1.36.08,2.84.29,3.94.87.19.1.36.2.52.32,3.19,2.38,6.19,4.4,9.59,6.35,6.23,3.57,2.92,8.65,9.79,11.39,4.01,1.6,8.05,2.42,12.56,2.45l98.07.7c3.62.03,6.74-.09,10.15-.5,3.92-.47,6.44-3.95,6.37-7.77l12.54-.19,8.56-.16c3.12-.06,5.05-1.97,5.03-5-.04-6.6-3.28-12.25-8.66-16.13-10.13-7.31-24.36-6.52-36.4-6.1,9.78-11.34,16.31-21.18,20.28-35.22,2.22,4.62,4.83,8.92,7.75,12.96,3.49,4.82,7.44,9.28,11.83,13.41,3.06,2.87,5.5,5.74,7.34,9.58,2.54,5.29,8.47,7.92,14,5.47,4.52-2.01,8.99-2.95,13.99-3.46,22.01-2.25,39.49-12.05,51.91-30.45,8.72-12.91,14.34-28.72,18.99-43.64,10.34-1.46,15.05-13.46,15.26-22.62.6-25.82-22.9-45.64-44.48-56.14ZM362.48,322.39l4.41-12.34c7.34,6.58,13.63,20.31,12.54,30.27l-12.57-2.03h-.01c-1.05-3.45-2.11-6.21-3.67-9.2-1.28-1.96-1.5-4.45-.7-6.7ZM390.35,629.4c-2.04.17-4.45.19-6.39.04-2.19-2.81-3.97-5.75-8.46-5.84h0s4.34,5.98,4.34,5.98l-6.73.18c-1.13-.26-2.61-.96-3.28-1.93-2.63-3.81-5.73-6.53-9.74-8.76,8.98-.51,26.4.19,30.26,10.33ZM352.11,598.91c-3.97,4.95-9.11,8.38-14.54,11.49-2.67,1.54-5.03,2.82-8.14,3.36,6.37-8.92,9.77-12.54,13.69-22.9,5.53-8.03,10.81-15.88,14.55-24.94,3.19-7.74,4.47-15.63,6.54-24.13,7.39,20.76,1.32,40.4-12.1,57.12ZM341.61,535.01c-2.63-5.42-6.17-10.07-9.87-14.71-1.45-1.83-1.8-4-.05-5.78l4.59,2.57c7.08,3.96,14.63,5.57,23.11,6.45-1.68,10.23-3.68,19.93-6.14,29.72h-.01c-1.14,4.52-2.73,8.72-5.01,12.99-.24-11.27-1.88-21.47-6.62-31.24ZM432.98,502.61c-3.69-1.89-6.83-4.02-11.51-3.44l6.2,4.55c-11.73-.05-15.01-6.23-28.3-.74l-24.51,10.12.03.02c-11.34,4.69-29,2.14-39.56-5.18-8.62-5.98-17.05-15.81-22.18-25.05-.34-.61-1.73-1.37-2.4-1.44-2.38-.25-2.76,3.96-1.02,7.75,3.57,7.79,8.97,13.8,15.26,19.86-1.35,1.56-3.85,2.67-5.55,1.81-5.72-2.9-11.27-5.55-17.59-6.99-19.54-4.46-42.22,3.33-53.48,20.26-.83,1.25-.8,2.97.25,3.84.81.66,2.57.39,3.56-.52,3.98-3.67,7.61-7.14,12.23-9.91,22.55-13.54,50.25-7.32,65.19,13.4,5.36,7.45,8.08,15.24,9.22,24.33,2.85,22.8-6.33,46.01-24.91,59.82-4.67,3.48-9.94,5.4-14.92,8.36-.48.28-1.08,1.15-1.12,1.63-.19,2.29,8.89,1.01,10.77.76,10.18-1.37,20.06-2.64,30.32-2.46,9.94.17,22.61,2.57,25.32,13.62-1.61.34-3.46.45-5.24.13-7.02-11.68-20.38-7.51-15.04-5.66l4.29,1.49c2.58.89,4.87,2.42,6.11,4.76l-92.46-.77c-3.57-.03-6.83-.52-10.02-1.27-3.18-.76-4.4-3.45-3.48-6.58l2.34-7.95c.07-.26-.38-1.27-.52-1.49-1.3-2.03-4.02,9.28-8.91,5.84-9.53-6.7-17.53-14.74-24.11-24.57-24.92-37.25-27.18-86.86-5.6-126.09,9.99-18.16,25.07-32.47,43.26-41.57,18.19-9.1,34.01-9.81,49.63-24.16,5.52-5.07,9.23-11.33,12.02-18.31l7.29-18.28c1.17-2.93,2.78-5.39,4.8-8.14,3.27,4.51,6.55,9.83,9.1,14.43,1.38,2.48,3.27-2.7.37-9.56l-4.89-11.54c-6.81-16.08-3.41-30.75,3.3-46.36,13.47,10.56,21.85,22.82,24.18,39.59.43,3.12,1.07,6.03,2.1,9.17,3.17.08,3.42-11.01,3.69-13.34,18.08,1.62,34.78,9.43,47.37,22.33,4.91,5.03,8.5,10.47,11.97,16.49l5.14,8.92c2.32,4.04,11.6,20.71,8.62,24.26-1.97,2.34-6.51-3.28-9.27-3.86-2.43,4.76.32,9.7,5.44,11.37-2.37,2.58-5.06,5.17-8.29,6.31-5.56,1.96-11.8,1.13-17.13-1.15-3.35-1.43-4.83-4.26-6.77-3.51-.65.25-.6,2.07-.18,2.63,3.21,4.24,7.38,5.79,12.95,6.98-5.9,2.29-11.85,2.91-18.11,3.62-11.25,1.27-22.49.51-33.02-3.72-9.47-3.81-16.62-10.9-21.91-19.47-.68-1.1-1.7-2.16-2.86-2.04-.74,3.76,1.07,6.87,2.86,9.81,5.88,9.63,15.01,15.17,25.75,19.34l-3.91,5.42c-2.42,3.37-2.57,7.95-1.49,12.02,1.34-4,2.17-7.69,4.44-11.06,4.31-6.41,9.09-4.98,15.58-4.12-4.97,10-5.74,19.15-8.47,30.1-2.95-1.91-5.03-4.09-7.5-6.28-8.4-7.45-7.27-13.36-9.91-15.35-.36-.27-1.72-.01-1.93.39-.73,1.38-.79,4.1-.26,5.9,3.01,10.27,10.19,18.88,20.02,23.37,5.6,2.56,11.66,3.23,17.82,3.37,14.19.31,23.21-5.66,34.08.77.99.59,2.02,1.86,2.91,2.81.14.52.17.64.11.49-2.93-.45-4.47-1.99-7.24-.78,3.58,4.32,12.05,3.6,9.68,10.47Z"/>
</svg>