<?xml version="1.0" encoding="UTF-8"?>
<svg id="Ebene_2" xmlns="http://www.w3.org/2000/svg" version="1.1" viewBox="0 0 595.28 841.89">
  <!-- Generator: Adobe Illustrator 30.2.1, SVG Export Plug-In . SVG Version: 2.1.1 Build 1)  -->
  <defs>
    <style>
      .st0 {
        fill: none;
      }

      .st1 {
        fill: #454697;
      }
    </style>
  </defs>
  <path class="st1" d="M437.72,477.52c-2.85-2.68-4.03-5.44-4.49-9.21-3.87,1.83-7.39,3.52-11.5,4.41-.24,3.2.56,6.46,2.73,9.01,2.77,3.24,10.08-2.28,13.26-4.21Z"/>
  <path class="st1" d="M425.64,502.24l3.58,1.11c.25-1.03.39-2.15.02-2.74-2.52-4.06-4.07-7.81-5-12.56-1.02.29-2.45,1.55-2.55,2.67,2.23,3.53,3.79,7.24,3.94,11.51Z"/>
  <path class="st1" d="M464.14,499.76c-.96-1.83-1.62-3.32-2.15-4.98l-2.23-6.97c-3.12,3.52-6.36,5.3-10.64,5.93l4,13.37c4.63-1.29,8.42-4.01,11.01-7.36Z"/>
  <path class="st1" d="M466.26,496.42c.17.48.81,1.26,1.18,1.58,1.6,1.42,7.16-2.53,7.69-5.04-1.21-1.51-2.45-3.08-3.13-4.72l-2.92-7.02c-1.85,2.45-3.59,3.74-6.52,4.78l3.7,10.42Z"/>
  <path class="st1" d="M444.33,491.92c-3.04-3.19-4.19-6.87-5.15-11.39-3.7,2.66-7.37,4.76-11.62,5.8.71,4.69,2.05,9.11,5.33,12.86,4.71-1.24,8.16-4.02,11.44-7.27Z"/>
  <path class="st1" d="M434.62,505.31l13.24,5.58c1.65-.23,2.25-1.8,1.83-3.26l-3.67-12.58c-3.82,3.55-7.76,5.95-12.2,7.58-.21.67.12,2.38.8,2.67Z"/>
  <path class="st1" d="M467.25,516.83c.54-4.67.14-9.06-1.37-13.6-3.27,3.51-6.89,5.82-11.54,6.57-1.39.22-2.96,1.15-2.84,2.73l12.33,6.73,3.42-2.43Z"/>
  <path class="st1" d="M480.4,489.17c-2.12-2.55-4.51-4.74-7.21-6.82l2.76,6.23c.72,1.62,3.26,2.44,4.45.59Z"/>
  <path class="st1" d="M484.14,506.19c2.18.11,5.77-2.34,5.08-4.48-1.19-3.69-3.97-6.5-6.12-9.73-1.17.36-2.38,1.27-3.01,2.09,2.25,3.89,2.88,7.65,4.05,12.13Z"/>
  <path class="st1" d="M486.88,521.7c2.35-1.19,5.41-2.59,6.14-5.09,1.08-3.69-.93-7.41-1.68-10.5-1.98,1.59-3.72,2.58-5.87,3.52,1.24,4.05,1.36,7.92,1.41,12.08Z"/>
  <path class="st1" d="M480.94,508.63c-.98-4.31-2.04-8.44-3.54-12.45-2.5,2.97-5.08,4.61-8.62,5.31,1.84,4.28,2.27,8.42,2.31,12.84,4.27-.55,7.23-2.59,9.85-5.7Z"/>
  <path class="st1" d="M482.73,521.93c.95-3.05.43-6.58-.1-10.02-3.61,3.51-7.23,5.74-12.33,5.47-.77,1.62-1.36,3.36-1.39,5.03l6.77,4.5c2.8-.72,6.22-2.31,7.05-4.98Z"/>
  <path class="st1" d="M417.08,470.32c-1.42-2.18-1.59-4.67-1.52-7.6-4.18,2.16-8.03,4.1-12.85,4.62-.49,2.77-.04,5.83,1.46,8.02,1.28,1.86,2.98,1.32,4.69.23l8.21-5.26Z"/>
  <path class="st1" d="M422.61,484.69c-3.29-3.04-3.86-6.38-4.44-11.12l-8.99,5.51c-.98.6-2.33.69-2.27,1.95.12,2.51,7.63,2.39,11.86,6.88l3.84-3.22Z"/>
  <path class="st1" d="M399.29,468.41c-3.76,2.19-6.85,4.7-10.15,7.54-.45,2.19.19,4.81,1.32,7.15l9.46-1.8,2.48-2.59c-2.87-2.53-3.14-5.89-3.11-10.3Z"/>
  <path class="st1" d="M379.54,483.59c2.51.25,4.9.24,7.09.13l-1.41-6.14c-2.14,1.69-4.09,3.29-5.69,6.01Z"/>
  <path class="st1" d="M398.02,461.82c-4.41,1.08-8.65,1.96-12.16,4.52-1.66,1.21.2,6.01,2.06,5.72,3.65-2.57,6.75-5.15,10.59-6.88l-.5-3.35Z"/>
  <path class="st1" d="M473.45,534.64c-2.12-1.81-4.16-3.41-6.55-4.73-1.92,4.92-2.31,9.63-6.07,13.86-.38-2.05,0-4.22.67-6.16l3.2-9.25-11.69-6.82-1.22,2.87c-1.05,2.47-1.27,5.37-4.43,6.6.82-3.8,1.95-6.97,3.21-10.59-5.94-3.25-11.97-5.81-18.3-7.99l-4.93,12.48c-.68-.93-.7-2.05-.37-2.94l3.68-10.13c-2.54-1.13-4.62-1.94-7.19-2.78-3.99,4.01-8.95,5.62-14.54,5.03l-2.43,3.64c-.95-1.27-.46-2.39,0-3.97l-5.99-1.72c-3.28-.94-6.71-1.43-9.99-.06-2.39,3.44-3.25,8.54-6.39,11.34-.14-3.96,2.28-6.51,2.52-10.44l-8.93,4.21c-4.56,13.35-8.1,25.55-10.03,39.48-1.79-11.15,2.82-26.94,6.12-37.66l-7.84,3.31c-5.97,20.29-8.21,36.58,2.04,56.1,4.31,8.21,10.18,15.08,16.86,21.53,3.25,3.14,5.83,6.5,7.84,10.47,1.27,2.5,3.85,3.45,6.56,2.13,4.28-2.07,8.54-3,13.13-3.44,24.19-2.31,41.41-13.58,52.76-35.06,5.9-11.18,10.26-22.6,13.67-34.81-1.04-2.22-3.87-3.24-5.37-4.52ZM375.94,582.66c-4.46-6.87-4.31-21.17-1.55-29.17.61,1.42.72,2.86.64,4.42-.38,7.43.27,14.46,1.64,21.99.2,1.07,0,2.12-.73,2.76ZM382.72,577.69c1.78-.87,3.17,13.9,3.15,15.82-4.01-4.37-3.94-10.23-3.15-15.82ZM412.12,605.73c-.36.24-1.91.36-1.93-.02-.02-.39.29-1.34.68-1.68,3.7-3.28,7.58-6.79,11.16-10.36.72-.72,1.46-1.24,2.6-1.39-3.02,5.53-7.17,9.86-12.52,13.46ZM451.98,580.74c-4.4,8.15-12.18,15.5-21.23,18.62.34-1.85,1.64-2.33,2.83-3.43,6.42-4.27,12.18-10.14,17.02-15.95.25-.29,1.05-.6,1.32-.66.26-.06.23,1.1.05,1.43ZM428.08,585.21l-22.9,8.19c-1.31.47-2.86-.33-3.36-1.17l-3.67-6.2c-8.67-14.63-24.01-36.25-15.92-53.38,2.77-5.49,7.41-10.09,13.53-11.5,12.3-2.84,23.64,4.98,26.55,17.21,9.17-7.12,21.28-6.86,29.3,1.13,4.3,4.28,6.1,10.39,6.01,16.38-1.23,15.84-16.08,24.54-29.52,29.35ZM461.82,563.63c.63-4.8,2.61-8.95,4.1-13.36,1.45-4.29,2.91-8.28,4.96-12.38,3.79,1.75-5.98,24.06-9.05,25.74Z"/>
  <path class="st1" d="M485.78,525.32l-4.17,2.37c-.16.06-.27.13-.73.32l-2.35,1.05.66.5,6.09,4.73c4.58.15,8.44-8.95,8.14-12.87-2.41,2.13-4.78,3.18-7.63,3.91Z"/>
  <path class="st1" d="M434.19,463.93l-14.48-2.75c-1.01,2.01-1.18,4.17-.24,6.3,2.04,4.61,11.42-2.13,14.72-3.55Z"/>
  <path class="st1" d="M384.15,474.36c-1.06-1.83-1.63-3.51-2.26-5.98-4.63,3.06-9.93,8.81-11.09,14.45,1.35.51,3.85,1.01,4.81.23,2.75-3.52,5.3-6.31,8.54-8.7Z"/>
  <path class="st1" d="M469.29,446.19c-1.03-2.87-2.37-5.12-4.36-7.16-9.48,2.85-15.68,11.54-18.65,20.05,1.32.57,2.44.9,3.75.92,3.7-8.09,10.82-12.29,19.26-13.8Z"/>
  <path class="st1" d="M442.35,479.21c.64,3.25,1.82,6.52,3.57,9.49,2.84,4.84,9.77-.78,11.59-3.63-3.37-2.82-4.3-6.52-5.84-10.36-3.15,2.3-5.7,4.09-9.32,4.5Z"/>
  <path class="st1" d="M441.14,475.43c2.91.91,6.45-1.68,8.07-3.5l-2.61-4.11c-1.36-2.13-3.66-2.32-5.87-1.6l-4.15,1.36c.37,2.8,1.45,6.88,4.56,7.85Z"/>
  <path class="st1" d="M402.36,463.62c2.01,1.24,4.73-.8,9.21-1.57,1.77-.3,2.91-.27,3.91-1.26-4.39-.45-9.13-.18-13.39.44-.31.67-.24,2.07.27,2.39Z"/>
  <path class="st1" d="M464.73,481.24c1-.94,1.96-2.33,1.91-3.67l-7.25-4.76c-1-.65-2.54-1.09-3.9-1.6l-.72,2.51c.82,2.74,2.31,5.48,4.19,7.68,1.61,1.89,3.92,1.58,5.78-.17Z"/>
  <path class="st1" d="M422.29,538.36c-2.91-12.23-14.24-20.05-26.55-17.21-6.12,1.41-10.76,6.01-13.53,11.5-8.09,17.14,7.26,38.75,15.92,53.38l3.67,6.2c.5.84,2.05,1.64,3.36,1.17l22.9-8.19c13.44-4.81,28.29-13.51,29.52-29.35.09-5.99-1.71-12.1-6.01-16.38-8.02-7.98-20.13-8.24-29.3-1.13ZM437,576.71c-6.34,3.28-12.89,5.49-19.59,7.96l-12.62,4.65-10.28-17.36c-6.97-11.77-15.84-28.82-6.06-41.29,5.06-6.45,13.39-7.8,20.45-3.94,9.94,5.44,9.07,14.27,11.22,16.61,2.07,2.26,5.76-5.79,16.26-5.88,9.8-.08,17.47,7.72,17.11,17.58-.36,9.81-8.41,17.49-16.48,21.67Z"/>
  <path class="st1" d="M379.39,393.51c1.07-1.65.05-3.99-1.05-4.8-1.33-.99-3.65-1.36-4.85-.35-1.85,1.55-1.09,4.22.2,5.56,1.45,1.51,4.27,1.79,5.7-.41Z"/>
  <g>
    <path class="st0" d="M222.7,337.52c-2.73-3.68-5.63-7.1-9.32-9.12-.43-.24-1.49-.37-1.62-.02-.13.35.1,1.36.38,1.68,2.79,3.15,6.04,6.35,8.45,9.83,4.71,6.8,5.32,14.32,7.42,17.05,1.89,2.46,1.98-9.61-5.32-19.42Z"/>
    <path class="st0" d="M157.73,335.74c-1.84-.77-4-.84-6.07-.27.11.81,1.07,1.81,1.97,2.15,12.88,4.79,22,15.78,24.48,29.35,1.4,7.64.87,15.25-.89,22.75-.09.4.19,1.58.58,1.52,1.94-.29,3.2-3.82,3.58-5.62,4.21-19.91-4.54-41.91-23.64-49.88Z"/>
    <path class="st0" d="M101.66,327.3c-3.94-.82-8.57,18.21-7.24,22.06,1.34-.11,1.88-1.57,2.15-2.92,1.28-6.27,3.02-11.68,5.54-17.33.21-.47.02-1.71-.45-1.81Z"/>
    <path class="st0" d="M224.46,312.92c-2-2.43-13.4-14.45-15.47-12.61-.3.27-.34,1.8.09,2.16,17.48,14.37,30.49,35.69,30.29,59.24l-.11,12.6c0,.41.96,1.53,1.27,1.37.31-.17,1.03-.76,1.11-1.22,2.39-15.18.52-31.04-6.31-45.02-2.98-6.09-6.63-11.36-10.87-16.51Z"/>
    <path class="st1" d="M225.05,297.88c-32.62-29.48-82.71-32.05-118.97-7.65-19.42,13.07-31.56,34.5-32.29,57.9-.28,9.12,1.23,17.58,4.94,25.59,6.79,14.66,20.27,23.97,36.4,24.82,2.53.13,4.94.11,7.49-.74-2.79-2.82-5.54-4.89-7.83-8.08-10.01-13.98-5.45-34.29,10.1-42.08,12.5-6.26,27.8-1.95,35.86,9.12,9.42,12.95,8.23,27.92,1.63,41.73-2.84,5.95-5.92,11.39-9.81,16.75l-12.98,17.9c-20.73,28.6-31.58,59.52-26.45,95.32,6.43,44.9,41.85,83.72,88.29,89l-8.38-11.95c-11.73-16.72-17.24-36.49-19.24-56.9-1.9-19.28.35-38.43,6.6-56.8,4.38-12.85,11.02-24.49,19.4-35.05,4.94-6.23,10.5-11.23,16.37-16.48,15.41-13.8,27.85-30.74,33.23-51.02,8.71-32.89,1.3-68.2-24.36-91.39ZM89.06,370.89c-3.77-.77-5.56-9.35-4.59-12.54.8-.25,1.92.55,2.14,1.23l3.02,9.26c.16.48-.14,2.14-.57,2.05ZM102.12,329.11c-2.52,5.66-4.26,11.06-5.54,17.33-.28,1.35-.81,2.81-2.15,2.92-1.34-3.86,3.29-22.88,7.24-22.06.48.1.66,1.34.45,1.81ZM109.06,303.44c-3.38,3.03-6.97,6.13-9.99,9.56-5.65,6.42-9.39,13.84-11.11,22.4l-1.99,9.9c-.08.41-.82,1.17-1.21,1.31-.39.14-1.16-1.12-1.15-1.58.3-17.5,9.46-33.83,24.02-43.59l1.82.29c.38.06-.09,1.45-.38,1.71ZM130.16,470.55c4.2-10.18,9.22-19.78,15.76-28.64,1.57-2.13,3.39-4.09,5.68-5.45,1.02.36.85,2.18.2,3.08-5.7,7.81-10.79,15.68-15.12,24.33l-8.18,17.26c-.95-3.82.67-7.01,1.65-10.57ZM140.17,528.02c-1.4,3.95-9.86-21.25,2.5-52.62.51-1.3,1.49-2.38,3.2-2.11l-3.54,12.74c-6.23,22.39-.93,38.53-2.16,41.99ZM161.46,589.36c-.31-.02-1.26-.1-1.94-.56-25.3-16.93-39.24-49.6-37.25-80.45.15-2.36.37-4.5,1.61-6.67.74,2.14.84,3.69.81,5.65-.18,12.69,1.32,25.18,5.68,37.12,4.97,13.61,12.44,25.26,23.14,35.34,2.97,2.8,6.48,5.39,8.68,8.29-.11.47-.42,1.29-.74,1.27ZM181.37,385.62c-.38,1.8-1.64,5.34-3.58,5.62-.39.06-.67-1.12-.58-1.52,1.76-7.5,2.29-15.11.89-22.75-2.48-13.57-11.6-24.56-24.48-29.35-.89-.33-1.86-1.34-1.97-2.15,2.08-.57,4.24-.5,6.07.27,19.1,7.97,27.85,29.97,23.64,49.88ZM228.01,356.94c-2.1-2.73-2.71-10.24-7.42-17.05-2.41-3.48-5.66-6.68-8.45-9.83-.29-.32-.51-1.33-.38-1.68.13-.35,1.19-.22,1.62.02,3.69,2.01,6.59,5.44,9.32,9.12,7.3,9.81,7.21,21.88,5.32,19.42ZM233.97,403.05c-1.16,2.52-2.67,5.29-5.04,6.03-.37.12-.72-1.17-.51-1.64l4.89-10.57c1.15-2.48,1.89-4.57,3.49-7.08,2.98,2.01-1.59,10.57-2.83,13.26ZM241.64,374.46c-.07.46-.8,1.06-1.11,1.22-.31.17-1.27-.95-1.27-1.37l.11-12.6c.2-23.55-12.81-44.87-30.29-59.24-.43-.36-.39-1.89-.09-2.16,2.07-1.84,13.47,10.17,15.47,12.61,4.23,5.15,7.89,10.42,10.87,16.51,6.83,13.98,8.7,29.84,6.31,45.02Z"/>
  </g>
</svg>