<?xml version="1.0" encoding="UTF-8"?>
<svg id="Ebene_2" xmlns="http://www.w3.org/2000/svg" version="1.1" viewBox="0 0 595.28 841.89">
  <!-- Generator: Adobe Illustrator 30.2.1, SVG Export Plug-In . SVG Version: 2.1.1 Build 1)  -->
  <defs>
    <style>
      .st0, .st1 {
        fill: none;
      }

      .st1 {
        stroke: #1d1d1b;
        stroke-miterlimit: 10;
        stroke-width: .25px;
      }

      .st2 {
        fill: #454697;
      }

      .st3 {
        fill: #f9af15;
      }
    </style>
  </defs>
  <g id="pP0cwv">
    <g>
      <path class="st3" d="M478.53,478.42c21.59,10.49,45.13,30.32,44.53,56.16-.21,9.16-4.92,21.16-15.26,22.62-4.65,14.92-10.27,30.73-18.99,43.64-12.42,18.4-29.9,28.2-51.91,30.45-5,.51-9.47,1.45-13.99,3.46-5.53,2.45-11.46-.18-14-5.47-1.84-3.84-4.28-6.71-7.34-9.58-8.07-7.6-14.7-16.23-19.58-26.37-3.97,14.04-10.5,23.88-20.28,35.22,12.04-.42,26.27-1.21,36.4,6.1,5.38,3.88,8.62,9.53,8.66,16.13.02,3.03-1.91,4.94-5.03,5l-8.56.16-12.54.19c.07,3.82-2.45,7.3-6.37,7.77-3.41.41-6.53.53-10.15.5l-98.07-.7c-4.51-.03-8.55-.85-12.56-2.45-6.87-2.74-3.56-7.82-9.79-11.39-3.4-1.95-6.4-3.97-9.59-6.35-1.11-.83-2.87-1.1-4.46-1.19-24.36-1.29-47.09-10.65-65.31-26.87-14.7-13.09-25.96-29.42-32.41-48.16-7.59-22.06-8.77-45.76-3.77-68.57,3.66-16.73,10.7-31.92,19.91-46.2,4.97-7.71,10.26-14.58,15.67-21.92,6.63-9,14.19-20.7,16.49-31.7,1.88-9.01-.48-18.49-7.42-24.72-8.25-7.41-21.44-6.94-28.21,2.03-4.89,6.48-4.93,15.43-1.15,22.65,3.38,6.46,10.57,10.61,17.69,11.22,1.09.09,2.37.13,2.81.62,2.58,2.9-4.49,7.46-7.99,8.77-23.7,8.88-50.26-1.5-61.93-24.13-13.5-26.16-6.51-60.41,12.49-82.24,15.98-18.36,38.89-29.22,62.9-32.25,25.94-3.27,51.93,2.65,73.51,17.26,11.34,7.67,20.3,17.38,27.49,29.02,5.85,9.47,9.62,19.79,11.72,30.75,5.5,28.61-.45,58.17-17.41,82.11,2.42-.61,4.76-1.53,7.25-2.47,6.5-2.48,12.84-4.44,19.18-7.38,8.61-4,16.43-9.77,21.32-18.01,5.75-9.68,6.59-20.64,15.65-34.58.88-1.35,1.63-2.89,2.33-4.36-4.98-19.91-.88-35.76,8.17-53.57.61-1.2,2.53-2.23,3.87-1.52,7.51,4,14.36,9.85,19.45,16.79l2.71-5.73c1.93-4.08,3.14-8.14,4.17-12.62,1.73-7.5,13.49,6.5,15.31,8.74,6.87,8.46,12.38,21.73,11.51,32.98-.11,1.35.69,2.64,2.04,3.19,11.51,4.74,22.11,11.24,30.5,20.47,5.97,6.57,12.72,17.8,16.72,25.74l9.07,17.98c3.39,6.73,2.61,13.92-1.82,19.97-4.72,6.44-14.74,13.17-22.28,15.83-8.8,3.11-17.68,4.68-27.04,5.27-2.22.14-4.17,1-4.96,3.13-1.62,4.39-3.07,8.61-4.24,13.23,16.97-17.54,45.76-16.53,68.14-10.89,4.67-10.54,10.7-19.97,22.06-23.87,2.66-.91,5.46-.79,7.62,1.06,3.43,2.93,6.14,7.08,6.66,11.51.48,4.07-2.01,7.1-5.82,7.63-6.03.83-11.08,4.51-13.73,9.95ZM135.38,543.74c6.43,44.9,41.85,83.72,88.29,89l-8.38-11.95c-11.73-16.72-17.24-36.49-19.24-56.9-1.9-19.28.35-38.43,6.6-56.8,4.38-12.85,11.02-24.49,19.4-35.05,4.94-6.23,10.5-11.23,16.37-16.48,15.41-13.8,27.85-30.74,33.23-51.02,8.71-32.89,1.3-68.2-24.36-91.39-32.62-29.48-82.71-32.05-118.97-7.65-19.42,13.07-31.56,34.5-32.29,57.9-.28,9.12,1.23,17.58,4.94,25.59,6.79,14.66,20.27,23.97,36.4,24.82,2.53.13,4.94.11,7.49-.74-2.79-2.82-5.54-4.89-7.83-8.08-10.01-13.98-5.45-34.29,10.1-42.08,12.5-6.26,27.8-1.95,35.86,9.12,9.42,12.95,8.23,27.92,1.63,41.73-2.84,5.95-5.92,11.39-9.81,16.75l-12.98,17.9c-20.73,28.6-31.58,59.52-26.45,95.32ZM374.27,356.07l12.57,2.03c1.09-9.96-5.2-23.69-12.54-30.27l-4.41,12.34c-.8,2.25-.58,4.74.7,6.7,1.56,2.99,2.62,5.75,3.67,9.2ZM382.27,530.88l24.51-10.12c13.29-5.49,16.57.69,28.3.74l-6.2-4.55c4.68-.58,7.82,1.55,11.51,3.44,2.37-6.87-6.1-6.15-9.68-10.47,2.77-1.21,4.31.33,7.24.78.06.15.03.03-.11-.49-.89-.95-1.92-2.22-2.91-2.81-10.87-6.43-19.89-.46-34.08-.77-6.16-.14-12.22-.81-17.82-3.37-9.83-4.49-17.01-13.1-20.02-23.37-.53-1.8-.47-4.52.26-5.9.21-.4,1.57-.66,1.93-.39,2.64,1.99,1.51,7.9,9.91,15.35,2.47,2.19,4.55,4.37,7.5,6.28,2.73-10.95,3.5-20.1,8.47-30.1-6.49-.86-11.27-2.29-15.58,4.12-2.27,3.37-3.1,7.06-4.44,11.06-1.08-4.07-.93-8.65,1.49-12.02l3.91-5.42c-10.74-4.17-19.87-9.71-25.75-19.34-1.79-2.94-3.6-6.05-2.86-9.81,1.16-.12,2.18.94,2.86,2.04,5.29,8.57,12.44,15.66,21.91,19.47,10.53,4.23,21.77,4.99,33.02,3.72,6.26-.71,12.21-1.33,18.11-3.62-5.57-1.19-9.74-2.74-12.95-6.98-.42-.56-.47-2.38.18-2.63,1.94-.75,3.42,2.08,6.77,3.51,5.33,2.28,11.57,3.11,17.13,1.15,3.23-1.14,5.92-3.73,8.29-6.31-5.12-1.67-7.87-6.61-5.44-11.37,2.76.58,7.3,6.2,9.27,3.86,2.98-3.55-6.3-20.22-8.62-24.26l-5.14-8.92c-3.47-6.02-7.06-11.46-11.97-16.49-12.59-12.9-29.29-20.71-47.37-22.33-.27,2.33-.52,13.42-3.69,13.34-1.03-3.14-1.67-6.05-2.1-9.17-2.33-16.77-10.71-29.03-24.18-39.59-6.71,15.61-10.11,30.28-3.3,46.36l4.89,11.54c2.9,6.86,1.01,12.04-.37,9.56-2.55-4.6-5.83-9.92-9.1-14.43-2.02,2.75-3.63,5.21-4.8,8.14l-7.29,18.28c-2.79,6.98-6.5,13.24-12.02,18.31-15.62,14.35-31.44,15.06-49.63,24.16s-33.27,23.41-43.26,41.57c-21.58,39.23-19.32,88.84,5.6,126.09,6.58,9.83,14.58,17.87,24.11,24.57,4.89,3.44,7.61-7.87,8.91-5.84.14.22.59,1.23.52,1.49l-2.34,7.95c-.92,3.13.3,5.82,3.48,6.58,3.19.75,6.45,1.24,10.02,1.27l92.46.77c-1.24-2.34-3.53-3.87-6.11-4.76l-4.29-1.49c-5.34-1.85,8.02-6.02,15.04,5.66,1.78.32,3.63.21,5.24-.13-2.71-11.05-15.38-13.45-25.32-13.62-10.26-.18-20.14,1.09-30.32,2.46-1.88.25-10.96,1.53-10.77-.76.04-.48.64-1.35,1.12-1.63,4.98-2.96,10.25-4.88,14.92-8.36,18.58-13.81,27.76-37.02,24.91-59.82-1.14-9.09-3.86-16.88-9.22-24.33-14.94-20.72-42.64-26.94-65.19-13.4-4.62,2.77-8.25,6.24-12.23,9.91-.99.91-2.75,1.18-3.56.52-1.05-.87-1.08-2.59-.25-3.84,11.26-16.93,33.94-24.72,53.48-20.26,6.32,1.44,11.87,4.09,17.59,6.99,1.7.86,4.2-.25,5.55-1.81-6.29-6.06-11.69-12.07-15.26-19.86-1.74-3.79-1.36-8,1.02-7.75.67.07,2.06.83,2.4,1.44,5.13,9.24,13.56,19.07,22.18,25.05,10.56,7.32,28.22,9.87,39.56,5.18ZM472.27,475.26c3.7-8.09,10.82-12.29,19.26-13.8-1.03-2.87-2.37-5.12-4.36-7.16-9.48,2.85-15.68,11.54-18.65,20.05,1.32.57,2.44.9,3.75.92ZM433.81,477.31c1.77-.3,2.91-.27,3.91-1.26-4.39-.45-9.13-.18-13.39.44-.31.67-.24,2.07.27,2.39,2.01,1.24,4.73-.8,9.21-1.57ZM441.95,476.45c-1,2.01-1.18,4.17-.24,6.3,2.04,4.61,11.42-2.13,14.72-3.55M420.75,480.44l-.5-3.35c-4.41,1.08-8.65,1.96-12.16,4.52-1.66,1.21.2,6.01,2.06,5.72,3.65-2.57,6.75-5.15,10.59-6.88ZM431.1,490.84l8.21-5.26c-1.42-2.18-1.59-4.67-1.52-7.6-4.18,2.16-8.03,4.1-12.85,4.62-.49,2.77-.04,5.83,1.46,8.02,1.28,1.86,2.98,1.32,4.69.23ZM471.44,487.19l-2.61-4.11c-1.36-2.13-3.66-2.32-5.87-1.6l-4.15,1.36c.37,2.8,1.45,6.88,4.56,7.85,2.91.91,6.45-1.68,8.07-3.5ZM459.96,492.78c-2.85-2.68-4.03-5.44-4.49-9.21-3.87,1.83-7.39,3.52-11.5,4.41-.24,3.2.56,6.46,2.73,9.01,2.77,3.24,10.08-2.28,13.26-4.21ZM397.85,498.32c2.75-3.52,5.3-6.31,8.54-8.7-1.06-1.83-1.63-3.51-2.26-5.98-4.63,3.06-9.93,8.81-11.09,14.45,1.35.51,3.85,1.01,4.81.23ZM422.15,496.56l2.48-2.59c-2.87-2.53-3.14-5.89-3.11-10.3-3.76,2.19-6.85,4.7-10.15,7.54-.45,2.19.19,4.81,1.32,7.15l9.46-1.8ZM486.96,496.5c1-.94,1.96-2.33,1.91-3.67l-7.25-4.76c-1-.65-2.54-1.09-3.9-1.6l-.72,2.51c.82,2.74,2.31,5.48,4.19,7.68,1.61,1.89,3.92,1.58,5.78-.17ZM441.01,503.17l3.84-3.22c-3.29-3.04-3.86-6.38-4.44-11.12l-8.99,5.51c-.98.6-2.33.69-2.27,1.95.12,2.51,7.63,2.39,11.86,6.88ZM479.75,500.34c-3.37-2.82-4.3-6.52-5.84-10.36-3.15,2.3-5.7,4.09-9.32,4.5.64,3.25,1.82,6.52,3.57,9.49,2.84,4.84,9.77-.78,11.59-3.63ZM408.87,498.98l-1.41-6.14c-2.14,1.69-4.09,3.29-5.69,6.01,2.51.25,4.9.24,7.09.13ZM455.13,514.45c4.71-1.24,8.16-4.02,11.44-7.27-3.04-3.19-4.19-6.87-5.15-11.39-3.7,2.66-7.37,4.76-11.62,5.8.71,4.69,2.05,9.11,5.33,12.86ZM497.36,508.23c-1.21-1.51-2.45-3.08-3.13-4.72l-2.92-7.02c-1.85,2.45-3.58,3.74-6.52,4.78l3.7,10.42c.17.48.81,1.26,1.18,1.58,1.6,1.42,7.16-2.53,7.69-5.04ZM502.64,504.43c-2.12-2.55-4.51-4.74-7.21-6.82l2.76,6.23c.72,1.62,3.26,2.44,4.45.59ZM451.46,518.61c.25-1.03.39-2.15.02-2.74-2.52-4.06-4.07-7.81-5-12.56-1.02.29-2.45,1.55-2.55,2.67,2.23,3.53,3.79,7.24,3.94,11.51l3.58,1.11ZM486.38,515.03c-.96-1.83-1.62-3.32-2.15-4.98l-2.23-6.97c-3.12,3.52-6.36,5.3-10.64,5.93l4,13.37c4.63-1.29,8.42-4.01,11.01-7.36ZM506.37,521.45c2.18.11,5.77-2.34,5.08-4.48-1.19-3.69-3.97-6.5-6.12-9.73-1.17.36-2.38,1.27-3.01,2.09,2.25,3.89,2.88,7.65,4.05,12.13ZM470.1,526.15c1.65-.23,2.25-1.8,1.83-3.26l-3.67-12.58c-3.82,3.55-7.76,5.95-12.2,7.58-.21.67.12,2.38.8,2.67l13.24,5.58ZM493.33,529.6c4.27-.55,7.23-2.59,9.85-5.7-.98-4.31-2.04-8.44-3.54-12.45-2.5,2.97-5.08,4.61-8.62,5.31,1.84,4.28,2.27,8.42,2.31,12.84ZM486.07,534.53l3.42-2.43c.54-4.67.14-9.06-1.37-13.6-3.27,3.51-6.89,5.82-11.54,6.57-1.39.22-2.96,1.15-2.84,2.73l12.33,6.73ZM515.26,531.87c1.08-3.69-.93-7.41-1.68-10.5-1.98,1.59-3.72,2.58-5.87,3.52,1.24,4.05,1.36,7.92,1.41,12.08,2.35-1.19,5.41-2.59,6.14-5.09ZM421.5,627.75c4.28-2.07,8.54-3,13.13-3.44,24.19-2.31,41.41-13.58,52.76-35.06,5.9-11.18,10.26-22.6,13.67-34.81-1.04-2.22-3.87-3.24-5.37-4.52-2.12-1.81-4.16-3.41-6.55-4.73-1.92,4.92-2.31,9.63-6.07,13.86-.38-2.05,0-4.22.67-6.16l3.2-9.25-11.69-6.82-1.22,2.87c-1.05,2.47-1.27,5.37-4.43,6.6.82-3.8,1.95-6.97,3.21-10.59-5.94-3.25-11.97-5.81-18.3-7.99l-4.93,12.48c-.68-.93-.7-2.05-.37-2.94l3.68-10.13c-2.54-1.13-4.62-1.94-7.19-2.78-3.99,4.01-8.95,5.62-14.54,5.03l-2.43,3.64c-.95-1.27-.46-2.39,0-3.97l-5.99-1.72c-3.28-.94-6.71-1.43-9.99-.06-2.39,3.44-3.25,8.54-6.39,11.34-.14-3.96,2.28-6.51,2.52-10.44l-8.93,4.21c-4.56,13.35-8.1,25.55-10.03,39.48-1.79-11.15,2.82-26.94,6.12-37.66l-7.84,3.31c-5.97,20.29-8.21,36.58,2.04,56.1,4.31,8.21,10.18,15.08,16.86,21.53,3.25,3.14,5.83,6.5,7.84,10.47,1.27,2.5,3.85,3.45,6.56,2.13ZM497.91,542.18c2.8-.72,6.22-2.31,7.05-4.98.95-3.05.43-6.58-.1-10.02-3.61,3.51-7.23,5.74-12.33,5.47-.77,1.62-1.36,3.36-1.39,5.03l6.77,4.5ZM360.66,571.04c2.46-9.79,4.46-19.49,6.14-29.72-8.48-.88-16.03-2.49-23.11-6.45l-4.59-2.57c-1.75,1.78-1.4,3.95.05,5.78,3.7,4.64,7.24,9.29,9.87,14.71,4.74,9.77,6.38,19.97,6.62,31.24,2.28-4.27,3.87-8.47,5.01-13ZM501.42,544.81l6.09,4.73c4.58.15,8.44-8.95,8.14-12.87-2.41,2.13-4.78,3.18-7.63,3.91l-4.17,2.37c-.16.06-.27.13-.73.32l-2.35,1.05.66.5ZM377.5,549.9l2.39-9.61c-1.27-.04-4.04.3-4.38,1.6-.8,3.05.87,5.8,1.98,8.02ZM336.83,631.54c3.12-.54,5.48-1.82,8.15-3.36,5.43-3.11,10.57-6.54,14.54-11.49,13.42-16.72,19.49-36.36,12.1-57.12-2.07,8.5-3.35,16.39-6.54,24.13-3.74,9.06-9.02,16.91-14.55,24.94-3.92,10.36-7.32,13.98-13.7,22.91ZM382.91,641.38c4.49.09,6.27,3.03,8.46,5.84,1.94.15,4.35.13,6.39-.04-3.86-10.14-21.28-10.84-30.26-10.33,4.01,2.23,7.11,4.95,9.74,8.76.67.97,2.15,1.67,3.28,1.93l6.73-.18-4.34-5.97Z"/>
      <path class="st3" d="M230.67,603.9c-3.56,5.55-10.34-15.5-10.87-17.05-14.44-42.34-1.57-95.4,36.71-120.86,2.07-1.37,11.39-6.85,13.33-5.62s-4.23,4.37-5.04,4.81c-15.32,8.31-27.61,21.18-35.35,36.73-16.1,32.31-15.79,70.13,1.21,101.99Z"/>
      <path class="st3" d="M403.66,417.65c-3.5,1.2-7.04,1.87-10.33.62-4.12-1.57-6.72-5.25-7.93-9.43-1.88-6.48-2.55-2.38-4.73-7.44,4.02-.86,7.18-1.76,10.6-3.22,9.84-4.2,16.89,4.06,19.95,12.45.53,1.44,2.85,6.56,1.08,7.45-2.01,1.01-4.54-1.83-8.64-.43ZM401.62,408.77c1.07-1.65.05-3.99-1.05-4.8-1.33-.99-3.65-1.36-4.85-.35-1.85,1.55-1.09,4.22.2,5.56,1.45,1.51,4.27,1.79,5.7-.41Z"/>
      <path class="st3" d="M333.59,584.74c.16-20.41-10.48-40-31.54-43.43-5.5-.89-11.73.18-12.74-1.12-.24-.32.75-1.26,1.16-1.38,13.58-4.06,29,3,36.97,14.27,6.95,9.83,10.31,21.72,8.48,33.58-1.12.45-2.34-.69-2.33-1.92Z"/>
      <path class="st3" d="M354.01,386.85c-2.13-6.44-4.77-11.75-8.24-18.05,3.88,1.66,6.02,5.33,8.7,9.15,3.57-13.19-.99-22.53-7.93-33.4-.24-.38-.35-1.8.07-1.87,4.39-.73,9.81,11.48,11.1,15.29,2.48,7.35,4.54,24.73-1.54,30.74-.64.28-1.87-.97-2.16-1.85Z"/>
      <path class="st3" d="M280.58,458.02l-4.45,1.22c-.19.05-.98-.37-1-.56-.24-2.27,7.07-5.38,8.59-3.58.04,1.38-1.61,2.5-3.14,2.92Z"/>
      <path class="st3" d="M175.76,595.06c2.97,2.8,6.48,5.39,8.68,8.29-.11.47-.42,1.29-.74,1.27s-1.26-.1-1.94-.56c-25.3-16.93-39.24-49.6-37.25-80.45.15-2.36.37-4.5,1.61-6.67.74,2.14.84,3.69.81,5.65-.18,12.69,1.32,25.18,5.68,37.12,4.97,13.61,12.44,25.26,23.14,35.34Z"/>
      <path class="st3" d="M261.5,389.58l.11-12.6c.2-23.55-12.81-44.87-30.29-59.24-.43-.36-.39-1.89-.09-2.16,2.07-1.84,13.47,10.17,15.47,12.61,4.23,5.15,7.89,10.42,10.87,16.51,6.83,13.98,8.7,29.84,6.31,45.02-.07.46-.8,1.06-1.11,1.22s-1.27-.95-1.27-1.37Z"/>
      <path class="st3" d="M203.61,400.88c-.38,1.8-1.64,5.34-3.58,5.62-.39.06-.67-1.12-.58-1.52,1.76-7.5,2.29-15.11.89-22.75-2.48-13.57-11.6-24.56-24.48-29.35-.89-.33-1.86-1.34-1.97-2.15,2.08-.57,4.24-.5,6.07.27,19.1,7.97,27.85,29.97,23.64,49.88Z"/>
      <path class="st3" d="M164.56,501.29c-6.23,22.39-.93,38.53-2.16,41.99-1.4,3.95-9.86-21.25,2.5-52.62.51-1.3,1.5-2.38,3.2-2.11l-3.54,12.74Z"/>
      <path class="st3" d="M110.19,350.66l-1.99,9.9c-.08.41-.82,1.17-1.21,1.31s-1.16-1.12-1.15-1.58c.3-17.5,9.46-33.83,24.02-43.59l1.82.29c.38.06-.09,1.45-.38,1.71-3.38,3.03-6.97,6.13-9.99,9.56-5.65,6.42-9.39,13.84-11.11,22.4Z"/>
      <path class="st3" d="M150.74,496.38c-.95-3.82.67-7.01,1.65-10.57,4.2-10.18,9.22-19.78,15.76-28.64,1.57-2.13,3.39-4.09,5.68-5.45,1.02.36.85,2.18.2,3.08-5.7,7.81-10.79,15.68-15.12,24.33l-8.18,17.26Z"/>
      <path class="st3" d="M250.25,372.2c-2.1-2.73-2.71-10.24-7.42-17.05-2.41-3.48-5.66-6.68-8.45-9.83-.29-.32-.51-1.33-.38-1.68s1.19-.22,1.62.02c3.69,2.01,6.59,5.44,9.32,9.12,7.3,9.81,7.21,21.88,5.32,19.42Z"/>
      <path class="st3" d="M118.82,361.7c-.28,1.35-.81,2.81-2.15,2.92-1.34-3.86,3.29-22.88,7.24-22.06.48.1.66,1.34.45,1.81-2.52,5.66-4.26,11.06-5.54,17.33Z"/>
      <path class="st3" d="M256.21,418.32c-1.16,2.52-2.67,5.29-5.04,6.03-.37.12-.72-1.17-.51-1.64l4.89-10.57c1.15-2.48,1.89-4.57,3.49-7.08,2.98,2.01-1.59,10.57-2.83,13.26Z"/>
      <path class="st3" d="M111.87,384.1c.16.48-.14,2.14-.57,2.05-3.77-.77-5.56-9.35-4.59-12.54.8-.25,1.92.55,2.14,1.23l3.02,9.26Z"/>
      <path class="st3" d="M427.41,608.66c-1.31.47-2.87-.33-3.36-1.17l-3.67-6.2c-8.67-14.63-24.01-36.25-15.92-53.38,2.77-5.49,7.41-10.09,13.53-11.5,12.3-2.84,23.64,4.98,26.55,17.21,9.17-7.12,21.28-6.86,29.3,1.13,4.3,4.28,6.1,10.39,6.01,16.38-1.23,15.84-16.08,24.54-29.52,29.35l-22.9,8.19ZM475.72,570.3c.36-9.85-7.3-17.66-17.11-17.58-10.5.09-14.19,8.14-16.26,5.88-2.14-2.33-1.27-11.16-11.22-16.61-7.06-3.86-15.39-2.52-20.45,3.94-9.78,12.47-.91,29.51,6.06,41.29l10.28,17.36,12.62-4.65c6.7-2.47,13.25-4.68,19.59-7.96,8.08-4.18,16.12-11.86,16.48-21.67Z"/>
      <path class="st3" d="M452.99,614.62c.34-1.85,1.64-2.33,2.83-3.43,6.42-4.27,12.18-10.14,17.02-15.95.25-.29,1.05-.6,1.32-.66s.23,1.1.05,1.43c-4.4,8.15-12.18,15.5-21.23,18.62Z"/>
      <path class="st3" d="M484.06,578.9c.63-4.8,2.61-8.95,4.1-13.36,1.45-4.29,2.91-8.28,4.96-12.38,3.79,1.75-5.98,24.06-9.05,25.74Z"/>
      <path class="st3" d="M398.9,595.16c.2,1.07,0,2.12-.73,2.76-4.46-6.87-4.31-21.17-1.55-29.17.61,1.42.72,2.86.64,4.42-.38,7.43.27,14.46,1.64,21.99Z"/>
      <path class="st3" d="M434.36,620.99c-.36.24-1.91.36-1.93-.02s.29-1.34.68-1.68c3.7-3.28,7.58-6.79,11.16-10.36.72-.72,1.46-1.24,2.6-1.39-3.02,5.53-7.17,9.86-12.52,13.46Z"/>
      <path class="st3" d="M404.95,592.96c1.78-.87,3.17,13.9,3.15,15.82-4.01-4.37-3.94-10.23-3.15-15.82Z"/>
      <path class="st3" d="M456.66,587.58l3.94-11.83c-2.05.55-7.04,7.65-8.05,3.51l-1.74-7.09-4.02,11.7c-.22.65-1.69,1.13-2.26.9s-1.11-1.69-.87-2.37l5.73-16.55c.21-.59,1.69-1.32,2.25-1.07s1.4,1.24,1.55,1.92l1.99,8.82,7.35-6.19c.5-.42,2.15-.35,2.64.05s.75,1.66.49,2.41l-5.66,16.69c-.2.58-1.39,1.11-1.94,1.08s-1.56-1.42-1.38-1.96Z"/>
      <path class="st3" d="M424.38,575.25c-4.51,2.67-10.65-.08-11.98-4.91-.19-.69.43-2.01.93-2.23,2.57-1.11,1.78,3.72,6.86,4.69.88.17,2.47-.5,2.86-1.18.43-.74.36-2.76-.29-3.32l-4.21-3.65c-1.93-1.68-2.62-4.05-1.91-6.22.82-2.53,3.08-3.95,5.95-3.8,2.88.15,5.51,1.86,6.97,4.42.3.53-.32,2.02-.86,2.32-1.78,1.01-2.6-3.33-6.73-3.33-.6,0-1.55.66-1.78,1.18-.27.61.01,2.35.54,2.8l4.15,3.55c2.84,2.43,3.14,7.51-.51,9.68Z"/>
      <path class="st3" d="M438.31,573.67c-.84-.19-.51,1.78-2.08,3.4-.35.36-1.79-.04-1.93-.52s-.15-1.5-.02-2.03l.47-2c.16-.7-3.68-.88-3.35-3,.12-.76,1.55-1.38,2.45-1.15l1.87.48c.78.2.4-1.92,2.15-3.36.36-.3,1.64.02,1.75.48s.13,1.57.03,2.03l-.43,1.99c-.17.78,2.41.6,3.37,2.21.24.4.08,1.47-.35,1.67s-1.64.32-2.1.22l-1.83-.42Z"/>
    </g>
  </g>
  <path class="st2" d="M1093,477.52c-2.85-2.68-4.03-5.44-4.49-9.21-3.87,1.83-7.39,3.52-11.5,4.41-.24,3.2.56,6.46,2.73,9.01,2.77,3.24,10.08-2.28,13.26-4.21Z"/>
  <path class="st2" d="M1080.92,502.24l3.58,1.11c.25-1.03.39-2.15.02-2.74-2.52-4.06-4.07-7.81-5-12.56-1.02.29-2.45,1.55-2.55,2.67,2.23,3.53,3.79,7.24,3.94,11.51Z"/>
  <path class="st2" d="M1119.42,499.76c-.96-1.83-1.62-3.32-2.15-4.98l-2.23-6.97c-3.12,3.52-6.36,5.3-10.64,5.93l4,13.37c4.63-1.29,8.42-4.01,11.01-7.36Z"/>
  <path class="st2" d="M1121.53,496.42c.17.48.81,1.26,1.18,1.58,1.6,1.42,7.16-2.53,7.69-5.04-1.21-1.51-2.45-3.08-3.13-4.72l-2.92-7.02c-1.85,2.45-3.59,3.74-6.52,4.78l3.7,10.42Z"/>
  <path class="st2" d="M1099.61,491.92c-3.04-3.19-4.19-6.87-5.15-11.39-3.7,2.66-7.37,4.76-11.62,5.8.71,4.69,2.05,9.11,5.33,12.86,4.71-1.24,8.16-4.02,11.44-7.27Z"/>
  <path class="st2" d="M1089.9,505.31l13.24,5.58c1.65-.23,2.25-1.8,1.83-3.26l-3.67-12.58c-3.82,3.55-7.76,5.95-12.2,7.58-.21.67.12,2.38.8,2.67Z"/>
  <path class="st2" d="M1122.53,516.83c.54-4.67.14-9.06-1.37-13.6-3.27,3.51-6.89,5.82-11.54,6.57-1.39.22-2.96,1.15-2.84,2.73l12.33,6.73,3.42-2.43Z"/>
  <path class="st2" d="M1135.68,489.17c-2.12-2.55-4.51-4.74-7.21-6.82l2.76,6.23c.72,1.62,3.26,2.44,4.45.59Z"/>
  <path class="st2" d="M1139.41,506.19c2.18.11,5.77-2.34,5.08-4.48-1.19-3.69-3.97-6.5-6.12-9.73-1.17.36-2.38,1.27-3.01,2.09,2.25,3.89,2.88,7.65,4.05,12.13Z"/>
  <path class="st2" d="M1142.16,521.7c2.35-1.19,5.41-2.59,6.14-5.09,1.08-3.69-.93-7.41-1.68-10.5-1.98,1.59-3.72,2.58-5.87,3.52,1.24,4.05,1.36,7.92,1.41,12.08Z"/>
  <path class="st2" d="M1136.22,508.63c-.98-4.31-2.04-8.44-3.54-12.45-2.5,2.97-5.08,4.61-8.62,5.31,1.84,4.28,2.27,8.42,2.31,12.84,4.27-.55,7.23-2.59,9.85-5.7Z"/>
  <path class="st2" d="M1138,521.93c.95-3.05.43-6.58-.1-10.02-3.61,3.51-7.23,5.74-12.33,5.47-.77,1.62-1.36,3.36-1.39,5.03l6.77,4.5c2.8-.72,6.22-2.31,7.05-4.98Z"/>
  <path class="st2" d="M1072.35,470.32c-1.42-2.18-1.59-4.67-1.52-7.6-4.18,2.16-8.03,4.1-12.85,4.62-.49,2.77-.04,5.83,1.46,8.02,1.28,1.86,2.98,1.32,4.69.23l8.21-5.26Z"/>
  <path class="st2" d="M1077.88,484.69c-3.29-3.04-3.86-6.38-4.44-11.12l-8.99,5.51c-.98.6-2.33.69-2.27,1.95.12,2.51,7.63,2.39,11.86,6.88l3.84-3.22Z"/>
  <path class="st2" d="M1054.56,468.41c-3.76,2.19-6.85,4.7-10.15,7.54-.45,2.19.19,4.81,1.32,7.15l9.46-1.8,2.48-2.59c-2.87-2.53-3.14-5.89-3.11-10.3Z"/>
  <path class="st2" d="M1034.82,483.59c2.51.25,4.9.24,7.09.13l-1.41-6.14c-2.14,1.69-4.09,3.29-5.69,6.01Z"/>
  <path class="st2" d="M1053.29,461.82c-4.41,1.08-8.65,1.96-12.16,4.52-1.66,1.21.2,6.01,2.06,5.72,3.65-2.57,6.75-5.15,10.59-6.88l-.5-3.35Z"/>
  <path class="st2" d="M1128.72,534.64c-2.12-1.81-4.16-3.41-6.55-4.73-1.92,4.92-2.31,9.63-6.07,13.86-.38-2.05,0-4.22.67-6.16l3.2-9.25-11.69-6.82-1.22,2.87c-1.05,2.47-1.27,5.37-4.43,6.6.82-3.8,1.95-6.97,3.21-10.59-5.94-3.25-11.97-5.81-18.3-7.99l-4.93,12.48c-.68-.93-.7-2.05-.37-2.94l3.68-10.13c-2.54-1.13-4.62-1.94-7.19-2.78-3.99,4.01-8.95,5.62-14.54,5.03l-2.43,3.64c-.95-1.27-.46-2.39,0-3.97l-5.99-1.72c-3.28-.94-6.71-1.43-9.99-.06-2.39,3.44-3.25,8.54-6.39,11.34-.14-3.96,2.28-6.51,2.52-10.44l-8.93,4.21c-4.56,13.35-8.1,25.55-10.03,39.48-1.79-11.15,2.82-26.94,6.12-37.66l-7.84,3.31c-5.97,20.29-8.21,36.58,2.04,56.1,4.31,8.21,10.18,15.08,16.86,21.53,3.25,3.14,5.83,6.5,7.84,10.47,1.27,2.5,3.85,3.45,6.56,2.13,4.28-2.07,8.54-3,13.13-3.44,24.19-2.31,41.41-13.58,52.76-35.06,5.9-11.18,10.26-22.6,13.67-34.81-1.04-2.22-3.87-3.24-5.37-4.52ZM1031.21,582.66c-4.46-6.87-4.31-21.17-1.55-29.17.61,1.42.72,2.86.64,4.42-.38,7.43.27,14.46,1.64,21.99.2,1.07,0,2.12-.73,2.76ZM1037.99,577.69c1.78-.87,3.17,13.9,3.15,15.82-4.01-4.37-3.94-10.23-3.15-15.82ZM1067.4,605.73c-.36.24-1.91.36-1.93-.02-.02-.39.29-1.34.68-1.68,3.7-3.28,7.58-6.79,11.16-10.36.72-.72,1.46-1.24,2.6-1.39-3.02,5.53-7.17,9.86-12.52,13.46ZM1107.25,580.74c-4.4,8.15-12.18,15.5-21.23,18.62.34-1.85,1.64-2.33,2.83-3.43,6.42-4.27,12.18-10.14,17.02-15.95.25-.29,1.05-.6,1.32-.66.26-.06.23,1.1.05,1.43ZM1083.35,585.21l-22.9,8.19c-1.31.47-2.86-.33-3.36-1.17l-3.67-6.2c-8.67-14.63-24.01-36.25-15.92-53.38,2.77-5.49,7.41-10.09,13.53-11.5,12.3-2.84,23.64,4.98,26.55,17.21,9.17-7.12,21.28-6.86,29.3,1.13,4.3,4.28,6.1,10.39,6.01,16.38-1.23,15.84-16.08,24.54-29.52,29.35ZM1117.09,563.63c.63-4.8,2.61-8.95,4.1-13.36,1.45-4.29,2.91-8.28,4.96-12.38,3.79,1.75-5.98,24.06-9.05,25.74Z"/>
  <path class="st2" d="M1141.06,525.32l-4.17,2.37c-.16.06-.27.13-.73.32l-2.35,1.05.66.5,6.09,4.73c4.58.15,8.44-8.95,8.14-12.87-2.41,2.13-4.78,3.18-7.63,3.91Z"/>
  <path class="st2" d="M1089.47,463.93l-14.48-2.75c-1.01,2.01-1.18,4.17-.24,6.3,2.04,4.61,11.42-2.13,14.72-3.55Z"/>
  <path class="st2" d="M1039.42,474.36c-1.06-1.83-1.63-3.51-2.26-5.98-4.63,3.06-9.93,8.81-11.09,14.45,1.35.51,3.85,1.01,4.81.23,2.75-3.52,5.3-6.31,8.54-8.7Z"/>
  <path class="st2" d="M1124.57,446.19c-1.03-2.87-2.37-5.12-4.36-7.16-9.48,2.85-15.68,11.54-18.65,20.05,1.32.57,2.44.9,3.75.92,3.7-8.09,10.82-12.29,19.26-13.8Z"/>
  <path class="st2" d="M1097.63,479.21c.64,3.25,1.82,6.52,3.57,9.49,2.84,4.84,9.77-.78,11.59-3.63-3.37-2.82-4.3-6.52-5.84-10.36-3.15,2.3-5.7,4.09-9.32,4.5Z"/>
  <path class="st2" d="M1096.41,475.43c2.91.91,6.45-1.68,8.07-3.5l-2.61-4.11c-1.36-2.13-3.66-2.32-5.87-1.6l-4.15,1.36c.37,2.8,1.45,6.88,4.56,7.85Z"/>
  <path class="st2" d="M1057.64,463.62c2.01,1.24,4.73-.8,9.21-1.57,1.77-.3,2.91-.27,3.91-1.26-4.39-.45-9.13-.18-13.39.44-.31.67-.24,2.07.27,2.39Z"/>
  <path class="st2" d="M1120,481.24c1-.94,1.96-2.33,1.91-3.67l-7.25-4.76c-1-.65-2.54-1.09-3.9-1.6l-.72,2.51c.82,2.74,2.31,5.48,4.19,7.68,1.61,1.89,3.92,1.58,5.78-.17Z"/>
  <path class="st2" d="M1077.57,538.36c-2.91-12.23-14.24-20.05-26.55-17.21-6.12,1.41-10.76,6.01-13.53,11.5-8.09,17.14,7.26,38.75,15.92,53.38l3.67,6.2c.5.84,2.05,1.64,3.36,1.17l22.9-8.19c13.44-4.81,28.29-13.51,29.52-29.35.09-5.99-1.71-12.1-6.01-16.38-8.02-7.98-20.13-8.24-29.3-1.13ZM1092.27,576.71c-6.34,3.28-12.89,5.49-19.59,7.96l-12.62,4.65-10.28-17.36c-6.97-11.77-15.84-28.82-6.06-41.29,5.06-6.45,13.39-7.8,20.45-3.94,9.94,5.44,9.07,14.27,11.22,16.61,2.07,2.26,5.76-5.79,16.26-5.88,9.8-.08,17.47,7.72,17.11,17.58-.36,9.81-8.41,17.49-16.48,21.67Z"/>
  <path class="st2" d="M1034.66,393.51c1.07-1.65.05-3.99-1.05-4.8-1.33-.99-3.65-1.36-4.85-.35-1.85,1.55-1.09,4.22.2,5.56,1.45,1.51,4.27,1.79,5.7-.41Z"/>
  <g>
    <path class="st0" d="M877.97,337.52c-2.73-3.68-5.63-7.1-9.32-9.12-.43-.24-1.49-.37-1.62-.02-.13.35.1,1.36.38,1.68,2.79,3.15,6.04,6.35,8.45,9.83,4.71,6.8,5.32,14.32,7.42,17.05,1.89,2.46,1.98-9.61-5.32-19.42Z"/>
    <path class="st0" d="M813,335.74c-1.84-.77-4-.84-6.07-.27.11.81,1.07,1.81,1.97,2.15,12.88,4.79,22,15.78,24.48,29.35,1.4,7.64.87,15.25-.89,22.75-.09.4.19,1.58.58,1.52,1.94-.29,3.2-3.82,3.58-5.62,4.21-19.91-4.54-41.91-23.64-49.88Z"/>
    <path class="st0" d="M756.94,327.3c-3.94-.82-8.57,18.21-7.24,22.06,1.34-.11,1.88-1.57,2.15-2.92,1.28-6.27,3.02-11.68,5.54-17.33.21-.47.02-1.71-.45-1.81Z"/>
    <path class="st0" d="M879.73,312.92c-2-2.43-13.4-14.45-15.47-12.61-.3.27-.34,1.8.09,2.16,17.48,14.37,30.49,35.69,30.29,59.24l-.11,12.6c0,.41.96,1.53,1.27,1.37.31-.17,1.03-.76,1.11-1.22,2.39-15.18.52-31.04-6.31-45.02-2.98-6.09-6.63-11.36-10.87-16.51Z"/>
    <path class="st2" d="M880.32,297.88c-32.62-29.48-82.71-32.05-118.97-7.65-19.42,13.07-31.56,34.5-32.29,57.9-.28,9.12,1.23,17.58,4.94,25.59,6.79,14.66,20.27,23.97,36.4,24.82,2.53.13,4.94.11,7.49-.74-2.79-2.82-5.54-4.89-7.83-8.08-10.01-13.98-5.45-34.29,10.1-42.08,12.5-6.26,27.8-1.95,35.86,9.12,9.42,12.95,8.23,27.92,1.63,41.73-2.84,5.95-5.92,11.39-9.81,16.75l-12.98,17.9c-20.73,28.6-31.58,59.52-26.45,95.32,6.43,44.9,41.85,83.72,88.29,89l-8.38-11.95c-11.73-16.72-17.24-36.49-19.24-56.9-1.9-19.28.35-38.43,6.6-56.8,4.38-12.85,11.02-24.49,19.4-35.05,4.94-6.23,10.5-11.23,16.37-16.48,15.41-13.8,27.85-30.74,33.23-51.02,8.71-32.89,1.3-68.2-24.36-91.39ZM744.34,370.89c-3.77-.77-5.56-9.35-4.59-12.54.8-.25,1.92.55,2.14,1.23l3.02,9.26c.16.48-.14,2.14-.57,2.05ZM757.39,329.11c-2.52,5.66-4.26,11.06-5.54,17.33-.28,1.35-.81,2.81-2.15,2.92-1.34-3.86,3.29-22.88,7.24-22.06.48.1.66,1.34.45,1.81ZM764.33,303.44c-3.38,3.03-6.97,6.13-9.99,9.56-5.65,6.42-9.39,13.84-11.11,22.4l-1.99,9.9c-.08.41-.82,1.17-1.21,1.31-.39.14-1.16-1.12-1.15-1.58.3-17.5,9.46-33.83,24.02-43.59l1.82.29c.38.06-.09,1.45-.38,1.71ZM785.43,470.55c4.2-10.18,9.22-19.78,15.76-28.64,1.57-2.13,3.39-4.09,5.68-5.45,1.02.36.85,2.18.2,3.08-5.7,7.81-10.79,15.68-15.12,24.33l-8.18,17.26c-.95-3.82.67-7.01,1.65-10.57ZM795.44,528.02c-1.4,3.95-9.86-21.25,2.5-52.62.51-1.3,1.49-2.38,3.2-2.11l-3.54,12.74c-6.23,22.39-.93,38.53-2.16,41.99ZM816.73,589.36c-.31-.02-1.26-.1-1.94-.56-25.3-16.93-39.24-49.6-37.25-80.45.15-2.36.37-4.5,1.61-6.67.74,2.14.84,3.69.81,5.65-.18,12.69,1.32,25.18,5.68,37.12,4.97,13.61,12.44,25.26,23.14,35.34,2.97,2.8,6.48,5.39,8.68,8.29-.11.47-.42,1.29-.74,1.27ZM836.64,385.62c-.38,1.8-1.64,5.34-3.58,5.62-.39.06-.67-1.12-.58-1.52,1.76-7.5,2.29-15.11.89-22.75-2.48-13.57-11.6-24.56-24.48-29.35-.89-.33-1.86-1.34-1.97-2.15,2.08-.57,4.24-.5,6.07.27,19.1,7.97,27.85,29.97,23.64,49.88ZM883.29,356.94c-2.1-2.73-2.71-10.24-7.42-17.05-2.41-3.48-5.66-6.68-8.45-9.83-.29-.32-.51-1.33-.38-1.68.13-.35,1.19-.22,1.62.02,3.69,2.01,6.59,5.44,9.32,9.12,7.3,9.81,7.21,21.88,5.32,19.42ZM889.25,403.05c-1.16,2.52-2.67,5.29-5.04,6.03-.37.12-.72-1.17-.51-1.64l4.89-10.57c1.15-2.48,1.89-4.57,3.49-7.08,2.98,2.01-1.59,10.57-2.83,13.26ZM896.91,374.46c-.07.46-.8,1.06-1.11,1.22-.31.17-1.27-.95-1.27-1.37l.11-12.6c.2-23.55-12.81-44.87-30.29-59.24-.43-.36-.39-1.89-.09-2.16,2.07-1.84,13.47,10.17,15.47,12.61,4.23,5.15,7.89,10.42,10.87,16.51,6.83,13.98,8.7,29.84,6.31,45.02Z"/>
  </g>
  <path class="st1" d="M1796.84,468.97c2.66-5.44,7.71-9.12,13.73-9.95,3.81-.52,6.3-3.56,5.82-7.63-.52-4.43-3.23-8.58-6.66-11.51-2.17-1.85-4.96-1.97-7.62-1.06-11.36,3.9-17.39,13.32-22.06,23.87-22.37-5.63-51.16-6.65-68.14,10.89,1.17-4.62,2.62-8.83,4.24-13.23.79-2.13,2.74-2.99,4.96-3.13,9.37-.59,18.25-2.16,27.04-5.27,7.54-2.67,17.56-9.39,22.28-15.83,4.43-6.04,5.22-13.23,1.82-19.97l-9.07-17.98c-4.01-7.94-10.75-19.17-16.72-25.74-8.39-9.23-18.99-15.73-30.5-20.47-1.35-.55-2.14-1.84-2.04-3.19.87-11.25-4.64-24.52-11.51-32.98-1.83-2.25-13.59-16.25-15.31-8.74-1.03,4.48-2.24,8.53-4.17,12.62l-2.71,5.73c-5.09-6.94-11.94-12.79-19.45-16.79-1.33-.71-3.26.32-3.87,1.52-9.05,17.81-13.16,33.65-8.17,53.57-.69,1.47-1.45,3.02-2.33,4.36-9.06,13.94-9.91,24.89-15.65,34.58-4.89,8.24-12.71,14.01-21.32,18.01-6.34,2.95-12.67,4.91-19.18,7.38-2.48.95-4.83,1.87-7.25,2.47,16.96-23.93,22.91-53.5,17.41-82.11-2.11-10.96-5.88-21.28-11.72-30.75-7.19-11.64-16.15-21.35-27.49-29.02-21.58-14.6-47.58-20.52-73.51-17.26-24,3.02-46.91,13.89-62.9,32.25-19,21.83-25.98,56.08-12.49,82.24,11.68,22.63,38.23,33.01,61.93,24.13,3.5-1.31,10.58-5.88,7.99-8.77-.44-.49-1.72-.52-2.81-.62-7.12-.61-14.31-4.75-17.69-11.22-3.78-7.22-3.74-16.17,1.15-22.65,6.77-8.97,19.96-9.43,28.21-2.03,6.94,6.23,9.3,15.71,7.42,24.72-2.29,11-9.86,22.7-16.49,31.7-5.41,7.34-10.7,14.21-15.67,21.92-9.21,14.28-16.25,29.47-19.91,46.2-5,22.82-3.82,46.51,3.77,68.57,6.45,18.74,17.71,35.07,32.41,48.16,18.22,16.23,40.95,25.58,65.31,26.87,1.59.08,3.35.36,4.46,1.19,3.2,2.39,6.19,4.4,9.59,6.35,6.23,3.57,2.92,8.65,9.79,11.39,4.01,1.6,8.05,2.41,12.56,2.45l98.07.7c3.62.03,6.75-.09,10.15-.5,3.92-.47,6.44-3.95,6.37-7.77l12.54-.19,8.56-.16c3.11-.06,5.05-1.97,5.03-5-.05-6.6-3.29-12.25-8.66-16.13-10.13-7.31-24.36-6.52-36.4-6.1,9.79-11.33,16.31-21.18,20.28-35.22,4.88,10.14,11.51,18.78,19.58,26.37,3.05,2.87,5.5,5.74,7.34,9.58,2.54,5.29,8.47,7.92,14,5.47,4.53-2,9-2.94,13.99-3.46,22.01-2.26,39.49-12.06,51.91-30.45,8.72-12.92,14.34-28.73,18.99-43.64,10.34-1.46,15.04-13.47,15.26-22.62.6-25.83-22.94-45.67-44.53-56.16Z"/>
</svg>