%TF.GenerationSoftware,KiCad,Pcbnew,9.0.7*%
%TF.CreationDate,2026-05-17T21:17:37+02:00*%
%TF.ProjectId,hochzeits-pcb,686f6368-7a65-4697-9473-2d7063622e6b,rev?*%
%TF.SameCoordinates,Original*%
%TF.FileFunction,Soldermask,Bot*%
%TF.FilePolarity,Negative*%
%FSLAX46Y46*%
G04 Gerber Fmt 4.6, Leading zero omitted, Abs format (unit mm)*
G04 Created by KiCad (PCBNEW 9.0.7) date 2026-05-17 21:17:37*
%MOMM*%
%LPD*%
G01*
G04 APERTURE LIST*
%ADD10C,0.000000*%
G04 APERTURE END LIST*
D10*
G36*
X136295749Y-112147879D02*
G01*
X136641314Y-112167037D01*
X136986131Y-112200756D01*
X137329750Y-112248702D01*
X137671720Y-112310539D01*
X138011592Y-112385934D01*
X138348917Y-112474550D01*
X138683242Y-112576053D01*
X139014119Y-112690109D01*
X139341098Y-112816383D01*
X139663728Y-112954540D01*
X139981559Y-113104245D01*
X140601026Y-113436961D01*
X141195897Y-113811854D01*
X141762572Y-114226244D01*
X142297450Y-114677453D01*
X142796932Y-115162805D01*
X143032273Y-115417447D01*
X143257415Y-115679620D01*
X143471908Y-115948990D01*
X143675301Y-116225221D01*
X144008852Y-116719132D01*
X144319521Y-117225008D01*
X144606688Y-117742038D01*
X144869731Y-118269413D01*
X145108032Y-118806323D01*
X145320969Y-119351957D01*
X145507924Y-119905505D01*
X145668276Y-120466158D01*
X145801404Y-121033105D01*
X145906690Y-121605536D01*
X145983512Y-122182641D01*
X146031250Y-122763610D01*
X146049285Y-123347633D01*
X146036997Y-123933900D01*
X145993764Y-124521601D01*
X145918968Y-125109926D01*
X145891121Y-125119868D01*
X145863183Y-125127418D01*
X145835219Y-125132648D01*
X145807293Y-125135631D01*
X145779470Y-125136440D01*
X145751813Y-125135147D01*
X145724389Y-125131825D01*
X145697260Y-125126547D01*
X145670492Y-125119385D01*
X145644148Y-125110413D01*
X145618294Y-125099702D01*
X145592994Y-125087325D01*
X145568312Y-125073356D01*
X145544312Y-125057867D01*
X145521059Y-125040929D01*
X145498618Y-125022617D01*
X145477053Y-125003003D01*
X145456428Y-124982159D01*
X145436808Y-124960158D01*
X145418257Y-124937073D01*
X145400840Y-124912976D01*
X145384620Y-124887940D01*
X145369664Y-124862038D01*
X145356034Y-124835343D01*
X145343795Y-124807927D01*
X145333013Y-124779862D01*
X145323750Y-124751222D01*
X145316073Y-124722079D01*
X145310044Y-124692505D01*
X145305729Y-124662574D01*
X145303192Y-124632359D01*
X145302498Y-124601930D01*
X145276973Y-123592939D01*
X145239141Y-123092208D01*
X145184622Y-122594977D01*
X145113433Y-122101991D01*
X145025593Y-121613991D01*
X144921121Y-121131721D01*
X144800034Y-120655925D01*
X144662351Y-120187345D01*
X144508091Y-119726725D01*
X144337272Y-119274808D01*
X144149912Y-118832337D01*
X143946030Y-118400056D01*
X143725644Y-117978706D01*
X143488773Y-117569033D01*
X143235435Y-117171778D01*
X142965648Y-116787685D01*
X142679431Y-116417497D01*
X142376802Y-116061957D01*
X142057780Y-115721809D01*
X141722383Y-115397796D01*
X141370629Y-115090660D01*
X141002538Y-114801146D01*
X140618126Y-114529995D01*
X140217413Y-114277952D01*
X139800418Y-114045760D01*
X139367158Y-113834161D01*
X138917652Y-113643900D01*
X138451918Y-113475718D01*
X137969975Y-113330360D01*
X137471841Y-113208568D01*
X136957535Y-113111086D01*
X136957527Y-113111070D01*
X136682797Y-113072714D01*
X136405846Y-113044834D01*
X136128980Y-113025752D01*
X135854506Y-113013790D01*
X135321955Y-113004514D01*
X134826643Y-113003578D01*
X134387017Y-112997558D01*
X134193851Y-112988445D01*
X134021525Y-112973027D01*
X133872345Y-112949624D01*
X133807155Y-112934405D01*
X133748617Y-112916559D01*
X133697017Y-112895879D01*
X133652646Y-112872154D01*
X133615790Y-112845174D01*
X133586739Y-112814730D01*
X133581724Y-112806323D01*
X133578529Y-112797024D01*
X133577066Y-112786905D01*
X133577246Y-112776033D01*
X133578982Y-112764479D01*
X133582187Y-112752313D01*
X133586773Y-112739605D01*
X133592651Y-112726423D01*
X133599735Y-112712839D01*
X133607937Y-112698921D01*
X133627342Y-112670364D01*
X133650165Y-112641312D01*
X133675706Y-112612322D01*
X133703262Y-112583951D01*
X133732131Y-112556759D01*
X133761613Y-112531304D01*
X133791006Y-112508142D01*
X133819608Y-112487833D01*
X133846718Y-112470935D01*
X133871633Y-112458005D01*
X133883049Y-112453203D01*
X133893654Y-112449602D01*
X134231853Y-112357459D01*
X134572455Y-112282221D01*
X134915010Y-112223552D01*
X135259066Y-112181118D01*
X135604175Y-112154585D01*
X135949886Y-112143616D01*
X136295749Y-112147879D01*
G37*
G36*
X131743203Y-90160436D02*
G01*
X131820473Y-90167444D01*
X131891998Y-90180670D01*
X131957133Y-90200395D01*
X132015230Y-90226896D01*
X132065644Y-90260451D01*
X132107727Y-90301340D01*
X132107423Y-90335366D01*
X132104587Y-90368967D01*
X132099306Y-90402122D01*
X132091668Y-90434810D01*
X132081761Y-90467010D01*
X132069673Y-90498700D01*
X132055491Y-90529860D01*
X132039303Y-90560467D01*
X132021196Y-90590500D01*
X132001258Y-90619938D01*
X131979578Y-90648760D01*
X131956242Y-90676945D01*
X131904954Y-90731316D01*
X131848098Y-90782881D01*
X131786374Y-90831469D01*
X131720483Y-90876910D01*
X131651128Y-90919034D01*
X131579009Y-90957670D01*
X131504829Y-90992647D01*
X131429288Y-91023796D01*
X131353089Y-91050944D01*
X131276932Y-91073923D01*
X130099533Y-91396715D01*
X130094366Y-91397597D01*
X130088336Y-91397783D01*
X130081508Y-91397310D01*
X130073948Y-91396209D01*
X130056902Y-91392262D01*
X130037728Y-91386215D01*
X130016957Y-91378338D01*
X129995121Y-91368904D01*
X129972749Y-91358183D01*
X129950374Y-91346446D01*
X129928525Y-91333965D01*
X129907735Y-91321011D01*
X129888533Y-91307856D01*
X129871452Y-91294771D01*
X129857022Y-91282026D01*
X129850966Y-91275867D01*
X129845773Y-91269894D01*
X129841508Y-91264143D01*
X129838237Y-91258646D01*
X129836028Y-91253438D01*
X129834946Y-91248552D01*
X129834953Y-91248545D01*
X129834746Y-91191633D01*
X129845596Y-91133699D01*
X129866859Y-91075019D01*
X129897887Y-91015872D01*
X129938035Y-90956538D01*
X129986657Y-90897294D01*
X130043105Y-90838420D01*
X130106734Y-90780193D01*
X130252949Y-90666796D01*
X130420131Y-90559333D01*
X130603111Y-90460033D01*
X130796718Y-90371123D01*
X130995782Y-90294833D01*
X131195132Y-90233390D01*
X131389599Y-90189024D01*
X131574013Y-90163963D01*
X131660834Y-90159369D01*
X131743203Y-90160436D01*
G37*
G36*
X162162909Y-74951105D02*
G01*
X162372910Y-74974975D01*
X162578121Y-75013383D01*
X162778483Y-75065732D01*
X162973938Y-75131424D01*
X163164429Y-75209861D01*
X163349897Y-75300447D01*
X163530283Y-75402584D01*
X163705530Y-75515675D01*
X163875580Y-75639122D01*
X164040374Y-75772328D01*
X164199855Y-75914696D01*
X164353964Y-76065629D01*
X164502643Y-76224528D01*
X164783478Y-76563839D01*
X165041896Y-76927850D01*
X165277432Y-77311782D01*
X165489620Y-77710856D01*
X165677996Y-78120295D01*
X165842095Y-78535318D01*
X166011757Y-78970928D01*
X166117609Y-79264341D01*
X166167814Y-79419220D01*
X166213167Y-79575459D01*
X166251389Y-79729993D01*
X166280201Y-79879756D01*
X166297323Y-80021682D01*
X166300789Y-80088749D01*
X166300478Y-80152706D01*
X166296105Y-80213172D01*
X166287385Y-80269762D01*
X166274034Y-80322094D01*
X166255767Y-80369784D01*
X166232299Y-80412449D01*
X166203344Y-80449707D01*
X166168619Y-80481172D01*
X166127838Y-80506464D01*
X166077569Y-80528598D01*
X166026443Y-80545156D01*
X165974409Y-80556528D01*
X165921416Y-80563108D01*
X165867414Y-80565287D01*
X165812351Y-80563457D01*
X165698840Y-80549337D01*
X165580477Y-80523885D01*
X165456854Y-80490236D01*
X165192204Y-80410887D01*
X165050361Y-80371458D01*
X164901632Y-80336374D01*
X164745608Y-80308770D01*
X164581884Y-80291782D01*
X164497006Y-80288249D01*
X164410051Y-80288545D01*
X164320967Y-80293063D01*
X164229703Y-80302194D01*
X164136209Y-80316331D01*
X164040434Y-80335865D01*
X163942326Y-80361189D01*
X163841835Y-80392694D01*
X163668097Y-80450492D01*
X163494224Y-80504465D01*
X163320327Y-80554073D01*
X163146519Y-80598779D01*
X162972913Y-80638044D01*
X162799621Y-80671328D01*
X162626755Y-80698094D01*
X162454428Y-80717802D01*
X162282752Y-80729913D01*
X162111839Y-80733890D01*
X161941802Y-80729193D01*
X161772753Y-80715283D01*
X161604805Y-80691621D01*
X161438070Y-80657670D01*
X161272660Y-80612889D01*
X161108688Y-80556742D01*
X160909003Y-80472416D01*
X160718692Y-80375630D01*
X160537707Y-80267008D01*
X160365996Y-80147173D01*
X160203510Y-80016750D01*
X160050197Y-79876362D01*
X159906007Y-79726633D01*
X159770891Y-79568189D01*
X159644798Y-79401651D01*
X159527677Y-79227645D01*
X159419478Y-79046795D01*
X159320151Y-78859724D01*
X159229645Y-78667057D01*
X159147910Y-78469417D01*
X159074896Y-78267429D01*
X159010552Y-78061716D01*
X159010552Y-78061708D01*
X158964834Y-77909016D01*
X158920861Y-77771769D01*
X158878500Y-77649011D01*
X158837620Y-77539787D01*
X158798088Y-77443139D01*
X158759774Y-77358112D01*
X158748068Y-77334731D01*
X161449053Y-77334731D01*
X161451237Y-77385872D01*
X161455957Y-77436970D01*
X161463110Y-77487904D01*
X161472596Y-77538557D01*
X161484315Y-77588810D01*
X161498165Y-77638544D01*
X161531858Y-77735981D01*
X161572868Y-77829917D01*
X161620389Y-77919405D01*
X161673616Y-78003493D01*
X161731742Y-78081233D01*
X161793961Y-78151674D01*
X161830968Y-78188166D01*
X161869965Y-78222691D01*
X161910818Y-78255188D01*
X161953395Y-78285596D01*
X161997560Y-78313855D01*
X162043181Y-78339904D01*
X162090123Y-78363683D01*
X162138253Y-78385132D01*
X162187437Y-78404189D01*
X162237542Y-78420794D01*
X162288434Y-78434886D01*
X162339978Y-78446405D01*
X162392042Y-78455291D01*
X162444492Y-78461483D01*
X162497193Y-78464920D01*
X162550013Y-78465542D01*
X162602817Y-78463288D01*
X162655472Y-78458097D01*
X162707844Y-78449910D01*
X162759799Y-78438665D01*
X162811204Y-78424302D01*
X162861925Y-78406760D01*
X162911828Y-78385980D01*
X162960780Y-78361899D01*
X163008646Y-78334459D01*
X163055293Y-78303597D01*
X163100588Y-78269254D01*
X163144397Y-78231369D01*
X163186585Y-78189882D01*
X163227020Y-78144732D01*
X163265567Y-78095858D01*
X163302094Y-78043199D01*
X163327031Y-78001755D01*
X163348825Y-77959348D01*
X163367574Y-77916087D01*
X163383375Y-77872078D01*
X163396326Y-77827430D01*
X163406523Y-77782251D01*
X163414065Y-77736646D01*
X163419048Y-77690725D01*
X163421570Y-77644595D01*
X163421728Y-77598363D01*
X163419620Y-77552137D01*
X163415343Y-77506024D01*
X163408994Y-77460132D01*
X163400671Y-77414568D01*
X163390472Y-77369441D01*
X163378492Y-77324857D01*
X163364831Y-77280924D01*
X163349585Y-77237750D01*
X163314729Y-77154108D01*
X163274703Y-77074791D01*
X163230285Y-77000660D01*
X163182256Y-76932575D01*
X163131393Y-76871397D01*
X163105143Y-76843667D01*
X163078476Y-76817986D01*
X163051491Y-76794462D01*
X163024284Y-76773203D01*
X162955369Y-76726059D01*
X162881133Y-76683055D01*
X162802393Y-76644485D01*
X162719968Y-76610644D01*
X162634675Y-76581826D01*
X162547332Y-76558326D01*
X162458757Y-76540438D01*
X162369767Y-76528457D01*
X162281181Y-76522677D01*
X162193815Y-76523393D01*
X162108488Y-76530899D01*
X162066844Y-76537291D01*
X162026017Y-76545491D01*
X161986108Y-76555535D01*
X161947220Y-76567462D01*
X161909455Y-76581307D01*
X161872915Y-76597107D01*
X161837702Y-76614899D01*
X161803919Y-76634720D01*
X161771668Y-76656607D01*
X161741051Y-76680597D01*
X161741043Y-76680597D01*
X161697162Y-76719892D01*
X161657225Y-76760805D01*
X161621134Y-76803216D01*
X161588786Y-76847008D01*
X161560081Y-76892062D01*
X161534919Y-76938258D01*
X161513198Y-76985479D01*
X161494818Y-77033605D01*
X161479678Y-77082518D01*
X161467678Y-77132099D01*
X161458716Y-77182230D01*
X161452691Y-77232791D01*
X161449504Y-77283664D01*
X161449053Y-77334731D01*
X158748068Y-77334731D01*
X158722544Y-77283748D01*
X158686268Y-77219093D01*
X158650814Y-77163189D01*
X158616049Y-77115080D01*
X158581843Y-77073810D01*
X158548063Y-77038422D01*
X158514578Y-77007960D01*
X158481255Y-76981468D01*
X158414571Y-76936568D01*
X158277358Y-76852325D01*
X158204722Y-76797682D01*
X158166934Y-76763882D01*
X158127992Y-76724489D01*
X158087763Y-76678545D01*
X158046116Y-76625096D01*
X158002918Y-76563183D01*
X157958038Y-76491852D01*
X157911345Y-76410145D01*
X157862706Y-76317107D01*
X157811989Y-76211781D01*
X157759064Y-76093210D01*
X158147837Y-76007116D01*
X158518751Y-75918417D01*
X158875278Y-75825503D01*
X159220890Y-75726760D01*
X159559061Y-75620575D01*
X159893263Y-75505337D01*
X160226969Y-75379433D01*
X160563652Y-75241251D01*
X160805559Y-75146630D01*
X161043082Y-75070729D01*
X161276163Y-75012950D01*
X161504745Y-74972695D01*
X161728768Y-74949368D01*
X161948176Y-74942370D01*
X162162909Y-74951105D01*
G37*
G36*
X148968014Y-60559416D02*
G01*
X149080107Y-60588187D01*
X149193046Y-60633918D01*
X149306583Y-60695574D01*
X149420466Y-60772121D01*
X149534447Y-60862526D01*
X149648274Y-60965754D01*
X149874469Y-61206548D01*
X150097052Y-61486230D01*
X150314023Y-61796530D01*
X150523382Y-62129178D01*
X150723130Y-62475902D01*
X150911265Y-62828432D01*
X151085789Y-63178497D01*
X151244702Y-63517825D01*
X151507694Y-64131192D01*
X151684242Y-64602365D01*
X151805473Y-64996709D01*
X151921106Y-65444957D01*
X152028151Y-65938815D01*
X152123615Y-66469989D01*
X152204506Y-67030185D01*
X152267833Y-67611108D01*
X152310602Y-68204465D01*
X152329823Y-68801961D01*
X152322502Y-69395302D01*
X152285649Y-69976195D01*
X152216270Y-70536345D01*
X152111374Y-71067458D01*
X152044673Y-71319534D01*
X151967970Y-71561240D01*
X151880891Y-71791540D01*
X151783063Y-72009397D01*
X151674112Y-72213774D01*
X151553664Y-72403634D01*
X151421344Y-72577941D01*
X151276779Y-72735658D01*
X151260459Y-72741433D01*
X151243299Y-72744928D01*
X151225372Y-72746234D01*
X151206752Y-72745445D01*
X151187515Y-72742653D01*
X151167734Y-72737948D01*
X151147482Y-72731424D01*
X151126835Y-72723173D01*
X151105866Y-72713285D01*
X151084650Y-72701855D01*
X151041771Y-72674731D01*
X150998792Y-72642538D01*
X150956305Y-72606011D01*
X150914903Y-72565888D01*
X150875179Y-72522905D01*
X150837726Y-72477797D01*
X150803138Y-72431302D01*
X150772006Y-72384155D01*
X150744925Y-72337094D01*
X150722487Y-72290854D01*
X150705284Y-72246172D01*
X150705277Y-72243524D01*
X150487448Y-71617474D01*
X150255979Y-71012881D01*
X150009875Y-70423171D01*
X149748144Y-69841771D01*
X149469795Y-69262107D01*
X149173834Y-68677606D01*
X148859269Y-68081694D01*
X148525108Y-67467798D01*
X148712346Y-67556262D01*
X148889677Y-67656469D01*
X149057985Y-67767698D01*
X149218154Y-67889229D01*
X149371068Y-68020341D01*
X149517610Y-68160313D01*
X149658663Y-68308424D01*
X149795113Y-68463953D01*
X149927841Y-68626179D01*
X150057733Y-68794382D01*
X150312539Y-69145833D01*
X150826988Y-69888735D01*
X150979258Y-69245977D01*
X151037183Y-68932899D01*
X151083340Y-68625009D01*
X151118008Y-68322044D01*
X151141465Y-68023745D01*
X151155859Y-67440100D01*
X151128752Y-66871988D01*
X151062372Y-66317326D01*
X150958947Y-65774027D01*
X150820707Y-65240007D01*
X150649880Y-64713180D01*
X150448694Y-64191462D01*
X150219378Y-63672766D01*
X149964160Y-63155008D01*
X149685269Y-62636103D01*
X149384934Y-62113966D01*
X148728844Y-61051653D01*
X148722995Y-61041440D01*
X148717367Y-61029731D01*
X148706850Y-61002287D01*
X148697450Y-60970246D01*
X148689322Y-60934535D01*
X148682619Y-60896080D01*
X148677498Y-60855807D01*
X148674113Y-60814643D01*
X148672620Y-60773514D01*
X148673173Y-60733345D01*
X148675927Y-60695065D01*
X148681038Y-60659597D01*
X148684526Y-60643208D01*
X148688661Y-60627870D01*
X148693463Y-60613699D01*
X148698950Y-60600809D01*
X148705143Y-60589318D01*
X148712061Y-60579341D01*
X148719723Y-60570993D01*
X148728149Y-60564391D01*
X148737357Y-60559650D01*
X148747368Y-60556887D01*
X148857017Y-60548638D01*
X148968014Y-60559416D01*
G37*
G36*
X107000000Y-44000000D02*
G01*
X108270688Y-44092257D01*
X109533044Y-44240533D01*
X110785338Y-44444636D01*
X112025842Y-44704371D01*
X113252828Y-45019545D01*
X114464567Y-45389963D01*
X115659329Y-45815432D01*
X116835388Y-46295759D01*
X117991014Y-46830748D01*
X119124478Y-47420207D01*
X120234053Y-48063942D01*
X121318009Y-48761759D01*
X121873239Y-49148580D01*
X122413946Y-49548009D01*
X122940368Y-49960003D01*
X123452740Y-50384520D01*
X123951300Y-50821516D01*
X124436282Y-51270950D01*
X124907924Y-51732778D01*
X125366463Y-52206959D01*
X125812134Y-52693448D01*
X126245174Y-53192205D01*
X126665819Y-53703185D01*
X127074306Y-54226347D01*
X127470871Y-54761648D01*
X127855751Y-55309046D01*
X128229182Y-55868497D01*
X128591400Y-56439958D01*
X128875194Y-56912382D01*
X129146248Y-57389995D01*
X129404720Y-57872716D01*
X129650771Y-58360463D01*
X129884559Y-58853156D01*
X130106243Y-59350713D01*
X130315982Y-59853053D01*
X130513934Y-60360094D01*
X130700259Y-60871755D01*
X130875116Y-61387954D01*
X131038664Y-61908610D01*
X131191061Y-62433642D01*
X131332466Y-62962968D01*
X131463039Y-63496507D01*
X131692322Y-64575899D01*
X131929700Y-65997745D01*
X132096245Y-67422936D01*
X132192128Y-68848925D01*
X132217519Y-70273166D01*
X132172589Y-71693112D01*
X132057508Y-73106218D01*
X131872447Y-74509937D01*
X131617576Y-75901722D01*
X131293066Y-77279027D01*
X130899087Y-78639306D01*
X130435810Y-79980013D01*
X129903405Y-81298601D01*
X129302044Y-82592524D01*
X128631896Y-83859235D01*
X127893132Y-85096188D01*
X127085922Y-86300836D01*
X127325160Y-86236617D01*
X127563126Y-86165608D01*
X127800534Y-86088709D01*
X128038096Y-86006819D01*
X128516535Y-85831658D01*
X129004150Y-85647318D01*
X129408966Y-85496507D01*
X131756809Y-84644215D01*
X132338732Y-84425019D01*
X132919446Y-84196118D01*
X133499353Y-83953884D01*
X134078858Y-83694689D01*
X134503408Y-83490719D01*
X134922229Y-83275501D01*
X135334493Y-83048765D01*
X135739369Y-82810238D01*
X136136029Y-82559650D01*
X136523642Y-82296729D01*
X136901380Y-82021204D01*
X137268414Y-81732804D01*
X137623913Y-81431257D01*
X137967048Y-81116293D01*
X138296991Y-80787640D01*
X138612911Y-80445026D01*
X138913979Y-80088181D01*
X139199367Y-79716833D01*
X139468243Y-79330711D01*
X139719780Y-78929544D01*
X139990658Y-78445247D01*
X140236177Y-77952354D01*
X140461426Y-77450205D01*
X140671494Y-76938142D01*
X141066441Y-75881639D01*
X141461728Y-74777573D01*
X141898067Y-73620672D01*
X142144354Y-73020762D01*
X142416169Y-72405667D01*
X142718603Y-71774729D01*
X143056745Y-71127287D01*
X143435682Y-70462684D01*
X143860504Y-69780260D01*
X143946244Y-69644093D01*
X144029007Y-69504019D01*
X144109043Y-69360844D01*
X144186599Y-69215375D01*
X144261923Y-69068417D01*
X144335263Y-68920778D01*
X144476982Y-68626680D01*
X144257815Y-67651156D01*
X144093354Y-66698476D01*
X143981998Y-65766306D01*
X143922146Y-64852313D01*
X143912198Y-63954165D01*
X143950553Y-63069527D01*
X144035611Y-62196067D01*
X144165771Y-61331452D01*
X144339431Y-60473348D01*
X144554992Y-59619422D01*
X144810853Y-58767341D01*
X145105412Y-57914771D01*
X145437070Y-57059380D01*
X145804225Y-56198833D01*
X146205278Y-55330799D01*
X146638626Y-54452944D01*
X146654757Y-54423323D01*
X146672827Y-54394043D01*
X146714419Y-54336804D01*
X146762670Y-54281837D01*
X146816846Y-54229749D01*
X146876217Y-54181148D01*
X146940048Y-54136645D01*
X147007608Y-54096846D01*
X147078164Y-54062361D01*
X147150984Y-54033797D01*
X147225334Y-54011764D01*
X147262855Y-54003387D01*
X147300483Y-53996870D01*
X147338128Y-53992291D01*
X147375698Y-53989724D01*
X147413102Y-53989246D01*
X147450247Y-53990934D01*
X147487042Y-53994862D01*
X147523396Y-54001107D01*
X147559217Y-54009746D01*
X147594414Y-54020855D01*
X147628894Y-54034508D01*
X147662567Y-54050783D01*
X148033016Y-54254908D01*
X148398947Y-54470210D01*
X148759931Y-54696395D01*
X149115544Y-54933169D01*
X149465358Y-55180237D01*
X149808948Y-55437304D01*
X150145888Y-55704076D01*
X150475750Y-55980259D01*
X150798109Y-56265557D01*
X151112538Y-56559676D01*
X151418611Y-56862322D01*
X151715902Y-57173200D01*
X152003984Y-57492016D01*
X152282432Y-57818475D01*
X152550818Y-58152282D01*
X152808716Y-58493143D01*
X153525734Y-56977075D01*
X153708577Y-56572284D01*
X153875235Y-56166625D01*
X154027381Y-55758734D01*
X154166691Y-55347245D01*
X154294838Y-54930795D01*
X154413498Y-54508019D01*
X154524344Y-54077553D01*
X154629051Y-53638033D01*
X154679577Y-53468395D01*
X154744685Y-53330477D01*
X154823407Y-53222667D01*
X154914776Y-53143355D01*
X155017825Y-53090929D01*
X155131585Y-53063777D01*
X155255090Y-53060289D01*
X155387372Y-53078853D01*
X155527464Y-53117857D01*
X155674398Y-53175691D01*
X155827206Y-53250742D01*
X155984922Y-53341400D01*
X156311204Y-53563091D01*
X156645505Y-53827872D01*
X156980085Y-54122853D01*
X157307205Y-54435142D01*
X157619124Y-54751850D01*
X157908102Y-55060085D01*
X158386279Y-55599575D01*
X158679817Y-55950487D01*
X159016093Y-56384656D01*
X159341989Y-56846005D01*
X159655560Y-57331887D01*
X159954861Y-57839656D01*
X160237946Y-58366663D01*
X160502870Y-58910263D01*
X160747686Y-59467807D01*
X160970449Y-60036649D01*
X161169213Y-60614141D01*
X161342033Y-61197637D01*
X161486964Y-61784489D01*
X161602059Y-62372050D01*
X161685374Y-62957674D01*
X161734961Y-63538713D01*
X161748877Y-64112519D01*
X161725174Y-64676447D01*
X161723149Y-64709882D01*
X161722516Y-64743190D01*
X161723260Y-64776340D01*
X161725362Y-64809298D01*
X161728805Y-64842032D01*
X161733571Y-64874507D01*
X161739644Y-64906692D01*
X161747005Y-64938553D01*
X161755637Y-64970058D01*
X161765523Y-65001173D01*
X161776646Y-65031866D01*
X161788987Y-65062103D01*
X161802530Y-65091851D01*
X161817257Y-65121079D01*
X161833150Y-65149752D01*
X161850193Y-65177838D01*
X161868367Y-65205304D01*
X161887656Y-65232117D01*
X161908042Y-65258243D01*
X161929506Y-65283651D01*
X161952033Y-65308307D01*
X161975605Y-65332178D01*
X162000203Y-65355231D01*
X162025811Y-65377433D01*
X162052411Y-65398752D01*
X162079986Y-65419154D01*
X162108519Y-65438606D01*
X162137991Y-65457076D01*
X162168386Y-65474531D01*
X162199686Y-65490937D01*
X162231873Y-65506261D01*
X162264931Y-65520471D01*
X162833030Y-65761139D01*
X163394981Y-66013096D01*
X163950282Y-66276720D01*
X164498427Y-66552385D01*
X165038915Y-66840469D01*
X165571239Y-67141347D01*
X166094898Y-67455394D01*
X166609386Y-67782987D01*
X167114201Y-68124502D01*
X167608838Y-68480315D01*
X168092794Y-68850801D01*
X168565564Y-69236337D01*
X169026645Y-69637299D01*
X169475534Y-70054061D01*
X169911726Y-70487001D01*
X170334717Y-70936495D01*
X170633076Y-71276362D01*
X170934904Y-71642046D01*
X171238832Y-72030465D01*
X171543493Y-72438538D01*
X172149539Y-73301322D01*
X172742097Y-74205747D01*
X173310222Y-75127164D01*
X173842970Y-76040923D01*
X174329395Y-76922374D01*
X174758553Y-77746866D01*
X177158325Y-82504076D01*
X177313605Y-82839270D01*
X177443227Y-83176697D01*
X177547393Y-83515736D01*
X177626305Y-83855767D01*
X177680165Y-84196171D01*
X177709173Y-84536326D01*
X177713532Y-84875613D01*
X177693442Y-85213412D01*
X177649106Y-85549102D01*
X177580726Y-85882064D01*
X177488501Y-86211677D01*
X177372635Y-86537321D01*
X177233328Y-86858376D01*
X177070783Y-87174222D01*
X176885200Y-87484238D01*
X176676781Y-87787805D01*
X176426694Y-88107906D01*
X176146757Y-88428116D01*
X175839984Y-88746744D01*
X175509390Y-89062102D01*
X175157992Y-89372498D01*
X174788804Y-89676244D01*
X174404842Y-89971650D01*
X174009121Y-90257025D01*
X173604656Y-90530679D01*
X173194463Y-90790924D01*
X172781557Y-91036069D01*
X172368954Y-91264425D01*
X171959668Y-91474300D01*
X171556714Y-91664007D01*
X171163109Y-91831854D01*
X170781868Y-91976152D01*
X169907542Y-92265912D01*
X169029992Y-92519209D01*
X168147978Y-92737780D01*
X167260259Y-92923361D01*
X166365595Y-93077687D01*
X165462746Y-93202497D01*
X164550472Y-93299525D01*
X163627533Y-93370508D01*
X163518294Y-93379721D01*
X163411075Y-93393612D01*
X163306220Y-93412394D01*
X163204074Y-93436281D01*
X163104983Y-93465485D01*
X163056690Y-93482148D01*
X163009291Y-93500220D01*
X162962827Y-93519728D01*
X162917342Y-93540698D01*
X162872880Y-93563158D01*
X162829483Y-93587134D01*
X162787195Y-93612653D01*
X162746058Y-93639740D01*
X162706116Y-93668424D01*
X162667411Y-93698730D01*
X162629988Y-93730685D01*
X162593888Y-93764316D01*
X162559156Y-93799649D01*
X162525834Y-93836711D01*
X162493965Y-93875530D01*
X162463593Y-93916130D01*
X162434761Y-93958540D01*
X162407511Y-94002785D01*
X162381887Y-94048893D01*
X162357932Y-94096889D01*
X162335689Y-94146801D01*
X162315201Y-94198656D01*
X162002621Y-95063720D01*
X161853509Y-95494344D01*
X161709638Y-95926054D01*
X161571347Y-96360616D01*
X161438978Y-96799798D01*
X161312871Y-97245367D01*
X161193367Y-97699091D01*
X161221380Y-97670436D01*
X161249797Y-97641999D01*
X161307468Y-97585652D01*
X161423554Y-97474199D01*
X161503297Y-97397072D01*
X161583752Y-97320533D01*
X161664890Y-97244677D01*
X161746679Y-97169596D01*
X161829089Y-97095383D01*
X161912087Y-97022131D01*
X161995643Y-96949934D01*
X162079727Y-96878885D01*
X162371763Y-96644761D01*
X162670263Y-96421497D01*
X162974996Y-96208915D01*
X163285729Y-96006836D01*
X163602228Y-95815082D01*
X163924262Y-95633475D01*
X164251599Y-95461836D01*
X164584005Y-95299988D01*
X164921247Y-95147751D01*
X165263095Y-95004948D01*
X165609314Y-94871399D01*
X165959672Y-94746928D01*
X166313938Y-94631355D01*
X166671878Y-94524503D01*
X167033259Y-94426192D01*
X167397850Y-94336244D01*
X168120750Y-94184133D01*
X168853627Y-94062306D01*
X169594797Y-93969486D01*
X170342579Y-93904392D01*
X171095291Y-93865746D01*
X171851251Y-93852270D01*
X172608777Y-93862683D01*
X173366186Y-93895708D01*
X174121797Y-93950065D01*
X174873928Y-94024475D01*
X175620896Y-94117659D01*
X176361020Y-94228338D01*
X177092617Y-94355234D01*
X177814006Y-94497067D01*
X179219429Y-94820429D01*
X179455579Y-94301272D01*
X179701702Y-93790713D01*
X179959335Y-93290463D01*
X180230017Y-92802235D01*
X180515288Y-92327743D01*
X180816685Y-91868700D01*
X181135748Y-91426819D01*
X181474014Y-91003813D01*
X181833024Y-90601394D01*
X182214315Y-90221277D01*
X182619426Y-89865173D01*
X182831395Y-89696662D01*
X183049896Y-89534797D01*
X183275121Y-89379792D01*
X183507264Y-89231861D01*
X183746515Y-89091218D01*
X183993067Y-88958078D01*
X184247113Y-88832654D01*
X184508845Y-88715161D01*
X184778456Y-88605813D01*
X185056137Y-88504823D01*
X185188483Y-88462918D01*
X185321394Y-88427671D01*
X185454568Y-88399354D01*
X185587704Y-88378238D01*
X185720498Y-88364594D01*
X185852649Y-88358693D01*
X185983854Y-88360808D01*
X186113812Y-88371209D01*
X186242218Y-88390167D01*
X186368773Y-88417955D01*
X186493172Y-88454842D01*
X186615114Y-88501102D01*
X186734297Y-88557004D01*
X186850418Y-88622820D01*
X186907236Y-88659531D01*
X186963175Y-88698822D01*
X187018198Y-88740727D01*
X187072266Y-88785280D01*
X187240098Y-88934359D01*
X187402895Y-89090639D01*
X187560089Y-89253755D01*
X187711109Y-89423343D01*
X187855384Y-89599040D01*
X187992347Y-89780480D01*
X188121426Y-89967299D01*
X188242052Y-90159134D01*
X188353656Y-90355619D01*
X188455666Y-90556391D01*
X188547515Y-90761085D01*
X188628632Y-90969336D01*
X188698446Y-91180782D01*
X188756389Y-91395056D01*
X188801891Y-91611796D01*
X188834381Y-91830637D01*
X188843999Y-91930774D01*
X188849091Y-92029229D01*
X188849740Y-92125929D01*
X188846024Y-92220805D01*
X188838023Y-92313786D01*
X188825817Y-92404801D01*
X188809487Y-92493779D01*
X188789112Y-92580650D01*
X188764772Y-92665342D01*
X188736547Y-92747785D01*
X188704517Y-92827909D01*
X188668763Y-92905643D01*
X188629363Y-92980915D01*
X188586397Y-93053656D01*
X188539947Y-93123794D01*
X188490091Y-93191258D01*
X188436910Y-93255979D01*
X188380484Y-93317885D01*
X188320892Y-93376905D01*
X188258215Y-93432970D01*
X188192531Y-93486007D01*
X188123923Y-93535947D01*
X188052468Y-93582718D01*
X187978248Y-93626250D01*
X187901342Y-93666473D01*
X187821830Y-93703314D01*
X187739792Y-93736705D01*
X187655308Y-93766573D01*
X187568458Y-93792849D01*
X187479321Y-93815462D01*
X187387979Y-93834340D01*
X187294510Y-93849413D01*
X186998962Y-93899323D01*
X186709983Y-93966427D01*
X186428128Y-94050304D01*
X186153950Y-94150538D01*
X185888004Y-94266708D01*
X185630845Y-94398398D01*
X185383026Y-94545187D01*
X185145102Y-94706657D01*
X184917626Y-94882390D01*
X184701154Y-95071968D01*
X184496240Y-95274971D01*
X184303437Y-95490980D01*
X184123300Y-95719579D01*
X183956384Y-95960346D01*
X183803242Y-96212865D01*
X183664429Y-96476717D01*
X183665745Y-96475392D01*
X183667061Y-96474062D01*
X184741904Y-97023644D01*
X185818568Y-97629734D01*
X186886969Y-98291046D01*
X187937022Y-99006292D01*
X188958642Y-99774186D01*
X189941746Y-100593442D01*
X190876247Y-101462771D01*
X191752063Y-102380889D01*
X192559108Y-103346507D01*
X193287297Y-104358340D01*
X193618669Y-104881184D01*
X193926546Y-105415100D01*
X194209667Y-105959925D01*
X194466771Y-106515500D01*
X194696597Y-107081664D01*
X194897886Y-107658255D01*
X195069376Y-108245113D01*
X195209807Y-108842077D01*
X195317919Y-109448986D01*
X195392450Y-110065679D01*
X195432141Y-110691996D01*
X195435730Y-111327776D01*
X195411285Y-111790136D01*
X195358496Y-112264923D01*
X195276927Y-112746950D01*
X195166139Y-113231032D01*
X195025694Y-113711982D01*
X194944213Y-113949662D01*
X194855154Y-114184615D01*
X194758461Y-114416193D01*
X194654081Y-114643746D01*
X194541958Y-114866627D01*
X194422037Y-115084188D01*
X194294264Y-115295781D01*
X194158585Y-115500756D01*
X194014943Y-115698467D01*
X193863285Y-115888265D01*
X193703556Y-116069501D01*
X193535701Y-116241527D01*
X193359665Y-116403696D01*
X193175394Y-116555358D01*
X192982832Y-116695867D01*
X192781926Y-116824572D01*
X192572620Y-116940827D01*
X192354860Y-117043983D01*
X192128590Y-117133392D01*
X191893756Y-117208406D01*
X191650304Y-117268376D01*
X191398178Y-117312654D01*
X190923684Y-118802078D01*
X190418524Y-120301827D01*
X189876095Y-121800149D01*
X189289791Y-123285293D01*
X188978123Y-124019252D01*
X188653009Y-124745509D01*
X188313625Y-125462596D01*
X187959144Y-126169045D01*
X187588742Y-126863385D01*
X187201592Y-127544149D01*
X186796870Y-128209868D01*
X186373749Y-128859072D01*
X185741946Y-129745287D01*
X185078970Y-130578578D01*
X184385027Y-131359354D01*
X183660323Y-132088020D01*
X182905062Y-132764984D01*
X182119450Y-133390653D01*
X181303693Y-133965433D01*
X180457996Y-134489733D01*
X179582565Y-134963957D01*
X178677604Y-135388515D01*
X177743319Y-135763812D01*
X176779916Y-136090256D01*
X175787600Y-136368253D01*
X174766577Y-136598211D01*
X173717051Y-136780536D01*
X172639229Y-136915636D01*
X172149410Y-136971900D01*
X171670938Y-137040816D01*
X171202017Y-137124368D01*
X170740847Y-137224539D01*
X170512606Y-137281477D01*
X170285630Y-137343313D01*
X170059692Y-137410297D01*
X169834567Y-137482676D01*
X169610032Y-137560698D01*
X169385862Y-137644611D01*
X169161830Y-137734663D01*
X168937714Y-137831102D01*
X168800264Y-137887955D01*
X168662378Y-137937050D01*
X168524239Y-137978503D01*
X168386030Y-138012433D01*
X168247936Y-138038957D01*
X168110140Y-138058191D01*
X167972826Y-138070254D01*
X167836177Y-138075261D01*
X167700376Y-138073331D01*
X167565608Y-138064581D01*
X167432056Y-138049128D01*
X167299904Y-138027089D01*
X167169335Y-137998581D01*
X167040533Y-137963722D01*
X166913681Y-137922629D01*
X166788963Y-137875420D01*
X166666563Y-137822210D01*
X166546665Y-137763118D01*
X166429451Y-137698261D01*
X166315106Y-137627756D01*
X166203813Y-137551721D01*
X166095756Y-137470272D01*
X165991118Y-137383527D01*
X165890083Y-137291603D01*
X165792834Y-137194617D01*
X165699556Y-137092687D01*
X165610432Y-136985929D01*
X165525645Y-136874462D01*
X165445379Y-136758401D01*
X165369818Y-136637866D01*
X165299145Y-136512972D01*
X165233544Y-136383837D01*
X165140401Y-136196280D01*
X165043530Y-136014363D01*
X164942922Y-135837710D01*
X164838571Y-135665944D01*
X164730468Y-135498689D01*
X164618605Y-135335570D01*
X164502976Y-135176211D01*
X164383571Y-135020235D01*
X164260383Y-134867267D01*
X164133405Y-134716930D01*
X164002629Y-134568849D01*
X163868047Y-134422648D01*
X163729651Y-134277951D01*
X163587434Y-134134382D01*
X163291504Y-133849123D01*
X162861403Y-133435246D01*
X162442277Y-133013089D01*
X162034188Y-132582558D01*
X161637198Y-132143562D01*
X161251371Y-131696008D01*
X160876768Y-131239803D01*
X160513452Y-130774856D01*
X160161484Y-130301073D01*
X159875651Y-129896967D01*
X159597757Y-129486228D01*
X159328048Y-129068670D01*
X159066773Y-128644106D01*
X158814179Y-128212349D01*
X158570515Y-127773213D01*
X158336030Y-127326511D01*
X158110970Y-126872057D01*
X157906038Y-127555918D01*
X157684963Y-128215944D01*
X157447479Y-128854342D01*
X157193318Y-129473323D01*
X156922212Y-130075096D01*
X156633894Y-130661869D01*
X156328096Y-131235853D01*
X156004552Y-131799255D01*
X155662993Y-132354286D01*
X155303153Y-132903155D01*
X154924763Y-133448071D01*
X154527557Y-133991243D01*
X154111266Y-134534880D01*
X153675624Y-135081191D01*
X152745216Y-136190676D01*
X153963719Y-136148790D01*
X155217042Y-136123990D01*
X155850666Y-136126204D01*
X156485682Y-136142537D01*
X157119651Y-136176272D01*
X157750136Y-136230692D01*
X158374700Y-136309079D01*
X158990903Y-136414717D01*
X159596309Y-136550887D01*
X160188478Y-136720873D01*
X160764975Y-136927958D01*
X161323360Y-137175423D01*
X161861196Y-137466552D01*
X162121646Y-137629517D01*
X162376045Y-137804628D01*
X162636241Y-138002547D01*
X162882754Y-138211125D01*
X163115176Y-138430043D01*
X163333094Y-138658984D01*
X163536099Y-138897630D01*
X163723779Y-139145663D01*
X163895723Y-139402765D01*
X164051521Y-139668619D01*
X164190762Y-139942906D01*
X164313036Y-140225309D01*
X164417930Y-140515510D01*
X164505035Y-140813191D01*
X164573939Y-141118034D01*
X164624233Y-141429722D01*
X164655504Y-141747936D01*
X164667343Y-142072359D01*
X164666333Y-142146644D01*
X164662338Y-142219157D01*
X164655392Y-142289863D01*
X164645534Y-142358726D01*
X164632801Y-142425712D01*
X164617228Y-142490784D01*
X164598853Y-142553908D01*
X164577713Y-142615047D01*
X164553845Y-142674168D01*
X164527285Y-142731234D01*
X164498070Y-142786209D01*
X164466237Y-142839060D01*
X164431822Y-142889749D01*
X164394864Y-142938242D01*
X164355398Y-142984504D01*
X164313460Y-143028499D01*
X164269089Y-143070192D01*
X164222321Y-143109548D01*
X164173193Y-143146530D01*
X164121741Y-143181104D01*
X164068002Y-143213235D01*
X164012014Y-143242887D01*
X163953812Y-143270024D01*
X163893435Y-143294612D01*
X163830918Y-143316614D01*
X163766298Y-143335996D01*
X163699612Y-143352723D01*
X163630898Y-143366758D01*
X163560191Y-143378067D01*
X163487529Y-143386614D01*
X163412949Y-143392364D01*
X163336487Y-143395281D01*
X161071655Y-143437609D01*
X157753777Y-143487871D01*
X157753515Y-143582340D01*
X157749296Y-143676153D01*
X157741177Y-143769180D01*
X157729216Y-143861292D01*
X157713470Y-143952359D01*
X157693997Y-144042252D01*
X157670855Y-144130843D01*
X157644101Y-144218000D01*
X157613793Y-144303596D01*
X157579988Y-144387501D01*
X157542745Y-144469585D01*
X157502121Y-144549719D01*
X157458173Y-144627773D01*
X157410959Y-144703619D01*
X157360537Y-144777127D01*
X157306965Y-144848167D01*
X157250300Y-144916611D01*
X157190599Y-144982328D01*
X157127922Y-145045190D01*
X157062324Y-145105067D01*
X156993864Y-145161830D01*
X156922599Y-145215350D01*
X156848587Y-145265496D01*
X156771886Y-145312140D01*
X156692554Y-145355152D01*
X156610647Y-145394404D01*
X156526224Y-145429765D01*
X156439343Y-145461106D01*
X156350060Y-145488299D01*
X156258434Y-145511213D01*
X156164522Y-145529719D01*
X156068382Y-145543688D01*
X155733235Y-145580842D01*
X155402831Y-145611239D01*
X155074722Y-145635312D01*
X154746458Y-145653494D01*
X154415590Y-145666218D01*
X154079668Y-145673919D01*
X153736243Y-145677028D01*
X153382866Y-145675981D01*
X127435173Y-145490770D01*
X127212864Y-145486831D01*
X126993299Y-145477997D01*
X126776307Y-145464273D01*
X126561718Y-145445661D01*
X126349361Y-145422167D01*
X126139066Y-145393793D01*
X125930663Y-145360544D01*
X125723980Y-145322424D01*
X125518848Y-145279436D01*
X125315095Y-145231584D01*
X125112552Y-145178871D01*
X124911047Y-145121303D01*
X124710411Y-145058883D01*
X124510473Y-144991614D01*
X124311061Y-144919501D01*
X124112007Y-144842546D01*
X123949331Y-144772799D01*
X123801481Y-144699610D01*
X123667502Y-144623166D01*
X123546439Y-144543654D01*
X123437337Y-144461261D01*
X123339240Y-144376172D01*
X123251193Y-144288575D01*
X123172240Y-144198656D01*
X123101426Y-144106602D01*
X123037796Y-144012598D01*
X122980394Y-143916832D01*
X122928265Y-143819490D01*
X122836005Y-143620824D01*
X122753371Y-143418093D01*
X122672723Y-143212788D01*
X122586415Y-143006401D01*
X122486806Y-142800425D01*
X122429625Y-142698058D01*
X122366253Y-142596353D01*
X122295734Y-142495496D01*
X122217112Y-142395675D01*
X122129433Y-142297076D01*
X122031741Y-142199885D01*
X121923081Y-142104289D01*
X121802497Y-142010475D01*
X121669034Y-141918628D01*
X121521736Y-141828935D01*
X121189049Y-141634443D01*
X120864455Y-141437316D01*
X120546123Y-141236652D01*
X120232226Y-141031555D01*
X119920932Y-140821124D01*
X119610413Y-140604460D01*
X119298840Y-140380664D01*
X118984383Y-140148836D01*
X118968379Y-140137166D01*
X118952096Y-140125931D01*
X118935503Y-140115068D01*
X118918569Y-140104515D01*
X118901262Y-140094210D01*
X118883552Y-140084092D01*
X118865408Y-140074097D01*
X118846798Y-140064165D01*
X118791082Y-140036523D01*
X118733203Y-140011083D01*
X118673355Y-139987752D01*
X118611732Y-139966436D01*
X118548528Y-139947042D01*
X118483936Y-139929478D01*
X118418151Y-139913650D01*
X118351366Y-139899465D01*
X118283774Y-139886831D01*
X118215571Y-139875654D01*
X118078101Y-139857300D01*
X117940508Y-139843659D01*
X117804340Y-139833986D01*
X116601096Y-139745047D01*
X115409075Y-139606533D01*
X114229395Y-139418913D01*
X113063172Y-139182656D01*
X111911521Y-138898232D01*
X110775560Y-138566108D01*
X109656404Y-138186755D01*
X108555169Y-137760641D01*
X107472971Y-137288235D01*
X106410928Y-136770007D01*
X105370155Y-136206425D01*
X104351768Y-135597958D01*
X103356883Y-134945076D01*
X102386617Y-134248247D01*
X101442086Y-133507941D01*
X100524406Y-132724626D01*
X99805903Y-132065250D01*
X99109262Y-131386103D01*
X98435016Y-130687507D01*
X97783694Y-129969784D01*
X97155829Y-129233255D01*
X96551950Y-128478242D01*
X95972590Y-127705068D01*
X95418278Y-126914053D01*
X94889546Y-126105520D01*
X94386925Y-125279790D01*
X93910946Y-124437185D01*
X93462139Y-123578028D01*
X93041037Y-122702639D01*
X92648169Y-121811340D01*
X92284067Y-120904454D01*
X91949261Y-119982302D01*
X91592586Y-118882999D01*
X91275571Y-117774506D01*
X90998128Y-116657804D01*
X90760166Y-115533874D01*
X90653644Y-114927591D01*
X111098974Y-114927591D01*
X111124291Y-117108284D01*
X111293786Y-119282837D01*
X111607000Y-121442438D01*
X112063477Y-123578272D01*
X112662760Y-125681527D01*
X113404390Y-127743389D01*
X114287911Y-129755046D01*
X115312864Y-131707682D01*
X116478794Y-133592485D01*
X116809634Y-134074625D01*
X117149322Y-134545840D01*
X117497901Y-135006302D01*
X117855414Y-135456188D01*
X118221903Y-135895671D01*
X118597410Y-136324926D01*
X118981979Y-136744126D01*
X119375652Y-137153448D01*
X119778472Y-137553064D01*
X120190481Y-137943150D01*
X120611722Y-138323880D01*
X121042238Y-138695429D01*
X121482071Y-139057970D01*
X121931264Y-139411678D01*
X122389859Y-139756728D01*
X122857899Y-140093294D01*
X122977518Y-140167416D01*
X123093809Y-140220032D01*
X123206808Y-140252503D01*
X123316553Y-140266189D01*
X123423078Y-140262452D01*
X123526422Y-140242653D01*
X123626619Y-140208151D01*
X123723706Y-140160309D01*
X123817720Y-140100487D01*
X123908697Y-140030046D01*
X123996672Y-139950347D01*
X124081684Y-139862751D01*
X124242959Y-139669309D01*
X124392812Y-139460609D01*
X124883822Y-138690960D01*
X124980927Y-138569270D01*
X125025833Y-138526519D01*
X125068355Y-138497644D01*
X125108530Y-138484006D01*
X125146395Y-138486967D01*
X125181986Y-138507888D01*
X125215340Y-138548128D01*
X125223192Y-138561390D01*
X125232646Y-138578954D01*
X125255068Y-138624602D01*
X125280033Y-138680297D01*
X125304967Y-138741264D01*
X125316618Y-138772232D01*
X125327296Y-138802728D01*
X125336680Y-138832154D01*
X125344447Y-138859914D01*
X125350277Y-138885411D01*
X125353847Y-138908048D01*
X125354835Y-138927228D01*
X125354261Y-138935335D01*
X125352921Y-138942354D01*
X124733795Y-141045793D01*
X124712632Y-141123078D01*
X124694778Y-141199609D01*
X124680225Y-141275314D01*
X124668962Y-141350119D01*
X124660983Y-141423954D01*
X124656277Y-141496746D01*
X124654837Y-141568423D01*
X124656653Y-141638912D01*
X124661718Y-141708142D01*
X124670021Y-141776040D01*
X124681555Y-141842534D01*
X124696310Y-141907552D01*
X124714278Y-141971021D01*
X124735451Y-142032870D01*
X124759819Y-142093027D01*
X124787375Y-142151418D01*
X124818108Y-142207973D01*
X124852010Y-142262618D01*
X124889074Y-142315282D01*
X124929289Y-142365893D01*
X124972647Y-142414377D01*
X125019140Y-142460664D01*
X125068759Y-142504680D01*
X125121495Y-142546354D01*
X125177339Y-142585614D01*
X125236282Y-142622386D01*
X125298317Y-142656600D01*
X125363434Y-142688183D01*
X125431624Y-142717063D01*
X125502879Y-142743167D01*
X125577190Y-142766424D01*
X125654549Y-142786760D01*
X125972047Y-142857843D01*
X126292027Y-142921857D01*
X126615231Y-142978184D01*
X126942405Y-143026201D01*
X127274291Y-143065289D01*
X127611635Y-143094828D01*
X127955181Y-143114196D01*
X128305672Y-143122774D01*
X152769043Y-143326509D01*
X152704322Y-143212924D01*
X152633383Y-143104296D01*
X152556523Y-143000559D01*
X152474035Y-142901648D01*
X152386214Y-142807496D01*
X152293354Y-142718038D01*
X152195751Y-142633207D01*
X152093698Y-142552938D01*
X151987490Y-142477165D01*
X151877422Y-142405822D01*
X151763788Y-142338842D01*
X151646883Y-142276161D01*
X151527001Y-142217711D01*
X151404438Y-142163427D01*
X151279487Y-142113244D01*
X151152443Y-142067095D01*
X150017380Y-141672869D01*
X149899216Y-141625328D01*
X149808830Y-141575070D01*
X149745008Y-141522977D01*
X149706537Y-141469927D01*
X149692204Y-141416803D01*
X149700796Y-141364482D01*
X149731100Y-141313847D01*
X149781903Y-141265777D01*
X149851991Y-141221153D01*
X149940152Y-141180854D01*
X150165838Y-141116756D01*
X150449258Y-141080524D01*
X150780706Y-141079201D01*
X151150476Y-141119828D01*
X151346700Y-141158075D01*
X151548865Y-141209449D01*
X151755759Y-141274833D01*
X151966168Y-141355106D01*
X152178879Y-141451148D01*
X152392679Y-141563840D01*
X152606355Y-141694062D01*
X152818693Y-141842694D01*
X153028482Y-142010616D01*
X153234507Y-142198710D01*
X153435556Y-142407854D01*
X153630415Y-142638930D01*
X153817871Y-142892817D01*
X153996712Y-143170397D01*
X154085214Y-143184952D01*
X154174030Y-143196919D01*
X154263041Y-143206374D01*
X154352124Y-143213395D01*
X154441161Y-143218059D01*
X154530031Y-143220445D01*
X154618615Y-143220629D01*
X154706791Y-143218689D01*
X154794440Y-143214702D01*
X154881442Y-143208747D01*
X154967677Y-143200900D01*
X155053024Y-143191238D01*
X155220574Y-143166784D01*
X155383133Y-143136003D01*
X155308294Y-142868565D01*
X155218629Y-142614225D01*
X155114752Y-142372674D01*
X154997279Y-142143599D01*
X154866824Y-141926691D01*
X154724002Y-141721637D01*
X154569428Y-141528127D01*
X154403717Y-141345850D01*
X154227483Y-141174495D01*
X154041341Y-141013751D01*
X153845906Y-140863306D01*
X153641793Y-140722851D01*
X153209992Y-140470661D01*
X152750855Y-140254694D01*
X152269300Y-140072461D01*
X151770247Y-139921474D01*
X151258613Y-139799246D01*
X150739317Y-139703286D01*
X150217277Y-139631109D01*
X149697411Y-139580224D01*
X149184638Y-139548144D01*
X148683876Y-139532381D01*
X147670254Y-139531808D01*
X146663948Y-139563017D01*
X145662851Y-139621821D01*
X144664855Y-139704035D01*
X143667851Y-139805471D01*
X142669732Y-139921945D01*
X140661713Y-140183260D01*
X139999553Y-140264949D01*
X139528248Y-140308459D01*
X139279881Y-140324641D01*
X139031550Y-140334730D01*
X138789636Y-140336944D01*
X138560524Y-140329500D01*
X138350596Y-140310615D01*
X138166237Y-140278506D01*
X138085640Y-140256936D01*
X138013829Y-140231391D01*
X137951602Y-140201649D01*
X137899757Y-140167487D01*
X137859091Y-140128682D01*
X137830402Y-140085011D01*
X137814489Y-140036251D01*
X137812149Y-139982179D01*
X137813570Y-139969979D01*
X137815827Y-139957221D01*
X137818886Y-139943954D01*
X137822713Y-139930225D01*
X137832545Y-139901569D01*
X137845058Y-139871635D01*
X137859990Y-139840802D01*
X137877076Y-139809449D01*
X137896054Y-139777956D01*
X137916660Y-139746704D01*
X137938629Y-139716072D01*
X137961699Y-139686439D01*
X137985607Y-139658186D01*
X138010089Y-139631692D01*
X138034880Y-139607337D01*
X138059719Y-139585501D01*
X138084341Y-139566564D01*
X138096488Y-139558301D01*
X138108482Y-139550905D01*
X138356379Y-139407119D01*
X138605729Y-139268775D01*
X139107409Y-139004379D01*
X140113031Y-138496544D01*
X140318881Y-138389345D01*
X154274506Y-138389345D01*
X154470645Y-138501530D01*
X154661313Y-138616988D01*
X154846678Y-138735949D01*
X155026912Y-138858646D01*
X155202186Y-138985313D01*
X155372669Y-139116182D01*
X155538532Y-139251484D01*
X155699947Y-139391453D01*
X155857082Y-139536320D01*
X156010109Y-139686320D01*
X156159198Y-139841683D01*
X156304521Y-140002642D01*
X156446246Y-140169431D01*
X156584545Y-140342280D01*
X156719589Y-140521424D01*
X156851547Y-140707094D01*
X156887223Y-140754366D01*
X156927472Y-140799898D01*
X156971845Y-140843624D01*
X157019891Y-140885479D01*
X157071162Y-140925396D01*
X157125208Y-140963310D01*
X157181579Y-140999155D01*
X157239826Y-141032863D01*
X157299500Y-141064371D01*
X157360149Y-141093611D01*
X157421326Y-141120518D01*
X157482581Y-141145026D01*
X157543463Y-141167068D01*
X157603525Y-141186580D01*
X157662314Y-141203494D01*
X157719383Y-141217745D01*
X159500031Y-141170122D01*
X158351738Y-139587923D01*
X158461036Y-139592341D01*
X158566283Y-139601033D01*
X158667632Y-139613855D01*
X158765233Y-139630661D01*
X158859237Y-139651309D01*
X158949795Y-139675653D01*
X159037059Y-139703549D01*
X159121180Y-139734853D01*
X159202308Y-139769421D01*
X159280596Y-139807107D01*
X159356194Y-139847768D01*
X159429254Y-139891258D01*
X159499926Y-139937435D01*
X159568361Y-139986154D01*
X159699128Y-140090637D01*
X159822764Y-140203554D01*
X159940477Y-140323749D01*
X160053478Y-140450068D01*
X160162975Y-140581355D01*
X160376295Y-140854215D01*
X160590111Y-141133089D01*
X160787990Y-141145878D01*
X160994923Y-141154510D01*
X161208306Y-141159048D01*
X161425533Y-141159553D01*
X161644001Y-141156090D01*
X161861105Y-141148721D01*
X162074239Y-141137508D01*
X162280800Y-141122515D01*
X162280800Y-141122499D01*
X162174720Y-140878231D01*
X162048685Y-140648198D01*
X161903759Y-140432002D01*
X161741008Y-140229246D01*
X161561499Y-140039529D01*
X161366297Y-139862453D01*
X161156468Y-139697620D01*
X160933078Y-139544630D01*
X160697192Y-139403086D01*
X160449877Y-139272588D01*
X159925222Y-139043136D01*
X159367638Y-138853084D01*
X158785653Y-138699243D01*
X158187793Y-138578424D01*
X157582584Y-138487436D01*
X156978554Y-138423090D01*
X156384228Y-138382196D01*
X155808134Y-138361564D01*
X155258798Y-138358005D01*
X154274506Y-138389345D01*
X140318881Y-138389345D01*
X140611456Y-138236982D01*
X141103276Y-137962911D01*
X141345848Y-137817914D01*
X141585733Y-137666267D01*
X141822589Y-137506962D01*
X142056069Y-137338991D01*
X142499500Y-136984407D01*
X146162377Y-136984407D01*
X146314405Y-136955356D01*
X146462193Y-136921902D01*
X146606152Y-136884230D01*
X146746692Y-136842528D01*
X146884225Y-136796981D01*
X147019162Y-136747775D01*
X147151912Y-136695097D01*
X147282888Y-136639131D01*
X147412499Y-136580065D01*
X147541156Y-136518085D01*
X147797255Y-136386124D01*
X148054469Y-136244738D01*
X148316086Y-136095415D01*
X148850793Y-135782259D01*
X149375579Y-135457444D01*
X149633398Y-135289502D01*
X149887713Y-135117250D01*
X150138183Y-134940223D01*
X150384468Y-134757955D01*
X150626226Y-134569983D01*
X150863116Y-134375840D01*
X151094797Y-134175062D01*
X151320928Y-133967183D01*
X151541168Y-133751738D01*
X151755176Y-133528263D01*
X151962611Y-133296292D01*
X152163132Y-133055361D01*
X152163124Y-133055345D01*
X152805699Y-132216940D01*
X153400326Y-131361124D01*
X153944639Y-130488597D01*
X154436269Y-129600054D01*
X154872848Y-128696194D01*
X155252008Y-127777715D01*
X155571381Y-126845314D01*
X155828598Y-125899689D01*
X156021292Y-124941537D01*
X156147095Y-123971556D01*
X156203639Y-122990445D01*
X156188556Y-121998900D01*
X156099476Y-120997619D01*
X155934034Y-119987300D01*
X155689860Y-118968641D01*
X155364586Y-117942339D01*
X154610519Y-121209949D01*
X154408206Y-121999721D01*
X154183631Y-122781492D01*
X154060379Y-123169823D01*
X153928422Y-123556689D01*
X153786714Y-123942268D01*
X153634209Y-124326738D01*
X153443978Y-124772537D01*
X153244698Y-125211371D01*
X153036868Y-125643779D01*
X152820988Y-126070299D01*
X152597557Y-126491471D01*
X152367077Y-126907833D01*
X151886967Y-127728283D01*
X151384656Y-128535959D01*
X150864146Y-129335171D01*
X149784523Y-130925447D01*
X149591441Y-131419281D01*
X149400230Y-131875985D01*
X149209539Y-132300227D01*
X149018015Y-132696671D01*
X148824305Y-133069985D01*
X148627057Y-133424834D01*
X148424917Y-133765886D01*
X148216534Y-134097807D01*
X148000554Y-134425262D01*
X147775625Y-134752919D01*
X147293511Y-135427503D01*
X146162377Y-136984407D01*
X142499500Y-136984407D01*
X142948496Y-136625373D01*
X143781613Y-135857266D01*
X144554400Y-135038473D01*
X145265838Y-134172795D01*
X145914908Y-133264034D01*
X146500590Y-132315993D01*
X147021865Y-131332474D01*
X147477714Y-130317278D01*
X147867117Y-129274208D01*
X148189055Y-128207066D01*
X148442509Y-127119653D01*
X148626460Y-126015773D01*
X148739888Y-124899227D01*
X148781774Y-123773817D01*
X148751099Y-122643345D01*
X148646843Y-121511614D01*
X148585320Y-121064634D01*
X148513589Y-120625343D01*
X148431238Y-120193369D01*
X148337857Y-119768341D01*
X148233034Y-119349885D01*
X148116360Y-118937631D01*
X147987423Y-118531206D01*
X147845812Y-118130237D01*
X147691117Y-117734354D01*
X147522927Y-117343184D01*
X147340831Y-116956354D01*
X147144418Y-116573493D01*
X146933277Y-116194229D01*
X146706998Y-115818190D01*
X146465170Y-115445003D01*
X146207382Y-115074297D01*
X145827054Y-114571625D01*
X145427812Y-114091687D01*
X145010523Y-113634738D01*
X144576056Y-113201033D01*
X144125277Y-112790826D01*
X143659056Y-112404373D01*
X143178258Y-112041929D01*
X142683753Y-111703747D01*
X142253241Y-111437586D01*
X146448225Y-111437586D01*
X146449457Y-111486860D01*
X146453170Y-111536173D01*
X146459314Y-111585490D01*
X146467842Y-111634774D01*
X146478705Y-111683991D01*
X146491854Y-111733106D01*
X146507242Y-111782082D01*
X146544539Y-111879479D01*
X146590208Y-111975900D01*
X146643860Y-112071060D01*
X146705109Y-112164678D01*
X146773567Y-112256471D01*
X147138305Y-112717362D01*
X147496748Y-113180857D01*
X147846571Y-113649313D01*
X148185449Y-114125088D01*
X148511056Y-114610536D01*
X148821068Y-115108014D01*
X148969499Y-115362000D01*
X149113158Y-115619878D01*
X149251756Y-115881941D01*
X149385002Y-116148485D01*
X149385002Y-116148470D01*
X149610649Y-116634530D01*
X149817731Y-117123504D01*
X150006908Y-117615640D01*
X150178837Y-118111186D01*
X150334178Y-118610391D01*
X150473590Y-119113501D01*
X150597731Y-119620767D01*
X150707261Y-120132435D01*
X150802838Y-120648753D01*
X150885121Y-121169971D01*
X150954769Y-121696336D01*
X151012441Y-122228096D01*
X151094492Y-123308793D01*
X151136543Y-124414049D01*
X151354331Y-123991050D01*
X151555746Y-123568580D01*
X151741534Y-123145429D01*
X151912438Y-122720386D01*
X152069204Y-122292243D01*
X152212576Y-121859790D01*
X152343297Y-121421817D01*
X152462113Y-120977114D01*
X152464760Y-120977114D01*
X152703207Y-120006562D01*
X152930677Y-119036320D01*
X153147605Y-118064463D01*
X153354425Y-117089071D01*
X153739475Y-115119993D01*
X154089302Y-113113710D01*
X153259223Y-113016507D01*
X152450787Y-112896173D01*
X152054238Y-112825762D01*
X151662566Y-112747686D01*
X151275590Y-112661315D01*
X150893134Y-112566023D01*
X150515019Y-112461180D01*
X150141066Y-112346161D01*
X149771097Y-112220335D01*
X149404935Y-112083077D01*
X149042400Y-111933757D01*
X148683314Y-111771748D01*
X148327499Y-111596423D01*
X147974777Y-111407152D01*
X146760346Y-110727159D01*
X146718557Y-110771610D01*
X146679976Y-110816630D01*
X146644553Y-110862183D01*
X146612241Y-110908235D01*
X146582990Y-110954749D01*
X146556753Y-111001692D01*
X146533481Y-111049027D01*
X146513125Y-111096719D01*
X146495637Y-111144732D01*
X146480969Y-111193032D01*
X146469072Y-111241582D01*
X146459897Y-111290348D01*
X146453397Y-111339294D01*
X146449522Y-111388385D01*
X146448225Y-111437586D01*
X142253241Y-111437586D01*
X142176407Y-111390083D01*
X141657088Y-111101193D01*
X141126665Y-110837329D01*
X140586004Y-110598748D01*
X140035974Y-110385705D01*
X139477442Y-110198453D01*
X138911276Y-110037248D01*
X138338343Y-109902345D01*
X137759511Y-109793999D01*
X137175648Y-109712464D01*
X136587622Y-109657995D01*
X135996300Y-109630847D01*
X135402549Y-109631276D01*
X134807239Y-109659534D01*
X134211235Y-109715879D01*
X133615407Y-109800563D01*
X133020621Y-109913843D01*
X132427745Y-110055973D01*
X131837647Y-110227207D01*
X131251196Y-110427801D01*
X130669257Y-110658010D01*
X130092699Y-110918088D01*
X129522391Y-111208290D01*
X128959198Y-111528871D01*
X128732986Y-111668427D01*
X128512393Y-111812130D01*
X128296901Y-111959787D01*
X128085990Y-112111203D01*
X127879141Y-112266184D01*
X127675834Y-112424538D01*
X127277770Y-112750585D01*
X126887644Y-113087795D01*
X126501300Y-113434617D01*
X125723343Y-114150896D01*
X125698204Y-114172969D01*
X125671954Y-114194037D01*
X125644677Y-114214084D01*
X125616457Y-114233096D01*
X125557518Y-114267962D01*
X125495803Y-114298522D01*
X125431980Y-114324664D01*
X125366715Y-114346275D01*
X125300675Y-114363243D01*
X125234526Y-114375456D01*
X125168935Y-114382801D01*
X125104569Y-114385166D01*
X125042094Y-114382438D01*
X125011775Y-114379130D01*
X124982178Y-114374506D01*
X124953387Y-114368553D01*
X124925486Y-114361257D01*
X124898558Y-114352604D01*
X124872686Y-114342579D01*
X124847953Y-114331168D01*
X124824443Y-114318359D01*
X124802240Y-114304135D01*
X124781426Y-114288484D01*
X124756170Y-114266254D01*
X124732487Y-114242770D01*
X124710371Y-114218097D01*
X124689812Y-114192297D01*
X124670804Y-114165436D01*
X124653339Y-114137577D01*
X124637408Y-114108784D01*
X124623004Y-114079121D01*
X124610120Y-114048652D01*
X124598747Y-114017441D01*
X124588878Y-113985552D01*
X124580505Y-113953049D01*
X124568217Y-113886455D01*
X124561819Y-113818172D01*
X124561251Y-113748712D01*
X124566450Y-113678584D01*
X124577354Y-113608303D01*
X124593901Y-113538378D01*
X124616029Y-113469321D01*
X124643676Y-113401645D01*
X124676780Y-113335860D01*
X124715279Y-113272478D01*
X125308349Y-112461131D01*
X125966593Y-111707667D01*
X126684368Y-111013293D01*
X127456032Y-110379214D01*
X128275940Y-109806635D01*
X129138451Y-109296761D01*
X130037921Y-108850798D01*
X130968706Y-108469951D01*
X131925165Y-108155426D01*
X132901653Y-107908428D01*
X133892528Y-107730162D01*
X134892146Y-107621834D01*
X135894865Y-107584649D01*
X136895042Y-107619812D01*
X137887034Y-107728528D01*
X138865196Y-107912004D01*
X139176401Y-107987134D01*
X139483194Y-108069394D01*
X139785942Y-108158413D01*
X140085007Y-108253819D01*
X140380755Y-108355240D01*
X140673549Y-108462304D01*
X141251736Y-108691871D01*
X141822481Y-108939546D01*
X142388698Y-109202351D01*
X142953304Y-109477309D01*
X143519211Y-109761446D01*
X143561983Y-109781263D01*
X143605901Y-109798099D01*
X143650871Y-109812029D01*
X143696797Y-109823126D01*
X143743585Y-109831463D01*
X143791142Y-109837115D01*
X143839372Y-109840154D01*
X143888181Y-109840654D01*
X143937474Y-109838690D01*
X143987157Y-109834334D01*
X144037136Y-109827661D01*
X144087316Y-109818743D01*
X144187901Y-109794471D01*
X144288157Y-109762106D01*
X144387327Y-109722237D01*
X144484656Y-109675455D01*
X144579389Y-109622347D01*
X144670769Y-109563503D01*
X144758041Y-109499512D01*
X144840448Y-109430963D01*
X144917236Y-109358446D01*
X144987648Y-109282549D01*
X144375086Y-108680957D01*
X143787514Y-108074932D01*
X143504011Y-107768485D01*
X143227848Y-107458801D01*
X142959390Y-107145171D01*
X142699001Y-106826887D01*
X142447046Y-106503239D01*
X142203889Y-106173517D01*
X141969894Y-105837013D01*
X141745426Y-105493017D01*
X141530848Y-105140819D01*
X141326526Y-104779711D01*
X141132823Y-104408983D01*
X140950104Y-104027925D01*
X140908586Y-103933630D01*
X140870348Y-103838920D01*
X140835386Y-103744032D01*
X140803692Y-103649202D01*
X140775262Y-103554666D01*
X140750090Y-103460661D01*
X140728170Y-103367424D01*
X140709495Y-103275190D01*
X140694061Y-103184197D01*
X140681861Y-103094680D01*
X140672889Y-103006876D01*
X140667140Y-102921022D01*
X140664608Y-102837353D01*
X140665287Y-102756107D01*
X140669172Y-102677520D01*
X140676255Y-102601827D01*
X140686533Y-102529267D01*
X140699998Y-102460074D01*
X140716645Y-102394486D01*
X140736469Y-102332738D01*
X140759463Y-102275068D01*
X140785621Y-102221711D01*
X140814938Y-102172905D01*
X140847409Y-102128885D01*
X140883026Y-102089888D01*
X140921784Y-102056150D01*
X140963679Y-102027908D01*
X141008702Y-102005399D01*
X141056850Y-101988858D01*
X141108116Y-101978522D01*
X141162494Y-101974628D01*
X141219978Y-101977411D01*
X141255333Y-101982969D01*
X141294467Y-101992481D01*
X141336694Y-102005620D01*
X141381328Y-102022061D01*
X141427683Y-102041478D01*
X141475073Y-102063547D01*
X141522812Y-102087940D01*
X141570214Y-102114334D01*
X141616593Y-102142402D01*
X141661263Y-102171818D01*
X141703538Y-102202258D01*
X141742731Y-102233395D01*
X141778158Y-102264904D01*
X141809131Y-102296459D01*
X141822733Y-102312153D01*
X141834964Y-102327736D01*
X141845740Y-102343168D01*
X141854973Y-102358408D01*
X142119501Y-102818342D01*
X142403287Y-103280214D01*
X142705126Y-103742302D01*
X143023813Y-104202886D01*
X143358142Y-104660246D01*
X143706909Y-105112660D01*
X144068907Y-105558408D01*
X144442931Y-105995768D01*
X144827777Y-106423021D01*
X145222238Y-106838445D01*
X145625110Y-107240320D01*
X146035186Y-107626924D01*
X146451262Y-107996537D01*
X146872132Y-108347439D01*
X147296592Y-108677908D01*
X147723434Y-108986223D01*
X148268457Y-109334415D01*
X148852306Y-109652069D01*
X149469781Y-109938229D01*
X150115680Y-110191938D01*
X150784803Y-110412238D01*
X151471948Y-110598171D01*
X152171914Y-110748781D01*
X152879499Y-110863109D01*
X153589504Y-110940200D01*
X154296725Y-110979095D01*
X154995962Y-110978838D01*
X155682014Y-110938470D01*
X156349680Y-110857035D01*
X156993758Y-110733575D01*
X157609047Y-110567133D01*
X158190346Y-110356752D01*
X158182411Y-110351457D01*
X164667351Y-107673876D01*
X164989394Y-107546600D01*
X165296814Y-107436555D01*
X165590503Y-107342876D01*
X165871357Y-107264703D01*
X166140270Y-107201172D01*
X166398137Y-107151421D01*
X166645851Y-107114588D01*
X166884307Y-107089810D01*
X167114399Y-107076226D01*
X167337021Y-107072972D01*
X167553069Y-107079187D01*
X167763435Y-107094008D01*
X168170703Y-107146018D01*
X168565980Y-107222105D01*
X170170264Y-107629235D01*
X170612903Y-107722220D01*
X171086477Y-107797887D01*
X171598142Y-107849339D01*
X171870494Y-107863828D01*
X172155052Y-107869676D01*
X170514633Y-106665819D01*
X170629543Y-106653509D01*
X170742167Y-106645258D01*
X170852605Y-106640921D01*
X170960960Y-106640358D01*
X171171823Y-106649976D01*
X171375567Y-106672970D01*
X171573000Y-106708196D01*
X171764934Y-106754509D01*
X171952178Y-106810769D01*
X172135542Y-106875830D01*
X172315836Y-106948549D01*
X172493871Y-107027784D01*
X172670456Y-107112391D01*
X172846402Y-107201227D01*
X173559990Y-107575990D01*
X173559990Y-107576006D01*
X173610501Y-107411379D01*
X173644970Y-107257907D01*
X173664157Y-107114978D01*
X173668825Y-106981979D01*
X173659736Y-106858301D01*
X173637653Y-106743329D01*
X173603336Y-106636453D01*
X173557550Y-106537060D01*
X173501054Y-106444539D01*
X173434612Y-106358278D01*
X173358985Y-106277664D01*
X173274936Y-106202087D01*
X173183227Y-106130934D01*
X173084619Y-106063593D01*
X172869757Y-105937900D01*
X171886789Y-105465247D01*
X171640651Y-105330137D01*
X171406546Y-105178459D01*
X171295911Y-105094878D01*
X171190572Y-105005318D01*
X171091289Y-104909169D01*
X170998825Y-104805818D01*
X171066602Y-104777905D01*
X171132599Y-104754070D01*
X171196942Y-104734125D01*
X171259760Y-104717886D01*
X171321179Y-104705166D01*
X171381325Y-104695779D01*
X171440326Y-104689539D01*
X171498309Y-104686260D01*
X171555400Y-104685756D01*
X171611727Y-104687841D01*
X171722595Y-104699034D01*
X171831929Y-104718351D01*
X171940743Y-104744303D01*
X172050053Y-104775401D01*
X172160874Y-104810159D01*
X172391113Y-104884697D01*
X172512561Y-104921501D01*
X172639582Y-104956010D01*
X172773192Y-104986737D01*
X172914406Y-105012194D01*
X172919235Y-105023661D01*
X172920793Y-105026756D01*
X172921769Y-105028027D01*
X172922037Y-105027962D01*
X172922156Y-105027421D01*
X172921946Y-105024889D01*
X172919704Y-105013845D01*
X172907714Y-104966424D01*
X172885307Y-104882540D01*
X172795359Y-104784829D01*
X172702495Y-104682282D01*
X172607276Y-104578000D01*
X172510258Y-104475082D01*
X172461249Y-104425104D01*
X172412000Y-104376630D01*
X172362580Y-104330047D01*
X172313059Y-104285744D01*
X172263508Y-104244107D01*
X172213995Y-104205524D01*
X172164590Y-104170382D01*
X172115364Y-104139070D01*
X171847115Y-103989037D01*
X171581394Y-103857323D01*
X171317861Y-103743022D01*
X171056175Y-103645230D01*
X170795997Y-103563041D01*
X170536987Y-103495552D01*
X170278803Y-103441856D01*
X170021108Y-103401049D01*
X169505818Y-103354481D01*
X168988397Y-103348608D01*
X168466123Y-103376190D01*
X167936276Y-103429988D01*
X165686740Y-103762534D01*
X165078216Y-103838810D01*
X164445794Y-103897862D01*
X163786753Y-103932451D01*
X163098373Y-103935335D01*
X162488611Y-103914171D01*
X161882446Y-103875643D01*
X161280994Y-103815534D01*
X160982384Y-103776069D01*
X160685372Y-103729627D01*
X160390095Y-103675683D01*
X160096694Y-103613708D01*
X159805308Y-103543175D01*
X159516077Y-103463558D01*
X159229141Y-103374329D01*
X158944638Y-103274962D01*
X158662708Y-103164929D01*
X158383492Y-103043703D01*
X157904148Y-102808341D01*
X157441826Y-102548384D01*
X156997115Y-102264784D01*
X156570604Y-101958496D01*
X156162883Y-101630473D01*
X155774540Y-101281668D01*
X155406165Y-100913035D01*
X155058347Y-100525527D01*
X154731674Y-100120098D01*
X154426737Y-99697700D01*
X154144124Y-99259289D01*
X153884424Y-98805816D01*
X153648227Y-98338236D01*
X153436121Y-97857501D01*
X153248696Y-97364566D01*
X153086540Y-96860384D01*
X153062082Y-96768382D01*
X153041314Y-96671550D01*
X153024266Y-96570765D01*
X153010969Y-96466902D01*
X153001456Y-96360838D01*
X152995756Y-96253448D01*
X152993901Y-96145609D01*
X152995922Y-96038195D01*
X153001850Y-95932084D01*
X153011715Y-95828151D01*
X153025549Y-95727273D01*
X153043383Y-95630324D01*
X153065247Y-95538181D01*
X153091173Y-95451720D01*
X153121192Y-95371818D01*
X153155335Y-95299349D01*
X153161417Y-95289538D01*
X153169179Y-95279963D01*
X153178514Y-95270642D01*
X153189321Y-95261596D01*
X153201493Y-95252843D01*
X153214928Y-95244400D01*
X153245167Y-95228527D01*
X153279204Y-95214126D01*
X153316206Y-95201349D01*
X153355341Y-95190348D01*
X153395773Y-95181272D01*
X153436671Y-95174275D01*
X153477200Y-95169505D01*
X153516528Y-95167116D01*
X153553821Y-95167257D01*
X153588245Y-95170081D01*
X153618969Y-95175737D01*
X153632682Y-95179675D01*
X153645157Y-95184378D01*
X153656290Y-95189864D01*
X153665978Y-95196153D01*
X153728647Y-95248535D01*
X153786116Y-95306878D01*
X153888032Y-95440988D01*
X153976878Y-95597562D01*
X154057810Y-95775677D01*
X154405489Y-96685099D01*
X154524171Y-96957084D01*
X154665866Y-97245075D01*
X154835731Y-97548151D01*
X155038919Y-97865388D01*
X155280585Y-98195865D01*
X155565885Y-98538659D01*
X155726508Y-98714387D01*
X155899972Y-98892848D01*
X156086922Y-99073927D01*
X156288002Y-99257509D01*
X157232562Y-100116081D01*
X157473819Y-100324058D01*
X157597900Y-100426492D01*
X157724935Y-100527756D01*
X157855412Y-100627749D01*
X157989819Y-100726370D01*
X158128645Y-100823517D01*
X158272377Y-100919092D01*
X158522119Y-99853600D01*
X158742343Y-98824540D01*
X158952149Y-97823697D01*
X159170637Y-96842853D01*
X159416906Y-95873792D01*
X159556427Y-95391112D01*
X159710056Y-94908296D01*
X159880180Y-94424317D01*
X160069187Y-93938149D01*
X160279463Y-93448763D01*
X160513397Y-92955133D01*
X159890035Y-92867080D01*
X159593058Y-92825901D01*
X159305243Y-92790965D01*
X159026111Y-92765533D01*
X158755179Y-92752864D01*
X158491968Y-92756217D01*
X158363108Y-92764921D01*
X158235997Y-92778852D01*
X158110577Y-92798419D01*
X157986785Y-92824029D01*
X157864564Y-92856088D01*
X157743852Y-92895006D01*
X157624590Y-92941188D01*
X157506717Y-92995043D01*
X157390173Y-93056978D01*
X157274899Y-93127400D01*
X157160834Y-93206717D01*
X157047918Y-93295336D01*
X156936091Y-93393665D01*
X156825293Y-93502110D01*
X156715464Y-93621081D01*
X156606544Y-93750983D01*
X156498473Y-93892225D01*
X156391190Y-94045214D01*
X156282916Y-94213389D01*
X156182816Y-94383545D01*
X156090134Y-94555677D01*
X156004114Y-94729782D01*
X155924001Y-94905856D01*
X155849039Y-95083895D01*
X155778471Y-95263895D01*
X155711543Y-95445852D01*
X155585582Y-95815623D01*
X155465108Y-96193176D01*
X155216438Y-96971506D01*
X155166741Y-96768126D01*
X155125074Y-96562250D01*
X155091841Y-96354545D01*
X155067444Y-96145677D01*
X155052287Y-95936313D01*
X155046773Y-95727119D01*
X155051305Y-95518762D01*
X155066286Y-95311909D01*
X155092119Y-95107227D01*
X155129207Y-94905381D01*
X155177953Y-94707039D01*
X155238761Y-94512868D01*
X155312033Y-94323533D01*
X155398172Y-94139701D01*
X155497581Y-93962040D01*
X155610664Y-93791216D01*
X156645187Y-92357172D01*
X156117481Y-92145878D01*
X155600394Y-91925034D01*
X155094563Y-91693586D01*
X154600621Y-91450480D01*
X154119206Y-91194661D01*
X153650953Y-90925076D01*
X153196498Y-90640669D01*
X152756476Y-90340388D01*
X152331522Y-90023178D01*
X151922273Y-89687983D01*
X151529364Y-89333751D01*
X151153431Y-88959428D01*
X150795109Y-88563958D01*
X150455035Y-88146288D01*
X150133842Y-87705363D01*
X149832169Y-87240129D01*
X149655648Y-86946071D01*
X149486600Y-86646308D01*
X149407368Y-86493822D01*
X149332993Y-86339351D01*
X149264470Y-86182710D01*
X149202795Y-86023712D01*
X149148965Y-85862172D01*
X149103975Y-85697903D01*
X149068821Y-85530719D01*
X149044500Y-85360435D01*
X149032008Y-85186864D01*
X149032340Y-85009821D01*
X149046493Y-84829118D01*
X149075462Y-84644571D01*
X149104125Y-84642500D01*
X149132561Y-84642203D01*
X149160760Y-84643624D01*
X149188714Y-84646710D01*
X149216412Y-84651403D01*
X149243844Y-84657651D01*
X149271001Y-84665396D01*
X149297874Y-84674584D01*
X149324452Y-84685159D01*
X149350725Y-84697067D01*
X149376685Y-84710252D01*
X149402322Y-84724658D01*
X149452585Y-84756916D01*
X149501437Y-84793399D01*
X149548802Y-84833664D01*
X149594600Y-84877270D01*
X149638756Y-84923775D01*
X149681190Y-84972737D01*
X149721826Y-85023715D01*
X149760586Y-85076266D01*
X149797393Y-85129948D01*
X149832169Y-85184320D01*
X150100400Y-85604767D01*
X150380343Y-86015339D01*
X150672178Y-86415338D01*
X150976081Y-86804067D01*
X151292231Y-87180827D01*
X151620807Y-87544921D01*
X151961986Y-87895652D01*
X152315948Y-88232322D01*
X152682869Y-88554232D01*
X153062930Y-88860686D01*
X153456307Y-89150986D01*
X153863180Y-89424435D01*
X154283726Y-89680333D01*
X154718124Y-89917985D01*
X155166552Y-90136692D01*
X155629189Y-90335756D01*
X156153732Y-90534939D01*
X156682406Y-90713161D01*
X157214941Y-90870982D01*
X157751065Y-91008959D01*
X158290506Y-91127649D01*
X158832994Y-91227613D01*
X159378256Y-91309406D01*
X159926023Y-91373588D01*
X160476021Y-91420717D01*
X161027981Y-91451351D01*
X161581631Y-91466048D01*
X162136699Y-91465365D01*
X162692914Y-91449862D01*
X163250005Y-91420096D01*
X163807701Y-91376626D01*
X164365730Y-91320009D01*
X165593640Y-91176309D01*
X166198078Y-91094165D01*
X166797245Y-90997883D01*
X167391948Y-90882004D01*
X167687877Y-90815011D01*
X167982992Y-90741072D01*
X168277393Y-90659507D01*
X168571183Y-90569631D01*
X168864460Y-90470764D01*
X169157326Y-90362222D01*
X168885314Y-90301920D01*
X168621812Y-90238482D01*
X168366652Y-90171005D01*
X168119662Y-90098587D01*
X167880671Y-90020324D01*
X167649510Y-89935314D01*
X167426007Y-89842653D01*
X167209992Y-89741439D01*
X167001294Y-89630767D01*
X166799743Y-89509737D01*
X166605169Y-89377443D01*
X166417400Y-89232984D01*
X166236267Y-89075455D01*
X166061598Y-88903956D01*
X165893223Y-88717581D01*
X165730972Y-88515428D01*
X165720843Y-88500584D01*
X165711304Y-88483922D01*
X165702370Y-88465582D01*
X165694058Y-88445700D01*
X165679363Y-88401858D01*
X165667346Y-88353492D01*
X165658134Y-88301701D01*
X165651857Y-88247580D01*
X165648642Y-88192227D01*
X165648617Y-88136739D01*
X165651909Y-88082211D01*
X165658647Y-88029742D01*
X165668959Y-87980427D01*
X165675494Y-87957296D01*
X165682972Y-87935364D01*
X165691406Y-87914770D01*
X165700814Y-87895650D01*
X165711211Y-87878141D01*
X165722613Y-87862381D01*
X165735037Y-87848506D01*
X165748498Y-87836654D01*
X165763012Y-87826962D01*
X165778595Y-87819567D01*
X165826378Y-87803698D01*
X165873561Y-87793139D01*
X165920257Y-87787647D01*
X165966578Y-87786981D01*
X166012637Y-87790900D01*
X166058548Y-87799163D01*
X166104423Y-87811528D01*
X166150374Y-87827755D01*
X166196516Y-87847601D01*
X166242961Y-87870826D01*
X166337210Y-87926448D01*
X166434024Y-87992688D01*
X166534308Y-88067618D01*
X166748893Y-88235826D01*
X166865001Y-88325243D01*
X166988190Y-88415630D01*
X167119363Y-88505055D01*
X167259423Y-88591589D01*
X167409273Y-88673301D01*
X167488152Y-88711746D01*
X167569817Y-88748262D01*
X167836955Y-88856789D01*
X168109120Y-88955804D01*
X168385696Y-89044789D01*
X168666065Y-89123225D01*
X168949612Y-89190591D01*
X169235721Y-89246368D01*
X169523776Y-89290038D01*
X169813159Y-89321081D01*
X170103256Y-89338977D01*
X170393449Y-89343208D01*
X170683123Y-89333254D01*
X170971661Y-89308595D01*
X171258448Y-89268713D01*
X171542867Y-89213087D01*
X171824301Y-89141199D01*
X172102135Y-89052530D01*
X172260713Y-88991575D01*
X172416029Y-88922193D01*
X172568166Y-88844951D01*
X172717210Y-88760415D01*
X172863247Y-88669150D01*
X173006361Y-88571723D01*
X173146638Y-88468699D01*
X173284164Y-88360644D01*
X173419022Y-88248125D01*
X173551300Y-88131706D01*
X173681081Y-88011954D01*
X173808452Y-87889435D01*
X173933497Y-87764715D01*
X174056302Y-87638359D01*
X174295532Y-87383005D01*
X174170392Y-87339075D01*
X174049062Y-87290242D01*
X173931679Y-87236675D01*
X173818378Y-87178539D01*
X173709296Y-87116002D01*
X173604569Y-87049232D01*
X173504332Y-86978395D01*
X173408723Y-86903658D01*
X173317878Y-86825189D01*
X173231931Y-86743155D01*
X173151021Y-86657723D01*
X173075282Y-86569060D01*
X173004851Y-86477333D01*
X172939863Y-86382709D01*
X172880456Y-86285356D01*
X172826765Y-86185441D01*
X172778927Y-86083130D01*
X172737077Y-85978591D01*
X172701351Y-85871992D01*
X172671886Y-85763498D01*
X172648819Y-85653278D01*
X172632284Y-85541498D01*
X172622418Y-85428326D01*
X172619358Y-85313929D01*
X172623239Y-85198473D01*
X172634197Y-85082126D01*
X172652370Y-84965056D01*
X172677892Y-84847429D01*
X172710900Y-84729412D01*
X172751530Y-84611173D01*
X172799918Y-84492879D01*
X172856201Y-84374697D01*
X172926006Y-84392885D01*
X172998359Y-84418257D01*
X173073051Y-84450183D01*
X173149870Y-84488033D01*
X173309047Y-84578986D01*
X173474205Y-84686077D01*
X174160920Y-85175058D01*
X174330691Y-85287265D01*
X174496326Y-85385380D01*
X174577066Y-85427579D01*
X174656140Y-85464365D01*
X174733337Y-85495108D01*
X174808447Y-85519180D01*
X174881258Y-85535950D01*
X174951561Y-85544788D01*
X175019144Y-85545065D01*
X175083796Y-85536150D01*
X175145306Y-85517414D01*
X175203465Y-85488228D01*
X175258061Y-85447960D01*
X175308884Y-85395983D01*
X175373454Y-85297964D01*
X175419948Y-85180853D01*
X175449299Y-85045897D01*
X175462436Y-84894344D01*
X175460291Y-84727442D01*
X175443795Y-84546436D01*
X175371476Y-84147109D01*
X175252926Y-83706342D01*
X175095596Y-83234116D01*
X174906935Y-82740411D01*
X174694391Y-82235206D01*
X174465415Y-81728482D01*
X174227454Y-81230219D01*
X173754376Y-80298994D01*
X173334753Y-79521371D01*
X173028175Y-78977190D01*
X171668213Y-76617105D01*
X171321815Y-76026915D01*
X170968720Y-75450584D01*
X170605207Y-74887586D01*
X170227556Y-74337393D01*
X170032266Y-74066933D01*
X169832046Y-73799478D01*
X169626431Y-73534960D01*
X169414956Y-73273313D01*
X169197155Y-73014473D01*
X168972565Y-72758373D01*
X168740719Y-72504947D01*
X168501152Y-72254129D01*
X167864002Y-71630021D01*
X167202424Y-71037904D01*
X166517475Y-70478203D01*
X165810214Y-69951345D01*
X165081698Y-69457756D01*
X164332985Y-68997863D01*
X163565135Y-68572092D01*
X162779204Y-68180869D01*
X161976252Y-67824621D01*
X161157335Y-67503774D01*
X160323512Y-67218754D01*
X159475842Y-66969988D01*
X158615381Y-66757901D01*
X157743189Y-66582922D01*
X156860323Y-66445475D01*
X155967842Y-66345987D01*
X155903104Y-67160531D01*
X155848689Y-67739249D01*
X155811981Y-68044435D01*
X155767422Y-68349873D01*
X155713870Y-68647839D01*
X155650188Y-68930608D01*
X155575234Y-69190456D01*
X155533175Y-69309370D01*
X155487871Y-69419658D01*
X155439179Y-69520353D01*
X155386957Y-69610491D01*
X155331063Y-69689105D01*
X155271354Y-69755230D01*
X155207689Y-69807900D01*
X155139923Y-69846150D01*
X155067916Y-69869015D01*
X154991524Y-69875528D01*
X154894074Y-69566605D01*
X154805739Y-69262023D01*
X154725961Y-68960417D01*
X154654182Y-68660424D01*
X154589843Y-68360680D01*
X154532389Y-68059820D01*
X154481259Y-67756480D01*
X154435898Y-67449297D01*
X154301613Y-66631149D01*
X154130183Y-65839880D01*
X153921980Y-65074400D01*
X153677376Y-64333620D01*
X153396742Y-63616451D01*
X153080452Y-62921804D01*
X152728877Y-62248590D01*
X152342389Y-61595720D01*
X151921361Y-60962105D01*
X151637680Y-60578554D01*
X154783149Y-60578554D01*
X154784904Y-60693533D01*
X154793092Y-60807911D01*
X154807729Y-60921390D01*
X154828831Y-61033671D01*
X154856413Y-61144455D01*
X154890491Y-61253446D01*
X154931081Y-61360343D01*
X154978197Y-61464848D01*
X155031855Y-61566664D01*
X155092072Y-61665491D01*
X155240907Y-61959779D01*
X155378859Y-62251214D01*
X155507447Y-62542648D01*
X155628189Y-62836935D01*
X155742606Y-63136927D01*
X155852216Y-63445476D01*
X155958539Y-63765435D01*
X156063095Y-64099657D01*
X156065743Y-64099657D01*
X159391556Y-64636766D01*
X159412924Y-64386878D01*
X159423157Y-64131674D01*
X159411447Y-63607435D01*
X159358879Y-63068282D01*
X159267906Y-62518447D01*
X159140982Y-61962163D01*
X158980559Y-61403662D01*
X158789092Y-60847177D01*
X158569034Y-60296939D01*
X158322837Y-59757181D01*
X158052956Y-59232135D01*
X157761843Y-58726034D01*
X157451953Y-58243111D01*
X157125738Y-57787596D01*
X156785651Y-57363723D01*
X156434146Y-56975725D01*
X156073677Y-56627832D01*
X154906868Y-59892786D01*
X154906860Y-59892778D01*
X154870339Y-60005094D01*
X154840158Y-60118600D01*
X154816333Y-60232997D01*
X154798879Y-60347988D01*
X154787813Y-60463273D01*
X154783149Y-60578554D01*
X151637680Y-60578554D01*
X151466164Y-60346655D01*
X150977170Y-59748281D01*
X150454752Y-59165895D01*
X149899281Y-58598407D01*
X149311131Y-58044729D01*
X148690672Y-57503770D01*
X148038277Y-56974443D01*
X147716107Y-57746082D01*
X147417137Y-58512803D01*
X147144042Y-59275516D01*
X146899495Y-60035133D01*
X146686171Y-60792564D01*
X146506744Y-61548720D01*
X146363889Y-62304511D01*
X146260279Y-63060849D01*
X146198589Y-63818644D01*
X146181493Y-64578807D01*
X146211666Y-65342249D01*
X146291781Y-66109881D01*
X146424513Y-66882613D01*
X146612536Y-67661356D01*
X146858525Y-68447021D01*
X147165154Y-69240518D01*
X148458969Y-72293817D01*
X148527233Y-72462626D01*
X148588328Y-72628541D01*
X148642510Y-72791272D01*
X148690037Y-72950529D01*
X148731164Y-73106024D01*
X148766150Y-73257465D01*
X148795251Y-73404563D01*
X148818723Y-73547029D01*
X148836823Y-73684573D01*
X148849808Y-73816905D01*
X148857934Y-73943736D01*
X148861460Y-74064775D01*
X148860640Y-74179734D01*
X148855733Y-74288321D01*
X148846994Y-74390248D01*
X148834682Y-74485226D01*
X148819051Y-74572963D01*
X148800360Y-74653170D01*
X148778864Y-74725559D01*
X148754821Y-74789838D01*
X148728488Y-74845718D01*
X148700120Y-74892911D01*
X148669976Y-74931124D01*
X148638311Y-74960070D01*
X148605383Y-74979459D01*
X148571448Y-74989000D01*
X148536763Y-74988404D01*
X148501585Y-74977381D01*
X148466171Y-74955642D01*
X148430777Y-74922897D01*
X148395660Y-74878856D01*
X148361076Y-74823229D01*
X148099396Y-74358683D01*
X147821903Y-73881022D01*
X147530892Y-73394990D01*
X147228657Y-72905330D01*
X146917492Y-72416788D01*
X146599693Y-71934105D01*
X146277554Y-71462027D01*
X145953369Y-71005296D01*
X145758049Y-71274943D01*
X145572992Y-71539754D01*
X145398290Y-71802085D01*
X145234037Y-72064293D01*
X145080325Y-72328732D01*
X145007452Y-72462526D01*
X144937249Y-72597760D01*
X144869728Y-72734731D01*
X144804900Y-72873733D01*
X144742778Y-73015060D01*
X144683373Y-73159006D01*
X142754555Y-77995592D01*
X142613236Y-78339603D01*
X142465866Y-78678967D01*
X142312102Y-79013501D01*
X142151597Y-79343024D01*
X141984008Y-79667353D01*
X141808988Y-79986306D01*
X141626194Y-80299702D01*
X141435280Y-80607358D01*
X141235901Y-80909091D01*
X141027713Y-81204721D01*
X140810370Y-81494064D01*
X140583528Y-81776939D01*
X140346841Y-82053163D01*
X140099965Y-82322555D01*
X139842554Y-82584932D01*
X139574265Y-82840112D01*
X138798606Y-83511138D01*
X138020867Y-84106117D01*
X137240205Y-84633589D01*
X136455779Y-85102091D01*
X135666750Y-85520163D01*
X134872275Y-85896342D01*
X134071513Y-86239166D01*
X133263624Y-86557174D01*
X129943973Y-87751810D01*
X129087832Y-88073811D01*
X128219516Y-88422225D01*
X127338186Y-88805591D01*
X126443001Y-89232446D01*
X125550378Y-89699958D01*
X124677808Y-90199250D01*
X123826058Y-90729796D01*
X122995895Y-91291069D01*
X122188088Y-91882542D01*
X121403404Y-92503687D01*
X120642609Y-93153978D01*
X119906472Y-93832887D01*
X119195760Y-94539888D01*
X118511240Y-95274453D01*
X117853679Y-96036055D01*
X117223845Y-96824167D01*
X116622506Y-97638261D01*
X116050428Y-98477812D01*
X115508380Y-99342291D01*
X114997128Y-100231172D01*
X114000400Y-102208064D01*
X113151050Y-104240510D01*
X112448622Y-106319698D01*
X111892657Y-108436813D01*
X111482699Y-110583043D01*
X111218290Y-112749573D01*
X111098974Y-114927591D01*
X90653644Y-114927591D01*
X90561598Y-114403696D01*
X90402333Y-113268251D01*
X90282283Y-112128519D01*
X90201358Y-110985481D01*
X90159470Y-109840118D01*
X90156529Y-108693409D01*
X90192446Y-107546337D01*
X90267132Y-106399880D01*
X90380498Y-105255021D01*
X90532454Y-104112739D01*
X90722912Y-102974015D01*
X90951782Y-101839830D01*
X91143755Y-101014599D01*
X91356218Y-100198673D01*
X91588703Y-99391809D01*
X91840741Y-98593763D01*
X92111863Y-97804289D01*
X92401601Y-97023145D01*
X92709484Y-96250085D01*
X93035045Y-95484866D01*
X93377814Y-94727243D01*
X93737323Y-93976973D01*
X94113102Y-93233811D01*
X94504682Y-92497513D01*
X94911595Y-91767834D01*
X95333371Y-91044531D01*
X96219639Y-89616075D01*
X96716620Y-88860839D01*
X97220920Y-88122377D01*
X97731916Y-87396628D01*
X98248991Y-86679529D01*
X100365658Y-83816408D01*
X101031814Y-82891710D01*
X101701845Y-81910581D01*
X102356560Y-80883562D01*
X102672176Y-80356139D01*
X102976765Y-79821196D01*
X103267928Y-79280053D01*
X103543268Y-78734026D01*
X103800383Y-78184434D01*
X104036876Y-77632593D01*
X104250347Y-77079823D01*
X104438397Y-76527440D01*
X104598627Y-75976763D01*
X104728638Y-75429109D01*
X104808735Y-74980912D01*
X104862408Y-74531242D01*
X104889524Y-74081541D01*
X104889951Y-73633250D01*
X104863559Y-73187813D01*
X104810215Y-72746669D01*
X104729787Y-72311262D01*
X104622144Y-71883033D01*
X104487153Y-71463423D01*
X104324684Y-71053875D01*
X104134604Y-70655829D01*
X103916781Y-70270729D01*
X103671085Y-69900015D01*
X103397382Y-69545130D01*
X103095541Y-69207516D01*
X102934028Y-69045635D01*
X102765431Y-68888613D01*
X102557054Y-68710923D01*
X102341570Y-68545480D01*
X102119528Y-68392313D01*
X101891479Y-68251452D01*
X101657972Y-68122928D01*
X101419559Y-68006770D01*
X101176790Y-67903009D01*
X100930214Y-67811675D01*
X100680383Y-67732797D01*
X100427847Y-67666405D01*
X100173156Y-67612531D01*
X99916860Y-67571203D01*
X99659510Y-67542452D01*
X99401656Y-67526308D01*
X99143849Y-67522800D01*
X98886638Y-67531959D01*
X98630575Y-67553816D01*
X98376209Y-67588399D01*
X98124091Y-67635739D01*
X97874772Y-67695866D01*
X97628801Y-67768811D01*
X97386729Y-67854602D01*
X97149107Y-67953270D01*
X96916484Y-68064846D01*
X96689411Y-68189359D01*
X96468439Y-68326839D01*
X96254117Y-68477317D01*
X96046996Y-68640821D01*
X95847628Y-68817383D01*
X95656560Y-69007033D01*
X95474345Y-69209800D01*
X95301533Y-69425714D01*
X95073914Y-69754569D01*
X94875973Y-70097113D01*
X94707308Y-70451719D01*
X94567521Y-70816758D01*
X94456214Y-71190603D01*
X94372986Y-71571626D01*
X94317438Y-71958200D01*
X94289172Y-72348696D01*
X94287788Y-72741486D01*
X94312887Y-73134943D01*
X94364069Y-73527439D01*
X94440936Y-73917346D01*
X94543089Y-74303036D01*
X94670127Y-74682881D01*
X94821652Y-75055255D01*
X94997265Y-75418527D01*
X95176507Y-75731762D01*
X95377872Y-76030195D01*
X95599856Y-76313350D01*
X95840955Y-76580751D01*
X96099665Y-76831920D01*
X96374483Y-77066381D01*
X96663904Y-77283657D01*
X96966426Y-77483271D01*
X97280544Y-77664747D01*
X97604754Y-77827608D01*
X97937553Y-77971377D01*
X98277436Y-78095577D01*
X98622900Y-78199732D01*
X98972442Y-78283364D01*
X99324557Y-78345998D01*
X99677742Y-78387155D01*
X99899206Y-78404601D01*
X100009024Y-78415338D01*
X100062307Y-78421889D01*
X100113974Y-78429487D01*
X100163626Y-78438325D01*
X100210863Y-78448597D01*
X100255286Y-78460496D01*
X100296496Y-78474218D01*
X100334094Y-78489954D01*
X100351414Y-78498639D01*
X100367681Y-78507900D01*
X100382845Y-78517762D01*
X100396857Y-78528249D01*
X100409666Y-78539385D01*
X100421223Y-78551195D01*
X100477845Y-78624375D01*
X100520148Y-78699891D01*
X100548772Y-78777505D01*
X100564356Y-78856979D01*
X100567542Y-78938074D01*
X100558970Y-79020554D01*
X100539280Y-79104180D01*
X100509114Y-79188714D01*
X100469110Y-79273919D01*
X100419911Y-79359557D01*
X100362156Y-79445389D01*
X100296486Y-79531178D01*
X100143961Y-79701676D01*
X99967461Y-79869146D01*
X99772110Y-80031687D01*
X99563030Y-80187395D01*
X99345347Y-80334367D01*
X99124183Y-80470700D01*
X98904663Y-80594491D01*
X98691909Y-80703837D01*
X98491046Y-80796836D01*
X98307198Y-80871584D01*
X97717253Y-81076977D01*
X97123734Y-81252851D01*
X96527502Y-81399546D01*
X95929415Y-81517400D01*
X95330334Y-81606755D01*
X94731119Y-81667949D01*
X94132630Y-81701322D01*
X93535726Y-81707214D01*
X92941268Y-81685963D01*
X92350116Y-81637911D01*
X91763129Y-81563396D01*
X91181167Y-81462758D01*
X90605091Y-81336337D01*
X90035760Y-81184472D01*
X89474034Y-81007503D01*
X88920773Y-80805770D01*
X88376837Y-80579611D01*
X87843086Y-80329368D01*
X87320380Y-80055378D01*
X86809579Y-79757983D01*
X86311542Y-79437521D01*
X85827131Y-79094333D01*
X85357203Y-78728757D01*
X84902621Y-78341133D01*
X84464242Y-77931802D01*
X84042929Y-77501102D01*
X83639539Y-77049373D01*
X83254933Y-76576955D01*
X82889972Y-76084188D01*
X82545515Y-75571410D01*
X82222422Y-75038963D01*
X81921553Y-74487184D01*
X81602504Y-73832189D01*
X81314809Y-73165645D01*
X81058059Y-72488547D01*
X80831842Y-71801888D01*
X80635746Y-71106661D01*
X80469362Y-70403861D01*
X80224085Y-68979514D01*
X80092724Y-67536795D01*
X80071991Y-66083655D01*
X80158600Y-64628042D01*
X80349266Y-63177906D01*
X80640700Y-61741195D01*
X81029617Y-60325859D01*
X81512729Y-58939846D01*
X82086751Y-57591107D01*
X82748395Y-56287589D01*
X83494375Y-55037243D01*
X84321404Y-53848017D01*
X85226196Y-52727861D01*
X86040065Y-51840309D01*
X86894648Y-50999393D01*
X87787686Y-50205242D01*
X88716920Y-49457983D01*
X89680089Y-48757745D01*
X90674935Y-48104655D01*
X91699198Y-47498841D01*
X92750618Y-46940431D01*
X93826935Y-46429554D01*
X94925891Y-45966336D01*
X96045225Y-45550905D01*
X97182678Y-45183391D01*
X98335990Y-44863920D01*
X99502903Y-44592620D01*
X100681155Y-44369620D01*
X101868488Y-44195047D01*
X103155223Y-44061287D01*
X104440538Y-43984321D01*
X105722707Y-43963957D01*
X107000000Y-44000000D01*
G37*
G36*
X128317122Y-91654782D02*
G01*
X128381579Y-91670300D01*
X128435303Y-91695696D01*
X128477246Y-91727649D01*
X128507269Y-91762340D01*
X128526024Y-91799545D01*
X128534164Y-91839041D01*
X128532342Y-91880605D01*
X128521209Y-91924014D01*
X128501419Y-91969043D01*
X128473625Y-92015470D01*
X128438477Y-92063071D01*
X128396631Y-92111624D01*
X128295448Y-92210688D01*
X128175298Y-92310876D01*
X128041401Y-92410401D01*
X127898977Y-92507477D01*
X127753247Y-92600317D01*
X127472752Y-92766141D01*
X127101799Y-92968340D01*
X126351276Y-93394612D01*
X125620131Y-93848432D01*
X124908955Y-94329073D01*
X124218335Y-94835805D01*
X123548862Y-95367900D01*
X122901123Y-95924629D01*
X122275709Y-96505263D01*
X121673209Y-97109074D01*
X121094211Y-97735334D01*
X120539304Y-98383313D01*
X120009078Y-99052283D01*
X119504122Y-99741515D01*
X119025024Y-100450281D01*
X118572375Y-101177852D01*
X118146762Y-101923499D01*
X117748776Y-102686495D01*
X117000964Y-104305715D01*
X116355022Y-105954658D01*
X115811058Y-107628880D01*
X115369181Y-109323933D01*
X115029499Y-111035374D01*
X114792121Y-112758756D01*
X114657155Y-114489634D01*
X114624710Y-116223562D01*
X114694895Y-117956095D01*
X114867817Y-119682788D01*
X115143586Y-121399194D01*
X115522309Y-123100869D01*
X116004096Y-124783367D01*
X116589056Y-126442242D01*
X117277295Y-128073049D01*
X118068924Y-129671343D01*
X118071568Y-129671343D01*
X117980844Y-129788761D01*
X117885587Y-129867176D01*
X117786255Y-129908819D01*
X117683308Y-129915925D01*
X117577204Y-129890727D01*
X117468402Y-129835458D01*
X117357361Y-129752351D01*
X117244540Y-129643641D01*
X117130396Y-129511560D01*
X117015390Y-129358341D01*
X116784625Y-128997427D01*
X116555913Y-128578764D01*
X116332926Y-128120220D01*
X116119334Y-127639662D01*
X115918807Y-127154958D01*
X115571629Y-126244576D01*
X115195549Y-125160204D01*
X114858523Y-124101972D01*
X114563744Y-123028978D01*
X114311119Y-121943078D01*
X114100557Y-120846128D01*
X113931964Y-119739985D01*
X113805250Y-118626505D01*
X113720323Y-117507545D01*
X113677089Y-116384961D01*
X113715336Y-114136349D01*
X113919255Y-111895518D01*
X114083112Y-110782663D01*
X114288110Y-109677323D01*
X114534158Y-108581354D01*
X114821164Y-107496613D01*
X115149036Y-106424957D01*
X115517681Y-105368242D01*
X115927008Y-104328324D01*
X116376924Y-103307060D01*
X116867338Y-102306307D01*
X117398158Y-101327920D01*
X117969291Y-100373757D01*
X118580645Y-99445674D01*
X119232128Y-98545527D01*
X119923649Y-97675173D01*
X120655115Y-96836467D01*
X121426434Y-96031268D01*
X122237515Y-95261431D01*
X123088264Y-94528812D01*
X123978590Y-93835269D01*
X124908402Y-93182657D01*
X125196142Y-93001345D01*
X125618355Y-92751633D01*
X126129678Y-92467071D01*
X126684750Y-92181207D01*
X126964516Y-92048270D01*
X127238210Y-91927588D01*
X127500160Y-91823356D01*
X127744696Y-91739765D01*
X127966149Y-91681010D01*
X128066447Y-91662257D01*
X128158848Y-91651285D01*
X128242642Y-91648618D01*
X128317122Y-91654782D01*
G37*
M02*
