%TF.GenerationSoftware,KiCad,Pcbnew,9.0.7*%
%TF.CreationDate,2026-05-17T21:17:37+02:00*%
%TF.ProjectId,hochzeits-pcb,686f6368-7a65-4697-9473-2d7063622e6b,rev?*%
%TF.SameCoordinates,Original*%
%TF.FileFunction,Soldermask,Top*%
%TF.FilePolarity,Negative*%
%FSLAX46Y46*%
G04 Gerber Fmt 4.6, Leading zero omitted, Abs format (unit mm)*
G04 Created by KiCad (PCBNEW 9.0.7) date 2026-05-17 21:17:37*
%MOMM*%
%LPD*%
G01*
G04 APERTURE LIST*
G04 Aperture macros list*
%AMRoundRect*
0 Rectangle with rounded corners*
0 $1 Rounding radius*
0 $2 $3 $4 $5 $6 $7 $8 $9 X,Y pos of 4 corners*
0 Add a 4 corners polygon primitive as box body*
4,1,4,$2,$3,$4,$5,$6,$7,$8,$9,$2,$3,0*
0 Add four circle primitives for the rounded corners*
1,1,$1+$1,$2,$3*
1,1,$1+$1,$4,$5*
1,1,$1+$1,$6,$7*
1,1,$1+$1,$8,$9*
0 Add four rect primitives between the rounded corners*
20,1,$1+$1,$2,$3,$4,$5,0*
20,1,$1+$1,$4,$5,$6,$7,0*
20,1,$1+$1,$6,$7,$8,$9,0*
20,1,$1+$1,$8,$9,$2,$3,0*%
G04 Aperture macros list end*
%ADD10C,0.000000*%
%ADD11RoundRect,0.250001X-1.074999X-2.324999X1.074999X-2.324999X1.074999X2.324999X-1.074999X2.324999X0*%
%ADD12RoundRect,0.500000X1.500000X0.500000X-1.500000X0.500000X-1.500000X-0.500000X1.500000X-0.500000X0*%
%ADD13R,3.600000X5.000000*%
G04 APERTURE END LIST*
D10*
G36*
X186264671Y-107329622D02*
G01*
X186329334Y-107553647D01*
X186387245Y-107777076D01*
X186438471Y-108000074D01*
X186483076Y-108222809D01*
X186521128Y-108445447D01*
X186552691Y-108668156D01*
X186577832Y-108891100D01*
X186596617Y-109114448D01*
X186609111Y-109338365D01*
X186615381Y-109563018D01*
X186615492Y-109788575D01*
X186609511Y-110015201D01*
X186597503Y-110243063D01*
X186579534Y-110472327D01*
X186555670Y-110703161D01*
X185650794Y-111346106D01*
X182388480Y-109565466D01*
X182386799Y-109526777D01*
X182387647Y-109489099D01*
X182390933Y-109452435D01*
X182396568Y-109416787D01*
X182404461Y-109382159D01*
X182414520Y-109348553D01*
X182426656Y-109315973D01*
X182440778Y-109284420D01*
X182456795Y-109253899D01*
X182474616Y-109224412D01*
X182494152Y-109195961D01*
X182515311Y-109168550D01*
X182538003Y-109142182D01*
X182562137Y-109116860D01*
X182587622Y-109092586D01*
X182614369Y-109069363D01*
X182671283Y-109026083D01*
X182732155Y-108987043D01*
X182796259Y-108952267D01*
X182862870Y-108921777D01*
X182931265Y-108895596D01*
X183000718Y-108873749D01*
X183070504Y-108856258D01*
X183139899Y-108843146D01*
X183367432Y-108801124D01*
X183588842Y-108749569D01*
X183804392Y-108688618D01*
X184014346Y-108618413D01*
X184218967Y-108539092D01*
X184418518Y-108450794D01*
X184613264Y-108353661D01*
X184803467Y-108247830D01*
X184989392Y-108133441D01*
X185171301Y-108010635D01*
X185349458Y-107879550D01*
X185524127Y-107740326D01*
X185695572Y-107593103D01*
X185864054Y-107438021D01*
X186029839Y-107275217D01*
X186193190Y-107104834D01*
X186264671Y-107329622D01*
G37*
G36*
X172875909Y-96671878D02*
G01*
X172877397Y-96810572D01*
X172881547Y-96946689D01*
X172888751Y-97080278D01*
X172899400Y-97211391D01*
X172913887Y-97340078D01*
X172932602Y-97466389D01*
X172955936Y-97590374D01*
X172984282Y-97712085D01*
X173018032Y-97831570D01*
X173057575Y-97948881D01*
X173103304Y-98064069D01*
X173155611Y-98177182D01*
X173214887Y-98288273D01*
X173281523Y-98397391D01*
X173278876Y-98400030D01*
X171106642Y-99791746D01*
X171021869Y-99843995D01*
X170937316Y-99892116D01*
X170853143Y-99935392D01*
X170769508Y-99973106D01*
X170686571Y-100004542D01*
X170645414Y-100017681D01*
X170604490Y-100028982D01*
X170563821Y-100038355D01*
X170523425Y-100045710D01*
X170483322Y-100050957D01*
X170443534Y-100054008D01*
X170404078Y-100054771D01*
X170364976Y-100053159D01*
X170326246Y-100049081D01*
X170287910Y-100042447D01*
X170249986Y-100033168D01*
X170212495Y-100021154D01*
X170175457Y-100006316D01*
X170138891Y-99988564D01*
X170102817Y-99967808D01*
X170067255Y-99943959D01*
X170032225Y-99916927D01*
X169997747Y-99886622D01*
X169963841Y-99852956D01*
X169930527Y-99815837D01*
X169897824Y-99775177D01*
X169865752Y-99730887D01*
X169794587Y-99619620D01*
X169729890Y-99503407D01*
X169671619Y-99382699D01*
X169619731Y-99257944D01*
X169574184Y-99129593D01*
X169534935Y-98998095D01*
X169501942Y-98863899D01*
X169475161Y-98727455D01*
X169454551Y-98589213D01*
X169440068Y-98449622D01*
X169431669Y-98309133D01*
X169429314Y-98168193D01*
X169432957Y-98027253D01*
X169442558Y-97886764D01*
X169458073Y-97747173D01*
X169479460Y-97608931D01*
X169715654Y-97578809D01*
X169946336Y-97540347D01*
X170172011Y-97494009D01*
X170393182Y-97440260D01*
X170610354Y-97379567D01*
X170824029Y-97312393D01*
X171034713Y-97239204D01*
X171242908Y-97160464D01*
X171449119Y-97076640D01*
X171653849Y-96988196D01*
X172060884Y-96799308D01*
X172468042Y-96597521D01*
X172879355Y-96386557D01*
X172875909Y-96671878D01*
G37*
G36*
X180192425Y-97214232D02*
G01*
X180245088Y-97217908D01*
X180297240Y-97223643D01*
X180348834Y-97231488D01*
X180399819Y-97241491D01*
X180450145Y-97253704D01*
X180499762Y-97268176D01*
X180548621Y-97284957D01*
X180596670Y-97304097D01*
X180643862Y-97325646D01*
X180690145Y-97349653D01*
X180735469Y-97376169D01*
X180779786Y-97405243D01*
X180823044Y-97436926D01*
X180865194Y-97471267D01*
X180906187Y-97508316D01*
X180945971Y-97548123D01*
X180984498Y-97590738D01*
X181021717Y-97636211D01*
X181057578Y-97684591D01*
X181092032Y-97735930D01*
X181782591Y-98823370D01*
X181696437Y-98915770D01*
X181599364Y-99011290D01*
X181492361Y-99108275D01*
X181376417Y-99205070D01*
X181252520Y-99300021D01*
X181121658Y-99391472D01*
X180984819Y-99477768D01*
X180842992Y-99557255D01*
X180697166Y-99628277D01*
X180548328Y-99689180D01*
X180397467Y-99738308D01*
X180321586Y-99757940D01*
X180245571Y-99774007D01*
X180169544Y-99786304D01*
X180093629Y-99794622D01*
X180017949Y-99798755D01*
X179942628Y-99798497D01*
X179867790Y-99793641D01*
X179793558Y-99783979D01*
X179720055Y-99769304D01*
X179647406Y-99749411D01*
X179647414Y-99749411D01*
X179571834Y-99722975D01*
X179499338Y-99691930D01*
X179429861Y-99656490D01*
X179363338Y-99616866D01*
X179299708Y-99573271D01*
X179238904Y-99525918D01*
X179180864Y-99475020D01*
X179125524Y-99420790D01*
X179072818Y-99363439D01*
X179022685Y-99303181D01*
X178929876Y-99174793D01*
X178846587Y-99037329D01*
X178772304Y-98892490D01*
X178706517Y-98741976D01*
X178648714Y-98587490D01*
X178598383Y-98430732D01*
X178555013Y-98273405D01*
X178518093Y-98117210D01*
X178487109Y-97963848D01*
X178461552Y-97815021D01*
X178440909Y-97672430D01*
X179538932Y-97312597D01*
X179648780Y-97279767D01*
X179758788Y-97252979D01*
X179868555Y-97232632D01*
X179977684Y-97219126D01*
X180085773Y-97212860D01*
X180139304Y-97212566D01*
X180192425Y-97214232D01*
G37*
G36*
X177808547Y-96706701D02*
G01*
X177626851Y-96792564D01*
X177412654Y-96904956D01*
X176907559Y-97183485D01*
X176334871Y-97490601D01*
X176036183Y-97638728D01*
X175736200Y-97774619D01*
X175440124Y-97891814D01*
X175153155Y-97983852D01*
X175014712Y-98018418D01*
X174880496Y-98044272D01*
X174751158Y-98060606D01*
X174627347Y-98066613D01*
X174509714Y-98061484D01*
X174398909Y-98044414D01*
X174295583Y-98014593D01*
X174200385Y-97971215D01*
X174113965Y-97913471D01*
X174036974Y-97840554D01*
X173970061Y-97751657D01*
X173913878Y-97645971D01*
X173870669Y-97540222D01*
X173834239Y-97434357D01*
X173804482Y-97328445D01*
X173781295Y-97222556D01*
X173764573Y-97116760D01*
X173754211Y-97011127D01*
X173750104Y-96905726D01*
X173752148Y-96800628D01*
X173760239Y-96695901D01*
X173774271Y-96591617D01*
X173794140Y-96487844D01*
X173819741Y-96384652D01*
X173850970Y-96282111D01*
X173887722Y-96180292D01*
X173929893Y-96079262D01*
X173977378Y-95979094D01*
X177808547Y-96706701D01*
G37*
G36*
X177579662Y-98049531D02*
G01*
X177609609Y-98227584D01*
X177644757Y-98400094D01*
X177685474Y-98567423D01*
X177732129Y-98729930D01*
X177785090Y-98887977D01*
X177844725Y-99041923D01*
X177911402Y-99192129D01*
X177985490Y-99338956D01*
X178067356Y-99482763D01*
X178157369Y-99623912D01*
X178255897Y-99762762D01*
X178363308Y-99899675D01*
X178479971Y-100035010D01*
X178606252Y-100169128D01*
X178742522Y-100302389D01*
X178742530Y-100302397D01*
X177942453Y-100812420D01*
X177703609Y-100959683D01*
X177455955Y-101105275D01*
X177202852Y-101244410D01*
X176947660Y-101372301D01*
X176693739Y-101484163D01*
X176444450Y-101575208D01*
X176322593Y-101611429D01*
X176203153Y-101640650D01*
X176086551Y-101662274D01*
X175973208Y-101675703D01*
X175863542Y-101680337D01*
X175757975Y-101675580D01*
X175656926Y-101660831D01*
X175560814Y-101635494D01*
X175470062Y-101598969D01*
X175385087Y-101550659D01*
X175306311Y-101489965D01*
X175234152Y-101416289D01*
X175130727Y-101287632D01*
X175035669Y-101154872D01*
X174948851Y-101018306D01*
X174870145Y-100878232D01*
X174799423Y-100734949D01*
X174736556Y-100588756D01*
X174681418Y-100439950D01*
X174633880Y-100288831D01*
X174593815Y-100135696D01*
X174561094Y-99980845D01*
X174535589Y-99824575D01*
X174517173Y-99667185D01*
X174505718Y-99508973D01*
X174501096Y-99350238D01*
X174503179Y-99191279D01*
X174511840Y-99032393D01*
X174713965Y-98985801D01*
X174912796Y-98934504D01*
X175108697Y-98878758D01*
X175302033Y-98818819D01*
X175493168Y-98754942D01*
X175682465Y-98687384D01*
X176057006Y-98542245D01*
X176428571Y-98385449D01*
X176800074Y-98219041D01*
X177554549Y-97865576D01*
X177579662Y-98049531D01*
G37*
G36*
X190857789Y-104287278D02*
G01*
X190969304Y-104444198D01*
X191198034Y-104753752D01*
X191428625Y-105060948D01*
X191654193Y-105369818D01*
X191762942Y-105526140D01*
X191867854Y-105684393D01*
X191968070Y-105845079D01*
X192062727Y-106008703D01*
X192150965Y-106175770D01*
X192231925Y-106346781D01*
X192304746Y-106522243D01*
X192368567Y-106702658D01*
X192382410Y-106755957D01*
X192389894Y-106809598D01*
X192391293Y-106863441D01*
X192386885Y-106917347D01*
X192376944Y-106971178D01*
X192361746Y-107024795D01*
X192341567Y-107078057D01*
X192316682Y-107130827D01*
X192287367Y-107182965D01*
X192253898Y-107234333D01*
X192216551Y-107284790D01*
X192175600Y-107334199D01*
X192131322Y-107382420D01*
X192083993Y-107429314D01*
X191981282Y-107518564D01*
X191869672Y-107600839D01*
X191751369Y-107675025D01*
X191628578Y-107740010D01*
X191503503Y-107794682D01*
X191378351Y-107837928D01*
X191255327Y-107868637D01*
X191195301Y-107878942D01*
X191136635Y-107885695D01*
X191079603Y-107888758D01*
X191024481Y-107887991D01*
X191024481Y-107890631D01*
X190810169Y-107033837D01*
X190706361Y-106625640D01*
X190595856Y-106227396D01*
X190535999Y-106031183D01*
X190471957Y-105836469D01*
X190402891Y-105642926D01*
X190327965Y-105450224D01*
X190246342Y-105258033D01*
X190157185Y-105066024D01*
X190059656Y-104873868D01*
X189952918Y-104681235D01*
X189985930Y-104640316D01*
X190022298Y-104599088D01*
X190061783Y-104557797D01*
X190104143Y-104516694D01*
X190149139Y-104476024D01*
X190196530Y-104436036D01*
X190246077Y-104396979D01*
X190297537Y-104359100D01*
X190350673Y-104322648D01*
X190405242Y-104287870D01*
X190461005Y-104255015D01*
X190517722Y-104224330D01*
X190575152Y-104196063D01*
X190633056Y-104170464D01*
X190691191Y-104147779D01*
X190749320Y-104128256D01*
X190857789Y-104287278D01*
G37*
G36*
X188391360Y-101788198D02*
G01*
X188647861Y-101999572D01*
X188896920Y-102215223D01*
X189138662Y-102435928D01*
X189373211Y-102662462D01*
X189600692Y-102895600D01*
X189711820Y-103014887D01*
X189821227Y-103136116D01*
X189928929Y-103259384D01*
X190034941Y-103384787D01*
X190034949Y-103384787D01*
X190004410Y-103428622D01*
X189971932Y-103468408D01*
X189937668Y-103504235D01*
X189901772Y-103536196D01*
X189864398Y-103564379D01*
X189825698Y-103588876D01*
X189785828Y-103609777D01*
X189744939Y-103627173D01*
X189703186Y-103641155D01*
X189660722Y-103651812D01*
X189617701Y-103659236D01*
X189574277Y-103663518D01*
X189530602Y-103664747D01*
X189486831Y-103663015D01*
X189443118Y-103658411D01*
X189399615Y-103651028D01*
X189356476Y-103640954D01*
X189313856Y-103628282D01*
X189271907Y-103613101D01*
X189230783Y-103595502D01*
X189190637Y-103575575D01*
X189151624Y-103553412D01*
X189113897Y-103529102D01*
X189077608Y-103502737D01*
X189042913Y-103474407D01*
X189009965Y-103444203D01*
X188978916Y-103412215D01*
X188949921Y-103378534D01*
X188923134Y-103343250D01*
X188898707Y-103306454D01*
X188876795Y-103268237D01*
X188857550Y-103228689D01*
X188127295Y-101580328D01*
X188391360Y-101788198D01*
G37*
G36*
X179227297Y-101537020D02*
G01*
X179279954Y-101748663D01*
X179335765Y-101955503D01*
X179395391Y-102157677D01*
X179459488Y-102355320D01*
X179528718Y-102548568D01*
X179603737Y-102737556D01*
X179685206Y-102922419D01*
X179773784Y-103103295D01*
X179870128Y-103280317D01*
X179974898Y-103453623D01*
X180088753Y-103623347D01*
X180212352Y-103789625D01*
X180346353Y-103952593D01*
X180491416Y-104112387D01*
X180163308Y-104428465D01*
X179996616Y-104581095D01*
X179827603Y-104729567D01*
X179655845Y-104873465D01*
X179480921Y-105012375D01*
X179302408Y-105145883D01*
X179119883Y-105273573D01*
X178932925Y-105395031D01*
X178741110Y-105509843D01*
X178544016Y-105617593D01*
X178341222Y-105717867D01*
X178132303Y-105810250D01*
X177916839Y-105894329D01*
X177694407Y-105969687D01*
X177464583Y-106035910D01*
X177307794Y-105847823D01*
X177162528Y-105655736D01*
X177028277Y-105459805D01*
X176904534Y-105260184D01*
X176790789Y-105057028D01*
X176686537Y-104850492D01*
X176591268Y-104640732D01*
X176504476Y-104427902D01*
X176425653Y-104212158D01*
X176354290Y-103993655D01*
X176289880Y-103772547D01*
X176231916Y-103548989D01*
X176179889Y-103323138D01*
X176133293Y-103095147D01*
X176054358Y-102633368D01*
X176263439Y-102578520D01*
X176469160Y-102517294D01*
X176671757Y-102449881D01*
X176871466Y-102376476D01*
X177068525Y-102297274D01*
X177263168Y-102212466D01*
X177455633Y-102122248D01*
X177646157Y-102026814D01*
X177834975Y-101926356D01*
X178022324Y-101821069D01*
X178208441Y-101711146D01*
X178393562Y-101596782D01*
X178761761Y-101355503D01*
X179128813Y-101098784D01*
X179227297Y-101537020D01*
G37*
G36*
X175218986Y-108730495D02*
G01*
X175459182Y-108813987D01*
X175693116Y-108898906D01*
X175923731Y-108986336D01*
X176153975Y-109077363D01*
X176386793Y-109173073D01*
X176625130Y-109274550D01*
X176871932Y-109382879D01*
X175898268Y-112063116D01*
X175883002Y-112107954D01*
X175870026Y-112154055D01*
X175859461Y-112201257D01*
X175851427Y-112249397D01*
X175846044Y-112298313D01*
X175843433Y-112347840D01*
X175843713Y-112397818D01*
X175847005Y-112448082D01*
X175853428Y-112498470D01*
X175863102Y-112548819D01*
X175876149Y-112598967D01*
X175892687Y-112648750D01*
X175912838Y-112698005D01*
X175936720Y-112746570D01*
X175964454Y-112794283D01*
X175996161Y-112840979D01*
X177300559Y-109538992D01*
X177925001Y-109760159D01*
X178542653Y-109991714D01*
X179154166Y-110234618D01*
X179760191Y-110489832D01*
X180361378Y-110758317D01*
X180958380Y-111041033D01*
X181551848Y-111338943D01*
X182142432Y-111653006D01*
X181899594Y-112353500D01*
X181784408Y-112695374D01*
X181674120Y-113036129D01*
X181569289Y-113379116D01*
X181470473Y-113727682D01*
X181378231Y-114085176D01*
X181293120Y-114454947D01*
X181369254Y-114423161D01*
X181441013Y-114388887D01*
X181508580Y-114352228D01*
X181572136Y-114313285D01*
X181631866Y-114272160D01*
X181687951Y-114228954D01*
X181740573Y-114183770D01*
X181789917Y-114136709D01*
X181836163Y-114087872D01*
X181879496Y-114037363D01*
X181920097Y-113985281D01*
X181958150Y-113931730D01*
X182027339Y-113820625D01*
X182088524Y-113704861D01*
X182143168Y-113585252D01*
X182192730Y-113462613D01*
X182282456Y-113211498D01*
X182369391Y-112958028D01*
X182415465Y-112832445D01*
X182465224Y-112708716D01*
X182788016Y-111949362D01*
X185880995Y-113753821D01*
X185034323Y-116201208D01*
X185002014Y-116298141D01*
X184971684Y-116396364D01*
X184943518Y-116495742D01*
X184917697Y-116596139D01*
X184894403Y-116697420D01*
X184873818Y-116799449D01*
X184856124Y-116902091D01*
X184841504Y-117005209D01*
X184830139Y-117108669D01*
X184822213Y-117212334D01*
X184817906Y-117316069D01*
X184817401Y-117419738D01*
X184820881Y-117523206D01*
X184828527Y-117626337D01*
X184840522Y-117728995D01*
X184857047Y-117831045D01*
X185033447Y-117619727D01*
X185190848Y-117405536D01*
X185331149Y-117188578D01*
X185456249Y-116968957D01*
X185568048Y-116746778D01*
X185668444Y-116522146D01*
X185759336Y-116295164D01*
X185842624Y-116065939D01*
X185993984Y-115601175D01*
X186137717Y-115128692D01*
X186289015Y-114649326D01*
X186372249Y-114407324D01*
X186463072Y-114163916D01*
X186580580Y-114230265D01*
X186696085Y-114298323D01*
X186809752Y-114368063D01*
X186921749Y-114439458D01*
X187141400Y-114587103D01*
X187356369Y-114741041D01*
X187567989Y-114901057D01*
X187777594Y-115066932D01*
X187986517Y-115238451D01*
X188196089Y-115415396D01*
X188196105Y-115410116D01*
X188274441Y-115472905D01*
X188359815Y-115534647D01*
X188451019Y-115595909D01*
X188546842Y-115657256D01*
X188747512Y-115782469D01*
X188849940Y-115847467D01*
X188952151Y-115914814D01*
X189052936Y-115985075D01*
X189151085Y-116058817D01*
X189245389Y-116136604D01*
X189334640Y-116219004D01*
X189376992Y-116262110D01*
X189417628Y-116306582D01*
X189456395Y-116352489D01*
X189493143Y-116399903D01*
X189527720Y-116448894D01*
X189559976Y-116499533D01*
X189589760Y-116551891D01*
X189616919Y-116606039D01*
X189266496Y-117807986D01*
X188890679Y-118992043D01*
X188487638Y-120159915D01*
X188055545Y-121313307D01*
X187592569Y-122453925D01*
X187096883Y-123583473D01*
X186566656Y-124703658D01*
X186000060Y-125816183D01*
X185418722Y-126850215D01*
X184800556Y-127821418D01*
X184145137Y-128730276D01*
X183452039Y-129577273D01*
X182720834Y-130362895D01*
X181951096Y-131087625D01*
X181142399Y-131751948D01*
X180294318Y-132356348D01*
X179406425Y-132901311D01*
X178478294Y-133387319D01*
X177509499Y-133814859D01*
X176499613Y-134184414D01*
X175448211Y-134496468D01*
X174354866Y-134751507D01*
X173219151Y-134950014D01*
X172040640Y-135092474D01*
X171589138Y-135142541D01*
X171144736Y-135206778D01*
X170706350Y-135287201D01*
X170489073Y-135334112D01*
X170272894Y-135385824D01*
X170057675Y-135442591D01*
X169843282Y-135504664D01*
X169629579Y-135572294D01*
X169416431Y-135645734D01*
X169203700Y-135725236D01*
X168991253Y-135811052D01*
X168778953Y-135903432D01*
X168566664Y-136002630D01*
X168499554Y-136033620D01*
X168432701Y-136061124D01*
X168366165Y-136085180D01*
X168300002Y-136105821D01*
X168234269Y-136123082D01*
X168169024Y-136136998D01*
X168104323Y-136147604D01*
X168040223Y-136154936D01*
X167976783Y-136159027D01*
X167914059Y-136159913D01*
X167852108Y-136157628D01*
X167790987Y-136152208D01*
X167730754Y-136143687D01*
X167671466Y-136132101D01*
X167613179Y-136117484D01*
X167555952Y-136099871D01*
X167499841Y-136079297D01*
X167444903Y-136055796D01*
X167391195Y-136029405D01*
X167338776Y-136000156D01*
X167287701Y-135968087D01*
X167238029Y-135933231D01*
X167189815Y-135895623D01*
X167143118Y-135855298D01*
X167097995Y-135812291D01*
X167054502Y-135766637D01*
X167012697Y-135718371D01*
X166972638Y-135667527D01*
X166934380Y-135614141D01*
X166897982Y-135558248D01*
X166863500Y-135499882D01*
X166830992Y-135439078D01*
X166729503Y-135243994D01*
X166624441Y-135052542D01*
X166515767Y-134864571D01*
X166403442Y-134679929D01*
X166287428Y-134498465D01*
X166167685Y-134320029D01*
X166096834Y-134219320D01*
X171458548Y-134219320D01*
X171460208Y-134228362D01*
X171464108Y-134236646D01*
X171470116Y-134244192D01*
X171478101Y-134251018D01*
X171487931Y-134257143D01*
X171499474Y-134262584D01*
X171512599Y-134267361D01*
X171527173Y-134271492D01*
X171560142Y-134277888D01*
X171597329Y-134281919D01*
X171637678Y-134283734D01*
X171680135Y-134283480D01*
X171723647Y-134281303D01*
X171767159Y-134277351D01*
X171809616Y-134271772D01*
X171849965Y-134264712D01*
X171887151Y-134256319D01*
X171920121Y-134246741D01*
X171947819Y-134236123D01*
X171969191Y-134224615D01*
X171966551Y-134227255D01*
X172228244Y-134046368D01*
X172482523Y-133860771D01*
X172729414Y-133670284D01*
X172968946Y-133474723D01*
X173201146Y-133273906D01*
X173426040Y-133067652D01*
X173643655Y-132855778D01*
X173854019Y-132638102D01*
X173943827Y-132539221D01*
X176898375Y-132539221D01*
X177343267Y-132371546D01*
X177779466Y-132178969D01*
X178206153Y-131962820D01*
X178622511Y-131724428D01*
X179027723Y-131465123D01*
X179420970Y-131186233D01*
X179801435Y-130889089D01*
X180168299Y-130575020D01*
X180520746Y-130245355D01*
X180857958Y-129901423D01*
X181179116Y-129544553D01*
X181483403Y-129176076D01*
X181770002Y-128797321D01*
X182038094Y-128409616D01*
X182286861Y-128014292D01*
X182515486Y-127612677D01*
X182514156Y-127613999D01*
X182513494Y-127614662D01*
X182512831Y-127615332D01*
X182517179Y-127606518D01*
X182521288Y-127596517D01*
X182528760Y-127573351D01*
X182535193Y-127546628D01*
X182540532Y-127517141D01*
X182544725Y-127485686D01*
X182547716Y-127453057D01*
X182549451Y-127420049D01*
X182549876Y-127387455D01*
X182548936Y-127356071D01*
X182546578Y-127326690D01*
X182542748Y-127300108D01*
X182537390Y-127277118D01*
X182534121Y-127267219D01*
X182530450Y-127258516D01*
X182526371Y-127251108D01*
X182521875Y-127245094D01*
X182516958Y-127240575D01*
X182511611Y-127237649D01*
X182505828Y-127236416D01*
X182499602Y-127236975D01*
X182484633Y-127240708D01*
X182466797Y-127245888D01*
X182424194Y-127260165D01*
X182375143Y-127278971D01*
X182349245Y-127289810D01*
X182322991Y-127301466D01*
X182296799Y-127313836D01*
X182271088Y-127326814D01*
X182246275Y-127340296D01*
X182222781Y-127354177D01*
X182201023Y-127368352D01*
X182181419Y-127382717D01*
X182164389Y-127397166D01*
X182156970Y-127404390D01*
X182150351Y-127411596D01*
X181658858Y-127987940D01*
X181145351Y-128560627D01*
X180610636Y-129124509D01*
X180335577Y-129401541D01*
X180055519Y-129674441D01*
X179770561Y-129942566D01*
X179480805Y-130205273D01*
X179186352Y-130461919D01*
X178887301Y-130711859D01*
X178583755Y-130954452D01*
X178275813Y-131189052D01*
X177963577Y-131415018D01*
X177647147Y-131631704D01*
X177188427Y-132011048D01*
X177138592Y-132060832D01*
X177091807Y-132113714D01*
X177069688Y-132141557D01*
X177048487Y-132170463D01*
X177028255Y-132200530D01*
X177009046Y-132231852D01*
X176990910Y-132264527D01*
X176973900Y-132298651D01*
X176958067Y-132334320D01*
X176943463Y-132371631D01*
X176930140Y-132410680D01*
X176918150Y-132451564D01*
X176907544Y-132494379D01*
X176898375Y-132539221D01*
X173943827Y-132539221D01*
X174057158Y-132414441D01*
X174253101Y-132184615D01*
X174441873Y-131948440D01*
X174623502Y-131705734D01*
X174798014Y-131456315D01*
X174965438Y-131200002D01*
X175125800Y-130936611D01*
X175279128Y-130665960D01*
X175223788Y-130674541D01*
X175170782Y-130685350D01*
X175119962Y-130698321D01*
X175071181Y-130713389D01*
X175024291Y-130730487D01*
X174979146Y-130749550D01*
X174935597Y-130770512D01*
X174893498Y-130793307D01*
X174852701Y-130817868D01*
X174813060Y-130844131D01*
X174774426Y-130872029D01*
X174736652Y-130901497D01*
X174699592Y-130932468D01*
X174663097Y-130964877D01*
X174627021Y-130998657D01*
X174591216Y-131033743D01*
X174232537Y-131387122D01*
X173867906Y-131738484D01*
X173498812Y-132087302D01*
X173126742Y-132433050D01*
X172379627Y-133113232D01*
X171638465Y-133774817D01*
X171628855Y-133783713D01*
X171619381Y-133793498D01*
X171600891Y-133815509D01*
X171583090Y-133840397D01*
X171566077Y-133867706D01*
X171549947Y-133896985D01*
X171534798Y-133927780D01*
X171520726Y-133959636D01*
X171507828Y-133992102D01*
X171496202Y-134024722D01*
X171485944Y-134057045D01*
X171477150Y-134088615D01*
X171469919Y-134118981D01*
X171464346Y-134147687D01*
X171460529Y-134174282D01*
X171458564Y-134198311D01*
X171458548Y-134219320D01*
X166096834Y-134219320D01*
X166044174Y-134144468D01*
X165916858Y-133971632D01*
X165785697Y-133801370D01*
X165650653Y-133633529D01*
X165511686Y-133467960D01*
X165368758Y-133304511D01*
X165221830Y-133143031D01*
X165070864Y-132983368D01*
X164915820Y-132825371D01*
X164756659Y-132668890D01*
X164104314Y-132023246D01*
X163474385Y-131364331D01*
X162869199Y-130689292D01*
X162576611Y-130344835D01*
X162291080Y-129995278D01*
X162012898Y-129640263D01*
X161742355Y-129279434D01*
X161479741Y-128912435D01*
X161225348Y-128538908D01*
X161005648Y-128199007D01*
X164077425Y-128199007D01*
X164082541Y-128475186D01*
X164099935Y-128748947D01*
X164130910Y-129019608D01*
X164176767Y-129286485D01*
X164238810Y-129548898D01*
X164318339Y-129806163D01*
X164416659Y-130057600D01*
X164473272Y-130180919D01*
X164535070Y-130302526D01*
X164602218Y-130422333D01*
X164674876Y-130540258D01*
X164753209Y-130656214D01*
X164837378Y-130770115D01*
X164927547Y-130881877D01*
X165023879Y-130991415D01*
X165008904Y-130656269D01*
X164962116Y-130090718D01*
X164886679Y-129383097D01*
X164785755Y-128621742D01*
X164726723Y-128248520D01*
X164662506Y-127894990D01*
X164593499Y-127572194D01*
X164520097Y-127291175D01*
X164442694Y-127062974D01*
X164402617Y-126972131D01*
X164361688Y-126898633D01*
X164319957Y-126843861D01*
X164277473Y-126809195D01*
X164234285Y-126796014D01*
X164190444Y-126805700D01*
X164153701Y-127083743D01*
X164122726Y-127362776D01*
X164098820Y-127642120D01*
X164083286Y-127921091D01*
X164077425Y-128199007D01*
X161005648Y-128199007D01*
X160979465Y-128158499D01*
X160742384Y-127770849D01*
X160514396Y-127375602D01*
X160295790Y-126972403D01*
X159825455Y-126013577D01*
X159429178Y-125071979D01*
X159103562Y-124144805D01*
X159015816Y-123833848D01*
X161468859Y-123833848D01*
X161475158Y-124373842D01*
X161503844Y-124910333D01*
X161555691Y-125437999D01*
X161631474Y-125951519D01*
X161731969Y-126445571D01*
X161857950Y-126914833D01*
X162010194Y-127353985D01*
X162189474Y-127757705D01*
X162289496Y-127944616D01*
X162396567Y-128120672D01*
X162396575Y-128120672D01*
X162431156Y-128087675D01*
X162462501Y-128052287D01*
X162490660Y-128014658D01*
X162515683Y-127974941D01*
X162537621Y-127933287D01*
X162556524Y-127889846D01*
X162572443Y-127844769D01*
X162585428Y-127798208D01*
X162595529Y-127750314D01*
X162602797Y-127701238D01*
X162607282Y-127651131D01*
X162609035Y-127600144D01*
X162608105Y-127548428D01*
X162604544Y-127496134D01*
X162598401Y-127443413D01*
X162589728Y-127390417D01*
X162462885Y-126649042D01*
X162354864Y-125917276D01*
X162266624Y-125192330D01*
X162199129Y-124471413D01*
X162153338Y-123751736D01*
X162130213Y-123030508D01*
X162130715Y-122304940D01*
X162155806Y-121572241D01*
X162161226Y-121418896D01*
X162161868Y-121343242D01*
X162160971Y-121268216D01*
X162158415Y-121193779D01*
X162154080Y-121119893D01*
X162147847Y-121046518D01*
X162139594Y-120973616D01*
X162129201Y-120901148D01*
X162116550Y-120829075D01*
X162101518Y-120757360D01*
X162083987Y-120685962D01*
X162063837Y-120614843D01*
X162040946Y-120543966D01*
X162015195Y-120473290D01*
X161986464Y-120402777D01*
X161857764Y-120818299D01*
X161746025Y-121267567D01*
X161652021Y-121745260D01*
X161576527Y-122246055D01*
X161520318Y-122764633D01*
X161484171Y-123295671D01*
X161468859Y-123833848D01*
X159015816Y-123833848D01*
X158845213Y-123229255D01*
X158650737Y-122322526D01*
X158516737Y-121421816D01*
X158439819Y-120524322D01*
X158416587Y-119627243D01*
X158443648Y-118727777D01*
X158517604Y-117823121D01*
X158635062Y-116910474D01*
X158792626Y-115987034D01*
X158986901Y-115049997D01*
X159214492Y-114096563D01*
X159472004Y-113123929D01*
X159756041Y-112129294D01*
X161830374Y-111253515D01*
X161490690Y-112375003D01*
X161142417Y-113592142D01*
X160809460Y-114874828D01*
X160515725Y-116192953D01*
X160391036Y-116855897D01*
X160285118Y-117516411D01*
X160200958Y-118170732D01*
X160141544Y-118815096D01*
X160109865Y-119445740D01*
X160108909Y-120058900D01*
X160141665Y-120650814D01*
X160211119Y-121217718D01*
X160422276Y-119855571D01*
X160671538Y-118527406D01*
X160887115Y-117543577D01*
X163458094Y-117543577D01*
X163462659Y-118001955D01*
X163493341Y-118463400D01*
X163548680Y-118927357D01*
X163627218Y-119393269D01*
X163727497Y-119860580D01*
X163848058Y-120328734D01*
X164144197Y-121265346D01*
X164503967Y-122198656D01*
X164915703Y-123124215D01*
X165367739Y-124037572D01*
X165848410Y-124934279D01*
X166346048Y-125809887D01*
X168272963Y-129012335D01*
X169243987Y-130652746D01*
X169271964Y-130694214D01*
X169305952Y-130734957D01*
X169345452Y-130774498D01*
X169389962Y-130812362D01*
X169438984Y-130848071D01*
X169492017Y-130881148D01*
X169548561Y-130911118D01*
X169608117Y-130937502D01*
X169670184Y-130959825D01*
X169734263Y-130977610D01*
X169799853Y-130990379D01*
X169866455Y-130997657D01*
X169899979Y-130999088D01*
X169933568Y-130998966D01*
X169967160Y-130997234D01*
X170000693Y-130993831D01*
X170034104Y-130988697D01*
X170067330Y-130981773D01*
X170100309Y-130972999D01*
X170132979Y-130962317D01*
X176191939Y-128795370D01*
X176197226Y-128798025D01*
X176867377Y-128547133D01*
X177540446Y-128270859D01*
X178210608Y-127967944D01*
X178872038Y-127637127D01*
X179518911Y-127277149D01*
X180145401Y-126886751D01*
X180745684Y-126464672D01*
X181313933Y-126009653D01*
X181584225Y-125769398D01*
X181844324Y-125520435D01*
X182093503Y-125262607D01*
X182331032Y-124995757D01*
X182556185Y-124719728D01*
X182768232Y-124434361D01*
X182966446Y-124139499D01*
X183150098Y-123834986D01*
X183318460Y-123520663D01*
X183470805Y-123196373D01*
X183515699Y-123085653D01*
X185118987Y-123085653D01*
X185121634Y-123085653D01*
X185202814Y-123028324D01*
X185293399Y-122941007D01*
X185498860Y-122684395D01*
X185730164Y-122331780D01*
X185979459Y-121899127D01*
X186238894Y-121402400D01*
X186500616Y-120857563D01*
X186756772Y-120280581D01*
X186999510Y-119687418D01*
X187220979Y-119094038D01*
X187413325Y-118516405D01*
X187568697Y-117970483D01*
X187679243Y-117472236D01*
X187737109Y-117037630D01*
X187743834Y-116849180D01*
X187734444Y-116682627D01*
X187707959Y-116539966D01*
X187663396Y-116423192D01*
X187599774Y-116334302D01*
X187516112Y-116275290D01*
X187319731Y-116680931D01*
X187136186Y-117085117D01*
X186963680Y-117489119D01*
X186800414Y-117894207D01*
X186644589Y-118301652D01*
X186494407Y-118712725D01*
X186203780Y-119550833D01*
X185576053Y-121279551D01*
X185431525Y-121716768D01*
X185365043Y-121938072D01*
X185303368Y-122161644D01*
X185247211Y-122387835D01*
X185197287Y-122616998D01*
X185154307Y-122849487D01*
X185118987Y-123085653D01*
X183515699Y-123085653D01*
X183606403Y-122861958D01*
X183724527Y-122517262D01*
X183824449Y-122162126D01*
X183905441Y-121796393D01*
X183966774Y-121419906D01*
X184007720Y-121032507D01*
X184006285Y-120735101D01*
X183992893Y-120437707D01*
X183967309Y-120141080D01*
X183929295Y-119845976D01*
X183878615Y-119553152D01*
X183815033Y-119263362D01*
X183738313Y-118977363D01*
X183648217Y-118695910D01*
X183544510Y-118419758D01*
X183426954Y-118149664D01*
X183295315Y-117886384D01*
X183149355Y-117630672D01*
X182988837Y-117383285D01*
X182813527Y-117144979D01*
X182623186Y-116916508D01*
X182417578Y-116698630D01*
X182215531Y-116506430D01*
X182007484Y-116326197D01*
X181793778Y-116157913D01*
X181574752Y-116001563D01*
X181350748Y-115857128D01*
X181122106Y-115724593D01*
X180889167Y-115603939D01*
X180652272Y-115495150D01*
X180411760Y-115398209D01*
X180167973Y-115313100D01*
X179921251Y-115239804D01*
X179671935Y-115178306D01*
X179420364Y-115128588D01*
X179166881Y-115090633D01*
X178911825Y-115064425D01*
X178655537Y-115049946D01*
X178398358Y-115047179D01*
X178140628Y-115056108D01*
X177882687Y-115076716D01*
X177624877Y-115108985D01*
X177367538Y-115152899D01*
X177111010Y-115208440D01*
X176855634Y-115275593D01*
X176601751Y-115354339D01*
X176349701Y-115444661D01*
X176099825Y-115546544D01*
X175852463Y-115659970D01*
X175607956Y-115784921D01*
X175366645Y-115921382D01*
X175128869Y-116069335D01*
X174894971Y-116228763D01*
X174665290Y-116399649D01*
X174586633Y-116099756D01*
X174495270Y-115807003D01*
X174391561Y-115521693D01*
X174275870Y-115244127D01*
X174148557Y-114974610D01*
X174009984Y-114713443D01*
X173860514Y-114460929D01*
X173700508Y-114217373D01*
X173530329Y-113983075D01*
X173350337Y-113758339D01*
X173160896Y-113543468D01*
X172962366Y-113338764D01*
X172755111Y-113144531D01*
X172539491Y-112961070D01*
X172315869Y-112788686D01*
X172084606Y-112627680D01*
X171846064Y-112478356D01*
X171600606Y-112341016D01*
X171348593Y-112215963D01*
X171090388Y-112103500D01*
X170826351Y-112003929D01*
X170556845Y-111917554D01*
X170282232Y-111844677D01*
X170002873Y-111785601D01*
X169719131Y-111740629D01*
X169431368Y-111710064D01*
X169139945Y-111694208D01*
X168845224Y-111693364D01*
X168547567Y-111707835D01*
X168247336Y-111737924D01*
X167944894Y-111783934D01*
X167640601Y-111846167D01*
X167341606Y-111925858D01*
X167051940Y-112024440D01*
X166771754Y-112141021D01*
X166501199Y-112274709D01*
X166240426Y-112424614D01*
X165989587Y-112589843D01*
X165748832Y-112769505D01*
X165518313Y-112962710D01*
X165298181Y-113168564D01*
X165088587Y-113386178D01*
X164889683Y-113614659D01*
X164701619Y-113853116D01*
X164524546Y-114100657D01*
X164358616Y-114356392D01*
X164203980Y-114619429D01*
X164060790Y-114888876D01*
X163878038Y-115317169D01*
X163730152Y-115751866D01*
X163615673Y-116192411D01*
X163533142Y-116638249D01*
X163481102Y-117088823D01*
X163458094Y-117543577D01*
X160887115Y-117543577D01*
X160957076Y-117224292D01*
X161277062Y-115937302D01*
X161629665Y-114657505D01*
X162013057Y-113375971D01*
X162425409Y-112083772D01*
X162864890Y-110771979D01*
X165227622Y-109658072D01*
X165209262Y-109848937D01*
X165179222Y-110032327D01*
X165139336Y-110209321D01*
X165091444Y-110381002D01*
X165037381Y-110548451D01*
X164978985Y-110712749D01*
X164856542Y-111036217D01*
X164738813Y-111360058D01*
X164686308Y-111524821D01*
X164640494Y-111692922D01*
X164603206Y-111865441D01*
X164576282Y-112043461D01*
X164561559Y-112228061D01*
X164559347Y-112323167D01*
X164560874Y-112420324D01*
X164637024Y-112349119D01*
X164709824Y-112274541D01*
X164846113Y-112116030D01*
X164971216Y-111946326D01*
X165086611Y-111766964D01*
X165193773Y-111579479D01*
X165294180Y-111385405D01*
X165389308Y-111186278D01*
X165480633Y-110983631D01*
X165837449Y-110168550D01*
X165931914Y-109971329D01*
X166031437Y-109779798D01*
X166137494Y-109595491D01*
X166251563Y-109419943D01*
X166414728Y-109357655D01*
X166578706Y-109306355D01*
X166743382Y-109265496D01*
X166908640Y-109234531D01*
X167074362Y-109212914D01*
X167240433Y-109200098D01*
X167406737Y-109195538D01*
X167573157Y-109198687D01*
X167739577Y-109208997D01*
X167905881Y-109225924D01*
X168071952Y-109248920D01*
X168237674Y-109277438D01*
X168402932Y-109310933D01*
X168567608Y-109348858D01*
X168894751Y-109435812D01*
X170479598Y-109890890D01*
X170392908Y-110184117D01*
X170375043Y-110252067D01*
X170359840Y-110318346D01*
X170347870Y-110383191D01*
X170339702Y-110446839D01*
X170335906Y-110509525D01*
X170335825Y-110540582D01*
X170337051Y-110571487D01*
X170339655Y-110602270D01*
X170343707Y-110632960D01*
X170349280Y-110663588D01*
X170356445Y-110694182D01*
X170365272Y-110724772D01*
X170375833Y-110755388D01*
X170388199Y-110786058D01*
X170402441Y-110816814D01*
X170418631Y-110847684D01*
X170436839Y-110878698D01*
X170457138Y-110909885D01*
X170479598Y-110941275D01*
X171122534Y-109978186D01*
X171397875Y-110000623D01*
X171669178Y-110009339D01*
X171936310Y-110004258D01*
X172199141Y-109985301D01*
X172457537Y-109952392D01*
X172711368Y-109905453D01*
X172960502Y-109844405D01*
X173204807Y-109769173D01*
X173444151Y-109679678D01*
X173678402Y-109575842D01*
X173907428Y-109457589D01*
X174131099Y-109324840D01*
X174349281Y-109177519D01*
X174561843Y-109015548D01*
X174768653Y-108838849D01*
X174969580Y-108647345D01*
X175218986Y-108730495D01*
G37*
G36*
X182721407Y-100310900D02*
G01*
X182866324Y-100675952D01*
X182943156Y-100854739D01*
X183024480Y-101030649D01*
X183111477Y-101203397D01*
X183205331Y-101372696D01*
X183307223Y-101538259D01*
X183418336Y-101699799D01*
X183539850Y-101857029D01*
X183672949Y-102009663D01*
X183818815Y-102157413D01*
X183978629Y-102299994D01*
X183873090Y-102449114D01*
X183739428Y-102610283D01*
X183581210Y-102778375D01*
X183402002Y-102948261D01*
X183205368Y-103114815D01*
X182994874Y-103272907D01*
X182774087Y-103417411D01*
X182660947Y-103482965D01*
X182546571Y-103543200D01*
X182431405Y-103597473D01*
X182315893Y-103645145D01*
X182200482Y-103685574D01*
X182085618Y-103718119D01*
X181971746Y-103742139D01*
X181859312Y-103756994D01*
X181748761Y-103762043D01*
X181640540Y-103756643D01*
X181535093Y-103740156D01*
X181432868Y-103711939D01*
X181334308Y-103671352D01*
X181239861Y-103617753D01*
X181149972Y-103550503D01*
X181065086Y-103468959D01*
X180985650Y-103372481D01*
X180912108Y-103260428D01*
X180827057Y-103112178D01*
X180745530Y-102962193D01*
X180667513Y-102810595D01*
X180592997Y-102657508D01*
X180521969Y-102503058D01*
X180454417Y-102347367D01*
X180390330Y-102190560D01*
X180329696Y-102032761D01*
X180272504Y-101874093D01*
X180218742Y-101714682D01*
X180121460Y-101394123D01*
X180037759Y-101072076D01*
X179967543Y-100749533D01*
X180143920Y-100724970D01*
X180314309Y-100692187D01*
X180479356Y-100651520D01*
X180639711Y-100603308D01*
X180796019Y-100547886D01*
X180948928Y-100485594D01*
X181099085Y-100416766D01*
X181247138Y-100341742D01*
X181393733Y-100260857D01*
X181539518Y-100174450D01*
X181685141Y-100082856D01*
X181831247Y-99986414D01*
X182127503Y-99780334D01*
X182433463Y-99558905D01*
X182721407Y-100310900D01*
G37*
G36*
X171973111Y-95820798D02*
G01*
X172418701Y-95839996D01*
X172858184Y-95875906D01*
X172808109Y-95921944D01*
X172756976Y-95962181D01*
X172704595Y-95997139D01*
X172650777Y-96027341D01*
X172595330Y-96053310D01*
X172538065Y-96075571D01*
X172478793Y-96094646D01*
X172417324Y-96111057D01*
X172353467Y-96125330D01*
X172287032Y-96137986D01*
X172145672Y-96160542D01*
X171991724Y-96182912D01*
X171823668Y-96209280D01*
X171606807Y-96251124D01*
X171400454Y-96299080D01*
X171204200Y-96351385D01*
X171017640Y-96406274D01*
X170360192Y-96616412D01*
X170215993Y-96657775D01*
X170079046Y-96691141D01*
X169948944Y-96714749D01*
X169886332Y-96722342D01*
X169825279Y-96726834D01*
X169765733Y-96728004D01*
X169707644Y-96725633D01*
X169650961Y-96719499D01*
X169595633Y-96709382D01*
X169541610Y-96695062D01*
X169488839Y-96676318D01*
X169437271Y-96652930D01*
X169386855Y-96624678D01*
X169386847Y-96624678D01*
X169374538Y-96615918D01*
X169362907Y-96605572D01*
X169351953Y-96593726D01*
X169341673Y-96580470D01*
X169332063Y-96565890D01*
X169323120Y-96550074D01*
X169307226Y-96515085D01*
X169293967Y-96476204D01*
X169283321Y-96434134D01*
X169275263Y-96389576D01*
X169269771Y-96343230D01*
X169266822Y-96295800D01*
X169266392Y-96247985D01*
X169268457Y-96200489D01*
X169272996Y-96154011D01*
X169279984Y-96109254D01*
X169289398Y-96066920D01*
X169301216Y-96027709D01*
X169315413Y-95992323D01*
X169743610Y-95935340D01*
X170181139Y-95888185D01*
X170625427Y-95852006D01*
X171073901Y-95827951D01*
X171523987Y-95817165D01*
X171973111Y-95820798D01*
G37*
G36*
X183995829Y-98830636D02*
G01*
X184128162Y-98882251D01*
X184191957Y-98908981D01*
X184253798Y-98936471D01*
X184313407Y-98964829D01*
X184370505Y-98994163D01*
X184424812Y-99024583D01*
X184476050Y-99056196D01*
X186394278Y-100315611D01*
X186394743Y-100348885D01*
X186393690Y-100382212D01*
X186391164Y-100415569D01*
X186387214Y-100448930D01*
X186381886Y-100482271D01*
X186375227Y-100515569D01*
X186358105Y-100581937D01*
X186336223Y-100647839D01*
X186309958Y-100713082D01*
X186279686Y-100777473D01*
X186245782Y-100840817D01*
X186208622Y-100902920D01*
X186168582Y-100963589D01*
X186126039Y-101022630D01*
X186081367Y-101079850D01*
X186034944Y-101135054D01*
X185987145Y-101188048D01*
X185938346Y-101238640D01*
X185888922Y-101286635D01*
X185890246Y-101285310D01*
X185890909Y-101284647D01*
X185891570Y-101283980D01*
X185845094Y-101326265D01*
X185797976Y-101366282D01*
X185750272Y-101403993D01*
X185702038Y-101439361D01*
X185653328Y-101472349D01*
X185604200Y-101502920D01*
X185554708Y-101531039D01*
X185504908Y-101556667D01*
X185454856Y-101579768D01*
X185404608Y-101600306D01*
X185354220Y-101618243D01*
X185303747Y-101633542D01*
X185253244Y-101646167D01*
X185202769Y-101656082D01*
X185152375Y-101663248D01*
X185102120Y-101667629D01*
X185052059Y-101669189D01*
X185002247Y-101667891D01*
X184952740Y-101663697D01*
X184903594Y-101656572D01*
X184854865Y-101646477D01*
X184806608Y-101633377D01*
X184758879Y-101617235D01*
X184711735Y-101598013D01*
X184665229Y-101575674D01*
X184619419Y-101550183D01*
X184574360Y-101521503D01*
X184530108Y-101489595D01*
X184486718Y-101454424D01*
X184444247Y-101415953D01*
X184402749Y-101374145D01*
X184362281Y-101328962D01*
X184270241Y-101218183D01*
X184180729Y-101104265D01*
X184093853Y-100987416D01*
X184009721Y-100867846D01*
X183928442Y-100745764D01*
X183850123Y-100621380D01*
X183774875Y-100494903D01*
X183702804Y-100366542D01*
X183634020Y-100236507D01*
X183568632Y-100105007D01*
X183506747Y-99972251D01*
X183448474Y-99838449D01*
X183393922Y-99703810D01*
X183343200Y-99568544D01*
X183296415Y-99432859D01*
X183253676Y-99296965D01*
X183444174Y-98632857D01*
X183995829Y-98830636D01*
G37*
G36*
X186038569Y-90220456D02*
G01*
X186131399Y-90323799D01*
X186220462Y-90428762D01*
X186305890Y-90535504D01*
X186387814Y-90644183D01*
X186466366Y-90754960D01*
X186541678Y-90867991D01*
X186613882Y-90983438D01*
X186683109Y-91101457D01*
X186749491Y-91222209D01*
X186813160Y-91345853D01*
X186874248Y-91472546D01*
X186932886Y-91602448D01*
X186989206Y-91735719D01*
X187043340Y-91872516D01*
X187095420Y-92012999D01*
X187095427Y-92015646D01*
X186680953Y-92098973D01*
X186275479Y-92199446D01*
X185879818Y-92317531D01*
X185494784Y-92453693D01*
X185121190Y-92608396D01*
X184759852Y-92782106D01*
X184411583Y-92975288D01*
X184077197Y-93188406D01*
X183757507Y-93421927D01*
X183603428Y-93546483D01*
X183453328Y-93676314D01*
X183307309Y-93811478D01*
X183165473Y-93952034D01*
X183027922Y-94098039D01*
X182894757Y-94249551D01*
X182766081Y-94406628D01*
X182641994Y-94569330D01*
X182522598Y-94737713D01*
X182407996Y-94911836D01*
X182298289Y-95091757D01*
X182193579Y-95277535D01*
X182093968Y-95469227D01*
X181999556Y-95666891D01*
X181935132Y-95664942D01*
X181871735Y-95661097D01*
X181809214Y-95655385D01*
X181747417Y-95647831D01*
X181686194Y-95638464D01*
X181625394Y-95627310D01*
X181564864Y-95614397D01*
X181504455Y-95599751D01*
X181444015Y-95583399D01*
X181383393Y-95565370D01*
X181322437Y-95545689D01*
X181260997Y-95524384D01*
X181136059Y-95477011D01*
X181007369Y-95423468D01*
X181164727Y-95001124D01*
X181342134Y-94579998D01*
X181539609Y-94162421D01*
X181757172Y-93750727D01*
X181994843Y-93347250D01*
X182252640Y-92954322D01*
X182530583Y-92574277D01*
X182828691Y-92209448D01*
X183146984Y-91862168D01*
X183485482Y-91534770D01*
X183844203Y-91229588D01*
X184223167Y-90948955D01*
X184420246Y-90818574D01*
X184622393Y-90695204D01*
X184829611Y-90579138D01*
X185041901Y-90470668D01*
X185259267Y-90370085D01*
X185481710Y-90277680D01*
X185709234Y-90193746D01*
X185941840Y-90118574D01*
X186038569Y-90220456D01*
G37*
G36*
X175224021Y-103321075D02*
G01*
X175276082Y-103548011D01*
X175332259Y-103769761D01*
X175392689Y-103986833D01*
X175457506Y-104199734D01*
X175526846Y-104408973D01*
X175600844Y-104615056D01*
X175679638Y-104818493D01*
X175763361Y-105019790D01*
X175852149Y-105219455D01*
X175946139Y-105417997D01*
X176045466Y-105615921D01*
X176150265Y-105813738D01*
X176260673Y-106011953D01*
X176376824Y-106211075D01*
X176498854Y-106411612D01*
X176515655Y-106442486D01*
X176529448Y-106476406D01*
X176540389Y-106513132D01*
X176548632Y-106552423D01*
X176554332Y-106594040D01*
X176557645Y-106637742D01*
X176558725Y-106683288D01*
X176557728Y-106730438D01*
X176554809Y-106778953D01*
X176550122Y-106828592D01*
X176543823Y-106879114D01*
X176536066Y-106930280D01*
X176516801Y-107033581D01*
X176493567Y-107136572D01*
X175546363Y-106842886D01*
X175543715Y-106840246D01*
X175531950Y-106630125D01*
X175511727Y-106423330D01*
X175483335Y-106219713D01*
X175447059Y-106019127D01*
X175403187Y-105821424D01*
X175352005Y-105626458D01*
X175293801Y-105434081D01*
X175228861Y-105244146D01*
X175157471Y-105056506D01*
X175079919Y-104871013D01*
X174996491Y-104687520D01*
X174907475Y-104505879D01*
X174813156Y-104325944D01*
X174713823Y-104147567D01*
X174609761Y-103970600D01*
X174501258Y-103794897D01*
X174504754Y-103767016D01*
X174510229Y-103738971D01*
X174517596Y-103710817D01*
X174526773Y-103682607D01*
X174537675Y-103654395D01*
X174550217Y-103626235D01*
X174564315Y-103598181D01*
X174579885Y-103570286D01*
X174615103Y-103515190D01*
X174655197Y-103461377D01*
X174699493Y-103409277D01*
X174747315Y-103359320D01*
X174797990Y-103311936D01*
X174850844Y-103267557D01*
X174905201Y-103226611D01*
X174960387Y-103189529D01*
X175015729Y-103156741D01*
X175070551Y-103128678D01*
X175124180Y-103105770D01*
X175175940Y-103088446D01*
X175224021Y-103321075D01*
G37*
G36*
X181909583Y-108268988D02*
G01*
X181919210Y-108305276D01*
X181927254Y-108341665D01*
X181933714Y-108378083D01*
X181938588Y-108414462D01*
X181941875Y-108450730D01*
X181943574Y-108486817D01*
X181943683Y-108522653D01*
X181942200Y-108558168D01*
X181939124Y-108593292D01*
X181934455Y-108627954D01*
X181928189Y-108662084D01*
X181920326Y-108695612D01*
X181910864Y-108728467D01*
X181899802Y-108760580D01*
X181887139Y-108791880D01*
X181872872Y-108822296D01*
X181857001Y-108851760D01*
X181839524Y-108880199D01*
X181820439Y-108907545D01*
X181799746Y-108933727D01*
X181777442Y-108958674D01*
X181753526Y-108982317D01*
X181727997Y-109004584D01*
X181700853Y-109025407D01*
X181672093Y-109044715D01*
X181641716Y-109062436D01*
X181609719Y-109078502D01*
X181576102Y-109092842D01*
X181540863Y-109105386D01*
X181504000Y-109116063D01*
X181465512Y-109124803D01*
X181425398Y-109131537D01*
X177922316Y-107655157D01*
X177922301Y-107652517D01*
X177905707Y-107644243D01*
X177889664Y-107633886D01*
X177874183Y-107621565D01*
X177859271Y-107607401D01*
X177844940Y-107591513D01*
X177831196Y-107574019D01*
X177805513Y-107534691D01*
X177782294Y-107490371D01*
X177761614Y-107442013D01*
X177743546Y-107390569D01*
X177728164Y-107336994D01*
X177715542Y-107282241D01*
X177705753Y-107227263D01*
X177698871Y-107173014D01*
X177694969Y-107120447D01*
X177694121Y-107070515D01*
X177696401Y-107024172D01*
X177701882Y-106982371D01*
X177710639Y-106946066D01*
X177929377Y-106862793D01*
X178145163Y-106774597D01*
X178358143Y-106681331D01*
X178568465Y-106582848D01*
X178776275Y-106479001D01*
X178981721Y-106369642D01*
X179184950Y-106254624D01*
X179386110Y-106133801D01*
X179585347Y-106007024D01*
X179782810Y-105874146D01*
X179978644Y-105735021D01*
X180172998Y-105589501D01*
X180366018Y-105437439D01*
X180557852Y-105278687D01*
X180748648Y-105113099D01*
X180938552Y-104940527D01*
X181909583Y-108268988D01*
G37*
G36*
X164032882Y-98119850D02*
G01*
X164095148Y-98338927D01*
X164159336Y-98544238D01*
X164227152Y-98738696D01*
X164262952Y-98832767D01*
X164300299Y-98925217D01*
X164339406Y-99016412D01*
X164380485Y-99106715D01*
X164423750Y-99196491D01*
X164469415Y-99286104D01*
X164517691Y-99375919D01*
X164568793Y-99466299D01*
X164410140Y-99586129D01*
X164255421Y-99708566D01*
X164104291Y-99833740D01*
X163956405Y-99961778D01*
X163811418Y-100092808D01*
X163668986Y-100226957D01*
X163528762Y-100364354D01*
X163390403Y-100505127D01*
X163117898Y-100797311D01*
X162848711Y-101104532D01*
X162580081Y-101427814D01*
X162309249Y-101768179D01*
X162284264Y-101786545D01*
X162257023Y-101802988D01*
X162227655Y-101817569D01*
X162196290Y-101830351D01*
X162163059Y-101841394D01*
X162128092Y-101850761D01*
X162053473Y-101864710D01*
X161973474Y-101872691D01*
X161889138Y-101875195D01*
X161801507Y-101872716D01*
X161711625Y-101865744D01*
X161620533Y-101854772D01*
X161529275Y-101840293D01*
X161438892Y-101822799D01*
X161350428Y-101802782D01*
X161264924Y-101780734D01*
X161183424Y-101757147D01*
X161106970Y-101732514D01*
X161036605Y-101707327D01*
X161068548Y-101567365D01*
X161106677Y-101427369D01*
X161150758Y-101287473D01*
X161200558Y-101147814D01*
X161316383Y-100869747D01*
X161452289Y-100594254D01*
X161606410Y-100322420D01*
X161776883Y-100055330D01*
X161961844Y-99794069D01*
X162159428Y-99539723D01*
X162367771Y-99293376D01*
X162585009Y-99056113D01*
X162809278Y-98829021D01*
X163038713Y-98613184D01*
X163271450Y-98409688D01*
X163505625Y-98219617D01*
X163739373Y-98044057D01*
X163970832Y-97884092D01*
X164032882Y-98119850D01*
G37*
G36*
X189384746Y-105638898D02*
G01*
X189518506Y-106041449D01*
X189643585Y-106447348D01*
X189761098Y-106856781D01*
X189872161Y-107269934D01*
X189977891Y-107686994D01*
X190177817Y-108533575D01*
X190046724Y-108684517D01*
X189913146Y-108828660D01*
X189776708Y-108965842D01*
X189637033Y-109095901D01*
X189493747Y-109218673D01*
X189346472Y-109333996D01*
X189194833Y-109441707D01*
X189038454Y-109541643D01*
X188876959Y-109633642D01*
X188709972Y-109717540D01*
X188537117Y-109793175D01*
X188358019Y-109860385D01*
X188172301Y-109919005D01*
X187979587Y-109968875D01*
X187779502Y-110009830D01*
X187571669Y-110041708D01*
X187562335Y-109606415D01*
X187540165Y-109176764D01*
X187523278Y-108963648D01*
X187501997Y-108751455D01*
X187475925Y-108540021D01*
X187444667Y-108329184D01*
X187407829Y-108118781D01*
X187365014Y-107908650D01*
X187315827Y-107698627D01*
X187259873Y-107488550D01*
X187196757Y-107278256D01*
X187126082Y-107067583D01*
X187047455Y-106856367D01*
X186960478Y-106644446D01*
X187133177Y-106606779D01*
X187300263Y-106563132D01*
X187462078Y-106513354D01*
X187618963Y-106457293D01*
X187771259Y-106394799D01*
X187919307Y-106325719D01*
X188063449Y-106249904D01*
X188204024Y-106167202D01*
X188341375Y-106077462D01*
X188475842Y-105980532D01*
X188607766Y-105876261D01*
X188737489Y-105764499D01*
X188865352Y-105645093D01*
X188991695Y-105517894D01*
X189116859Y-105382749D01*
X189241187Y-105239508D01*
X189384746Y-105638898D01*
G37*
G36*
X193484048Y-112018725D02*
G01*
X193482011Y-112127189D01*
X193473857Y-112242285D01*
X193459754Y-112363315D01*
X193414367Y-112620378D01*
X193347183Y-112892786D01*
X193259535Y-113174945D01*
X193152757Y-113461264D01*
X193028181Y-113746148D01*
X192887141Y-114024006D01*
X192810864Y-114158552D01*
X192730970Y-114289244D01*
X192647627Y-114415384D01*
X192561002Y-114536271D01*
X192471260Y-114651206D01*
X192378569Y-114759492D01*
X192283095Y-114860428D01*
X192185005Y-114953315D01*
X192084465Y-115037455D01*
X191981643Y-115112148D01*
X191876704Y-115176695D01*
X191769816Y-115230397D01*
X191661145Y-115272556D01*
X191550858Y-115302471D01*
X191439122Y-115319444D01*
X191326102Y-115322775D01*
X189714789Y-114071310D01*
X189540160Y-113939016D01*
X190161933Y-113661200D01*
X190203440Y-113643782D01*
X190237507Y-113628999D01*
X190265371Y-113616510D01*
X190288275Y-113605972D01*
X190324161Y-113589392D01*
X190339624Y-113582666D01*
X190347277Y-113579545D01*
X190355086Y-113576529D01*
X191458396Y-112949469D01*
X191461035Y-112952109D01*
X191600969Y-112914853D01*
X191738128Y-112875318D01*
X191872713Y-112833210D01*
X192004926Y-112788234D01*
X192134968Y-112740095D01*
X192263040Y-112688500D01*
X192389345Y-112633153D01*
X192514084Y-112573759D01*
X192637459Y-112510025D01*
X192759671Y-112441655D01*
X192880921Y-112368355D01*
X193001411Y-112289830D01*
X193121343Y-112205786D01*
X193240918Y-112115929D01*
X193360338Y-112019962D01*
X193479804Y-111917593D01*
X193484048Y-112018725D01*
G37*
G36*
X168237239Y-96149753D02*
G01*
X168236575Y-96150413D01*
X168235915Y-96151076D01*
X168368209Y-97037428D01*
X168179920Y-97125833D01*
X167995720Y-97219175D01*
X167815109Y-97317122D01*
X167637586Y-97419340D01*
X167462653Y-97525495D01*
X167289809Y-97635255D01*
X166948387Y-97864254D01*
X165566268Y-98857763D01*
X165520160Y-98861081D01*
X165474223Y-98856929D01*
X165428626Y-98845726D01*
X165383542Y-98827894D01*
X165339139Y-98803853D01*
X165295589Y-98774024D01*
X165253062Y-98738827D01*
X165211729Y-98698682D01*
X165171760Y-98654010D01*
X165133326Y-98605233D01*
X165096598Y-98552769D01*
X165061745Y-98497040D01*
X164998348Y-98377468D01*
X164944502Y-98249882D01*
X164901569Y-98117645D01*
X164870915Y-97984121D01*
X164860618Y-97917927D01*
X164853903Y-97852674D01*
X164850939Y-97788781D01*
X164851898Y-97726669D01*
X164856949Y-97666759D01*
X164866264Y-97609471D01*
X164880012Y-97555225D01*
X164898365Y-97504442D01*
X164921493Y-97457542D01*
X164949566Y-97414947D01*
X164982756Y-97377077D01*
X165021231Y-97344351D01*
X165197588Y-97222438D01*
X165378254Y-97110214D01*
X165563012Y-97006951D01*
X165751647Y-96911920D01*
X165943940Y-96824393D01*
X166139675Y-96743640D01*
X166338634Y-96668934D01*
X166540601Y-96599546D01*
X166952690Y-96473807D01*
X167374203Y-96360595D01*
X168238562Y-96148436D01*
X168237239Y-96149753D01*
G37*
G36*
X169135549Y-111694199D02*
G01*
X169427071Y-111710056D01*
X169714912Y-111740622D01*
X169998711Y-111785595D01*
X170278106Y-111844671D01*
X170552738Y-111917549D01*
X170822247Y-112003924D01*
X171086272Y-112103495D01*
X171344451Y-112215958D01*
X171596426Y-112341012D01*
X171841836Y-112478352D01*
X172080319Y-112627676D01*
X172311516Y-112788682D01*
X172535066Y-112961066D01*
X172750610Y-113144526D01*
X172957785Y-113338759D01*
X173156232Y-113543463D01*
X173345591Y-113758333D01*
X173525501Y-113983069D01*
X173695601Y-114217366D01*
X173855531Y-114460922D01*
X174004931Y-114713434D01*
X174143441Y-114974600D01*
X174270699Y-115244117D01*
X174386345Y-115521681D01*
X174490019Y-115806991D01*
X174581361Y-116099742D01*
X174658567Y-116394132D01*
X174884396Y-116226347D01*
X175118294Y-116067144D01*
X175356069Y-115919400D01*
X175597380Y-115783133D01*
X175841886Y-115658359D01*
X176089248Y-115545096D01*
X176339124Y-115443360D01*
X176591173Y-115353168D01*
X176845056Y-115274538D01*
X177100432Y-115207487D01*
X177356960Y-115152030D01*
X177614299Y-115108186D01*
X177872110Y-115075971D01*
X178130050Y-115055402D01*
X178387781Y-115046497D01*
X178644960Y-115049271D01*
X178901248Y-115063742D01*
X179156304Y-115089927D01*
X179409788Y-115127843D01*
X179661358Y-115177507D01*
X179910675Y-115238936D01*
X180157397Y-115312146D01*
X180401185Y-115397155D01*
X180641696Y-115493980D01*
X180878592Y-115602637D01*
X181111531Y-115723144D01*
X181340173Y-115855517D01*
X181564178Y-115999774D01*
X181783203Y-116155931D01*
X181996910Y-116324006D01*
X182204957Y-116504014D01*
X182407004Y-116695975D01*
X182612614Y-116913851D01*
X182802957Y-117142319D01*
X182978270Y-117380624D01*
X183138788Y-117628010D01*
X183284749Y-117883721D01*
X183416389Y-118147002D01*
X183533945Y-118417096D01*
X183637652Y-118693247D01*
X183727748Y-118974700D01*
X183804468Y-119260699D01*
X183868050Y-119550489D01*
X183918729Y-119843313D01*
X183956743Y-120138415D01*
X183982327Y-120435041D01*
X183995718Y-120732433D01*
X183997153Y-121029837D01*
X183956208Y-121417234D01*
X183894875Y-121793720D01*
X183813884Y-122159452D01*
X183713963Y-122514587D01*
X183595839Y-122859283D01*
X183460241Y-123193697D01*
X183307896Y-123517986D01*
X183139534Y-123832309D01*
X182955882Y-124136823D01*
X182757669Y-124431684D01*
X182545622Y-124717051D01*
X182320469Y-124993080D01*
X181833761Y-125517758D01*
X181303369Y-126006977D01*
X180735119Y-126461997D01*
X180134836Y-126884076D01*
X179508346Y-127274476D01*
X178861473Y-127634455D01*
X178200042Y-127965272D01*
X177529880Y-128268189D01*
X176856810Y-128544463D01*
X176186659Y-128795355D01*
X170127700Y-130962301D01*
X170095030Y-130972986D01*
X170062051Y-130981760D01*
X170028824Y-130988685D01*
X169995413Y-130993820D01*
X169961880Y-130997225D01*
X169928288Y-130998958D01*
X169894698Y-130999080D01*
X169861174Y-130997650D01*
X169827778Y-130994728D01*
X169794572Y-130990374D01*
X169761619Y-130984646D01*
X169728981Y-130977605D01*
X169696721Y-130969310D01*
X169664902Y-130959821D01*
X169633585Y-130949197D01*
X169602834Y-130937498D01*
X169572711Y-130924784D01*
X169543278Y-130911114D01*
X169514598Y-130896547D01*
X169486734Y-130881144D01*
X169459747Y-130864963D01*
X169433701Y-130848065D01*
X169408657Y-130830509D01*
X169384679Y-130812355D01*
X169361829Y-130793662D01*
X169340169Y-130774490D01*
X169319762Y-130754898D01*
X169300671Y-130734946D01*
X169282957Y-130714694D01*
X169266683Y-130694201D01*
X169251913Y-130673527D01*
X169238707Y-130652731D01*
X168267684Y-129012320D01*
X166341885Y-125810237D01*
X165844303Y-124934789D01*
X165363623Y-124038246D01*
X164911523Y-123125046D01*
X164499680Y-122199625D01*
X164139772Y-121266422D01*
X163843477Y-120329875D01*
X163622471Y-119394420D01*
X163543852Y-118928490D01*
X163488434Y-118464496D01*
X163457677Y-118002995D01*
X163454952Y-117733568D01*
X164560327Y-117733568D01*
X164566400Y-118091083D01*
X164590435Y-118450444D01*
X164631436Y-118811174D01*
X164688408Y-119172793D01*
X164846280Y-119896794D01*
X165056087Y-120618623D01*
X165309864Y-121334462D01*
X165599646Y-122040487D01*
X165917470Y-122732877D01*
X166255370Y-123407812D01*
X166605382Y-124061468D01*
X167309882Y-125289663D01*
X170029799Y-129882818D01*
X173368842Y-128652502D01*
X174690678Y-128169756D01*
X175345551Y-127927749D01*
X175996147Y-127679821D01*
X176642278Y-127421847D01*
X177283759Y-127149703D01*
X177920403Y-126859265D01*
X178552024Y-126546408D01*
X178554679Y-126546438D01*
X178954470Y-126328308D01*
X179351164Y-126089004D01*
X179741789Y-125829059D01*
X180123372Y-125549002D01*
X180492940Y-125249364D01*
X180847520Y-124930678D01*
X181184140Y-124593473D01*
X181499827Y-124238281D01*
X181791609Y-123865633D01*
X182056512Y-123476059D01*
X182291564Y-123070091D01*
X182396967Y-122861125D01*
X182493792Y-122648260D01*
X182581669Y-122431561D01*
X182660224Y-122211095D01*
X182729088Y-121986930D01*
X182787887Y-121759130D01*
X182836251Y-121527762D01*
X182873808Y-121292894D01*
X182900187Y-121054590D01*
X182915015Y-120812918D01*
X182917767Y-120569986D01*
X182908357Y-120330529D01*
X182887069Y-120094831D01*
X182854190Y-119863172D01*
X182810005Y-119635834D01*
X182754801Y-119413101D01*
X182688863Y-119195252D01*
X182612477Y-118982571D01*
X182525929Y-118775340D01*
X182429505Y-118573840D01*
X182323490Y-118378353D01*
X182208170Y-118189161D01*
X182083832Y-118006547D01*
X181950760Y-117830792D01*
X181809242Y-117662177D01*
X181659562Y-117500986D01*
X181502006Y-117347500D01*
X181336862Y-117202001D01*
X181164413Y-117064771D01*
X180984946Y-116936091D01*
X180798748Y-116816245D01*
X180606103Y-116705513D01*
X180407297Y-116604178D01*
X180202617Y-116512521D01*
X179992348Y-116430826D01*
X179776777Y-116359372D01*
X179556188Y-116298443D01*
X179330868Y-116248321D01*
X179101102Y-116209287D01*
X178867177Y-116181624D01*
X178629378Y-116165612D01*
X178387992Y-116161535D01*
X178132779Y-116169791D01*
X177887873Y-116189502D01*
X177653022Y-116219783D01*
X177427973Y-116259749D01*
X177212477Y-116308514D01*
X177006280Y-116365195D01*
X176809133Y-116428905D01*
X176620783Y-116498759D01*
X176440978Y-116573873D01*
X176269469Y-116653361D01*
X176106002Y-116736338D01*
X175950327Y-116821919D01*
X175802192Y-116909219D01*
X175661346Y-116997353D01*
X175400515Y-117172581D01*
X174955255Y-117494097D01*
X174766803Y-117626222D01*
X174680242Y-117682029D01*
X174598455Y-117729819D01*
X174521191Y-117768706D01*
X174448199Y-117797805D01*
X174379227Y-117816231D01*
X174314023Y-117823099D01*
X174252337Y-117817525D01*
X174193917Y-117798622D01*
X174138511Y-117765506D01*
X174085868Y-117717291D01*
X174034767Y-117654297D01*
X173987678Y-117581720D01*
X173902855Y-117409733D01*
X173826040Y-117205159D01*
X173751872Y-116971827D01*
X173590036Y-116434206D01*
X173491649Y-116137575D01*
X173374468Y-115827503D01*
X173233133Y-115507820D01*
X173062285Y-115182354D01*
X172964118Y-115018649D01*
X172856563Y-114854935D01*
X172738949Y-114691689D01*
X172610606Y-114529391D01*
X172470866Y-114368520D01*
X172319056Y-114209553D01*
X172154508Y-114052970D01*
X171976552Y-113899249D01*
X171784517Y-113748869D01*
X171577733Y-113602309D01*
X171355531Y-113460047D01*
X171117240Y-113322561D01*
X170941171Y-113230853D01*
X170763353Y-113147217D01*
X170584006Y-113071647D01*
X170403350Y-113004138D01*
X170221606Y-112944684D01*
X170038992Y-112893281D01*
X169855728Y-112849923D01*
X169672036Y-112814605D01*
X169488134Y-112787321D01*
X169304243Y-112768066D01*
X169120583Y-112756834D01*
X168937373Y-112753621D01*
X168754833Y-112758421D01*
X168573184Y-112771229D01*
X168392646Y-112792039D01*
X168213438Y-112820847D01*
X168035780Y-112857646D01*
X167859892Y-112902431D01*
X167685995Y-112955198D01*
X167514307Y-113015941D01*
X167345050Y-113084654D01*
X167178443Y-113161332D01*
X167014706Y-113245970D01*
X166854058Y-113338562D01*
X166696721Y-113439104D01*
X166542913Y-113547590D01*
X166392855Y-113664014D01*
X166246767Y-113788371D01*
X166104869Y-113920657D01*
X165967380Y-114060864D01*
X165834521Y-114208990D01*
X165706511Y-114365027D01*
X165478211Y-114677811D01*
X165277829Y-114997218D01*
X165104368Y-115322770D01*
X164956834Y-115653989D01*
X164834230Y-115990398D01*
X164735562Y-116331519D01*
X164659833Y-116676874D01*
X164606048Y-117025986D01*
X164573211Y-117378376D01*
X164560327Y-117733568D01*
X163454952Y-117733568D01*
X163453041Y-117544541D01*
X163475986Y-117089688D01*
X163527971Y-116638991D01*
X163610456Y-116193005D01*
X163724902Y-115752285D01*
X163872766Y-115317386D01*
X164055510Y-114888861D01*
X164198701Y-114619414D01*
X164353337Y-114356376D01*
X164519266Y-114100641D01*
X164696339Y-113853098D01*
X164884403Y-113614640D01*
X165083308Y-113386158D01*
X165292902Y-113168544D01*
X165513034Y-112962689D01*
X165743552Y-112769484D01*
X165984307Y-112589821D01*
X166235146Y-112424592D01*
X166495919Y-112274688D01*
X166766474Y-112141000D01*
X167046660Y-112024421D01*
X167336326Y-111925840D01*
X167635321Y-111846151D01*
X167939847Y-111783920D01*
X168242493Y-111737912D01*
X168542899Y-111707824D01*
X168840704Y-111693354D01*
X169135549Y-111694199D01*
G37*
G36*
X193333306Y-109196350D02*
G01*
X193375952Y-109373599D01*
X193411239Y-109552453D01*
X193437479Y-109732656D01*
X193452988Y-109913951D01*
X193456078Y-110096084D01*
X193445065Y-110278799D01*
X193433743Y-110370294D01*
X193418263Y-110461839D01*
X193398413Y-110553401D01*
X193373984Y-110644949D01*
X193354095Y-110706115D01*
X193330741Y-110765619D01*
X193304070Y-110823503D01*
X193274228Y-110879812D01*
X193241363Y-110934588D01*
X193205622Y-110987874D01*
X193167152Y-111039714D01*
X193126102Y-111090150D01*
X193036846Y-111186985D01*
X192939032Y-111278723D01*
X192833839Y-111365710D01*
X192722445Y-111448290D01*
X192606028Y-111526809D01*
X192485767Y-111601611D01*
X192362839Y-111673041D01*
X192238423Y-111741445D01*
X191989839Y-111870551D01*
X191749442Y-111991690D01*
X191749457Y-111994314D01*
X191743081Y-111584920D01*
X191731714Y-111181262D01*
X191712102Y-110781883D01*
X191680987Y-110385325D01*
X191635114Y-109990130D01*
X191605625Y-109792588D01*
X191571225Y-109594840D01*
X191531508Y-109396705D01*
X191486066Y-109197999D01*
X191434492Y-108998540D01*
X191376380Y-108798147D01*
X191584954Y-108703979D01*
X191785372Y-108606866D01*
X191979651Y-108505101D01*
X192169806Y-108396980D01*
X192263967Y-108340003D01*
X192357852Y-108280798D01*
X192451715Y-108219151D01*
X192545806Y-108154848D01*
X192640377Y-108087678D01*
X192735681Y-108017427D01*
X192831970Y-107943881D01*
X192929495Y-107866827D01*
X193333306Y-109196350D01*
G37*
G36*
X185163970Y-104869101D02*
G01*
X185218255Y-105031959D01*
X185276292Y-105192182D01*
X185338608Y-105351350D01*
X185405730Y-105511046D01*
X185478184Y-105672850D01*
X185556499Y-105838344D01*
X185641201Y-106009109D01*
X185732817Y-106186728D01*
X185731496Y-106185400D01*
X185730170Y-106184073D01*
X185597985Y-106348259D01*
X185458498Y-106508228D01*
X185311849Y-106663670D01*
X185158176Y-106814276D01*
X184997620Y-106959734D01*
X184830321Y-107099736D01*
X184656416Y-107233970D01*
X184476047Y-107362127D01*
X184289353Y-107483897D01*
X184096473Y-107598970D01*
X183897546Y-107707035D01*
X183692714Y-107807783D01*
X183482114Y-107900904D01*
X183265886Y-107986087D01*
X183044171Y-108063022D01*
X182817107Y-108131399D01*
X181758773Y-104593924D01*
X181967937Y-104559066D01*
X182171008Y-104516848D01*
X182368343Y-104467042D01*
X182560298Y-104409418D01*
X182747230Y-104343748D01*
X182929496Y-104269804D01*
X183107451Y-104187356D01*
X183281454Y-104096176D01*
X183451859Y-103996036D01*
X183619025Y-103886707D01*
X183783307Y-103767960D01*
X183945061Y-103639566D01*
X184104646Y-103501297D01*
X184262417Y-103352925D01*
X184418730Y-103194220D01*
X184573943Y-103024954D01*
X185163970Y-104869101D01*
G37*
G36*
X187812438Y-103138724D02*
G01*
X187847870Y-103219866D01*
X187886547Y-103300578D01*
X187928239Y-103380864D01*
X187972718Y-103460727D01*
X188019754Y-103540172D01*
X188069121Y-103619202D01*
X188120587Y-103697821D01*
X188173926Y-103776034D01*
X188285305Y-103931253D01*
X188401427Y-104084891D01*
X188520464Y-104236979D01*
X188640586Y-104387549D01*
X188623613Y-104450870D01*
X188599277Y-104516094D01*
X188568015Y-104582890D01*
X188530262Y-104650929D01*
X188486452Y-104719881D01*
X188437023Y-104789416D01*
X188323045Y-104928914D01*
X188191812Y-105066784D01*
X188046808Y-105200386D01*
X187891519Y-105327083D01*
X187729427Y-105444233D01*
X187564018Y-105549198D01*
X187398775Y-105639339D01*
X187237184Y-105712015D01*
X187158846Y-105740980D01*
X187082727Y-105764588D01*
X187009264Y-105782511D01*
X186938891Y-105794419D01*
X186872043Y-105799981D01*
X186809158Y-105798867D01*
X186750669Y-105790748D01*
X186697013Y-105775294D01*
X186648625Y-105752174D01*
X186605940Y-105721060D01*
X186586796Y-105703807D01*
X186566265Y-105683996D01*
X186544632Y-105661922D01*
X186522186Y-105637879D01*
X186499213Y-105612162D01*
X186475999Y-105585065D01*
X186452832Y-105556883D01*
X186429998Y-105527910D01*
X186407784Y-105498442D01*
X186386477Y-105468772D01*
X186366364Y-105439195D01*
X186347731Y-105410005D01*
X186330865Y-105381498D01*
X186316053Y-105353968D01*
X186303582Y-105327708D01*
X186293738Y-105303015D01*
X185314772Y-102546057D01*
X185456522Y-102493628D01*
X185591397Y-102439296D01*
X185719899Y-102382708D01*
X185842534Y-102323513D01*
X185959804Y-102261357D01*
X186072215Y-102195888D01*
X186180269Y-102126752D01*
X186284470Y-102053598D01*
X186385323Y-101976071D01*
X186483331Y-101893820D01*
X186578998Y-101806492D01*
X186672828Y-101713734D01*
X186765325Y-101615193D01*
X186856993Y-101510517D01*
X186948334Y-101399353D01*
X187039855Y-101281347D01*
X187812438Y-103138724D01*
G37*
G36*
X107096008Y-46414706D02*
G01*
X109185083Y-46624984D01*
X111250741Y-47002298D01*
X113280851Y-47546624D01*
X114278784Y-47881410D01*
X115263281Y-48257941D01*
X116232826Y-48676213D01*
X117185901Y-49136224D01*
X118120992Y-49637971D01*
X119036580Y-50181451D01*
X119931151Y-50766661D01*
X120803187Y-51393598D01*
X121651172Y-52062260D01*
X122473590Y-52772642D01*
X122473590Y-52769995D01*
X123690118Y-53957076D01*
X124794301Y-55213681D01*
X125786964Y-56534173D01*
X126668931Y-57912917D01*
X127441029Y-59344278D01*
X128104083Y-60822621D01*
X128658919Y-62342310D01*
X129106362Y-63897710D01*
X129447239Y-65483186D01*
X129682373Y-67093102D01*
X129812591Y-68721823D01*
X129838719Y-70363714D01*
X129761582Y-72013140D01*
X129582006Y-73664464D01*
X129300816Y-75312053D01*
X128918837Y-76950270D01*
X128630314Y-77946004D01*
X128299595Y-78921104D01*
X127928266Y-79875648D01*
X127517912Y-80809712D01*
X127070119Y-81723375D01*
X126586471Y-82616713D01*
X126068554Y-83489805D01*
X125517953Y-84342727D01*
X124936253Y-85175557D01*
X124325039Y-85988373D01*
X123685897Y-86781253D01*
X123020411Y-87554273D01*
X122330167Y-88307511D01*
X121616750Y-89041044D01*
X120881746Y-89754951D01*
X120126738Y-90449309D01*
X118978571Y-91484820D01*
X118418425Y-92004747D01*
X117868851Y-92532239D01*
X117330812Y-93071886D01*
X116805269Y-93628277D01*
X116547483Y-93914185D01*
X116293182Y-94206000D01*
X116042484Y-94504295D01*
X115795512Y-94809645D01*
X114985908Y-95870856D01*
X114597796Y-96411633D01*
X114221077Y-96959259D01*
X113855955Y-97513783D01*
X113502630Y-98075256D01*
X113161305Y-98643730D01*
X112832180Y-99219253D01*
X112515458Y-99801876D01*
X112211339Y-100391651D01*
X111920026Y-100988626D01*
X111641720Y-101592854D01*
X111376622Y-102204383D01*
X111124935Y-102823265D01*
X110886859Y-103449550D01*
X110662596Y-104083288D01*
X110364950Y-104996989D01*
X110092166Y-105915275D01*
X109844304Y-106837893D01*
X109621420Y-107764592D01*
X109423574Y-108695120D01*
X109250822Y-109629226D01*
X109103225Y-110566656D01*
X108980838Y-111507160D01*
X108883722Y-112450486D01*
X108811933Y-113396381D01*
X108765531Y-114344594D01*
X108744572Y-115294873D01*
X108749116Y-116246965D01*
X108779220Y-117200620D01*
X108834943Y-118155585D01*
X108916342Y-119111609D01*
X109026619Y-120121999D01*
X109159713Y-121127486D01*
X109316673Y-122127136D01*
X109498551Y-123120015D01*
X109706396Y-124105189D01*
X109941258Y-125081723D01*
X110204189Y-126048685D01*
X110496238Y-127005139D01*
X110818456Y-127950151D01*
X111171893Y-128882788D01*
X111557599Y-129802116D01*
X111976625Y-130707200D01*
X112430020Y-131597106D01*
X112918836Y-132470900D01*
X113444123Y-133327649D01*
X114006930Y-134166418D01*
X116224139Y-137328192D01*
X115080896Y-137171446D01*
X113955609Y-136964034D01*
X112849146Y-136707286D01*
X111762380Y-136402532D01*
X110696180Y-136051102D01*
X109651418Y-135654328D01*
X108628963Y-135213539D01*
X107629686Y-134730065D01*
X106654459Y-134205238D01*
X105704151Y-133640386D01*
X104779633Y-133036842D01*
X103881775Y-132395934D01*
X103011449Y-131718993D01*
X102169525Y-131007351D01*
X100574365Y-129485279D01*
X99103259Y-127840363D01*
X97763172Y-126083243D01*
X96561069Y-124224564D01*
X95503914Y-122274968D01*
X94598673Y-120245097D01*
X93852310Y-118145594D01*
X93540884Y-117073057D01*
X93271789Y-115987102D01*
X93045896Y-114889061D01*
X92864075Y-113780264D01*
X92658732Y-112019215D01*
X92550120Y-110287436D01*
X92547669Y-109994452D01*
X95230093Y-109994452D01*
X95277481Y-111533891D01*
X95420110Y-113071004D01*
X95656212Y-114598986D01*
X95984012Y-116111031D01*
X96401742Y-117600333D01*
X96907629Y-119060086D01*
X97499902Y-120483484D01*
X98176791Y-121863723D01*
X98936523Y-123193995D01*
X99777328Y-124467495D01*
X100697434Y-125677417D01*
X101186671Y-126256410D01*
X101695070Y-126816956D01*
X102222408Y-127358205D01*
X102768465Y-127879306D01*
X103333019Y-128379408D01*
X103915848Y-128857661D01*
X104516731Y-129313213D01*
X105135447Y-129745215D01*
X105152516Y-129756334D01*
X105169960Y-129766879D01*
X105205794Y-129786311D01*
X105242597Y-129803633D01*
X105280017Y-129818971D01*
X105317700Y-129832448D01*
X105355294Y-129844188D01*
X105392446Y-129854316D01*
X105428804Y-129862955D01*
X105464014Y-129870230D01*
X105497724Y-129876265D01*
X105529582Y-129881184D01*
X105559235Y-129885110D01*
X105610513Y-129890483D01*
X105648738Y-129893377D01*
X105646090Y-129890738D01*
X105654018Y-129890591D01*
X105661922Y-129889200D01*
X105669792Y-129886622D01*
X105677618Y-129882915D01*
X105685392Y-129878136D01*
X105693105Y-129872343D01*
X105700747Y-129865594D01*
X105708309Y-129857946D01*
X105723156Y-129840186D01*
X105737573Y-129819522D01*
X105751486Y-129796417D01*
X105764822Y-129771332D01*
X105777507Y-129744728D01*
X105789467Y-129717066D01*
X105800628Y-129688807D01*
X105810918Y-129660413D01*
X105820262Y-129632345D01*
X105828586Y-129605064D01*
X105835818Y-129579032D01*
X105841883Y-129554709D01*
X105728800Y-129411770D01*
X105608309Y-129270551D01*
X105481130Y-129130852D01*
X105347978Y-128992471D01*
X105209571Y-128855206D01*
X105066625Y-128718855D01*
X104769987Y-128448092D01*
X104153798Y-127908673D01*
X103845719Y-127636794D01*
X103545298Y-127361319D01*
X103024446Y-126856362D01*
X102523341Y-126341518D01*
X102041699Y-125816636D01*
X101579238Y-125281565D01*
X101135675Y-124736154D01*
X100710728Y-124180251D01*
X100304112Y-123613705D01*
X99915546Y-123036366D01*
X99544746Y-122448081D01*
X99191430Y-121848700D01*
X98855314Y-121238072D01*
X98536115Y-120616046D01*
X98233551Y-119982470D01*
X97947339Y-119337193D01*
X97677196Y-118680063D01*
X97422839Y-118010931D01*
X97215334Y-117416914D01*
X97025107Y-116819621D01*
X96851701Y-116219189D01*
X96694658Y-115615754D01*
X96553520Y-115009450D01*
X96427832Y-114400414D01*
X96317135Y-113788781D01*
X96220971Y-113174687D01*
X96138885Y-112558267D01*
X96070417Y-111939658D01*
X95972511Y-110696412D01*
X95923594Y-109446035D01*
X95921297Y-108641158D01*
X98924435Y-108641158D01*
X98930452Y-109188653D01*
X98981237Y-110207075D01*
X99074686Y-111115985D01*
X99199994Y-111906475D01*
X99346355Y-112569640D01*
X99502963Y-113096573D01*
X99659012Y-113478367D01*
X99733451Y-113612054D01*
X99803698Y-113706116D01*
X99868403Y-113759441D01*
X99926215Y-113770914D01*
X99975783Y-113739423D01*
X100015757Y-113663855D01*
X100057697Y-113453308D01*
X100066142Y-113166622D01*
X100010550Y-112374801D01*
X99904975Y-111308331D01*
X99805416Y-109987146D01*
X99775391Y-109237267D01*
X99767868Y-108431185D01*
X99789847Y-107571394D01*
X99848328Y-106660384D01*
X99950311Y-105700648D01*
X100102794Y-104694679D01*
X100312777Y-103644968D01*
X100587260Y-102554007D01*
X101523882Y-99183210D01*
X101482030Y-99177550D01*
X101441298Y-99173928D01*
X101401671Y-99172290D01*
X101363139Y-99172580D01*
X101325687Y-99174744D01*
X101289305Y-99178727D01*
X101253978Y-99184475D01*
X101219695Y-99191932D01*
X101186443Y-99201045D01*
X101154210Y-99211758D01*
X101122982Y-99224016D01*
X101092747Y-99237764D01*
X101063492Y-99252949D01*
X101035206Y-99269515D01*
X101007875Y-99287408D01*
X100981487Y-99306572D01*
X100956029Y-99326953D01*
X100931488Y-99348497D01*
X100907853Y-99371148D01*
X100885110Y-99394851D01*
X100863246Y-99419553D01*
X100842250Y-99445197D01*
X100802809Y-99499097D01*
X100766686Y-99556113D01*
X100733779Y-99615807D01*
X100703989Y-99677741D01*
X100677214Y-99741476D01*
X100386542Y-100514632D01*
X100126796Y-101277109D01*
X99896626Y-102027794D01*
X99694681Y-102765573D01*
X99519610Y-103489334D01*
X99370062Y-104197964D01*
X99244688Y-104890348D01*
X99142136Y-105565373D01*
X99061055Y-106221927D01*
X99000096Y-106858895D01*
X98957906Y-107475166D01*
X98933136Y-108069624D01*
X98924435Y-108641158D01*
X95921297Y-108641158D01*
X95920008Y-108189612D01*
X95921109Y-107999711D01*
X95917404Y-107816880D01*
X95907312Y-107638018D01*
X95899377Y-107549106D01*
X95889251Y-107460024D01*
X95876739Y-107370383D01*
X95861641Y-107279797D01*
X95843760Y-107187877D01*
X95822900Y-107094236D01*
X95798860Y-106998486D01*
X95771446Y-106900240D01*
X95740458Y-106799110D01*
X95705699Y-106694708D01*
X95647284Y-106802286D01*
X95594827Y-106909774D01*
X95547958Y-107017269D01*
X95506310Y-107124869D01*
X95469515Y-107232671D01*
X95437204Y-107340771D01*
X95409008Y-107449266D01*
X95384561Y-107558253D01*
X95363493Y-107667829D01*
X95345436Y-107778090D01*
X95316885Y-108001060D01*
X95295961Y-108227936D01*
X95279719Y-108459494D01*
X95230093Y-109994452D01*
X92547669Y-109994452D01*
X92535873Y-108583933D01*
X92613629Y-106907716D01*
X92781024Y-105257792D01*
X93035692Y-103633168D01*
X93375269Y-102032853D01*
X93730746Y-100704832D01*
X96852802Y-100704832D01*
X96864027Y-100885801D01*
X96888702Y-101069901D01*
X96928069Y-101257521D01*
X99092360Y-96690809D01*
X99531325Y-95841870D01*
X99988677Y-95010046D01*
X100463950Y-94193104D01*
X100956680Y-93388813D01*
X101466401Y-92594940D01*
X101992648Y-91809251D01*
X102534956Y-91029516D01*
X103092860Y-90253500D01*
X103108605Y-90230482D01*
X103123572Y-90206154D01*
X103137726Y-90180629D01*
X103151033Y-90154024D01*
X103163458Y-90126454D01*
X103174967Y-90098034D01*
X103195098Y-90039107D01*
X103211152Y-89978164D01*
X103222854Y-89916128D01*
X103226986Y-89884988D01*
X103229928Y-89853921D01*
X103231643Y-89823042D01*
X103232099Y-89792466D01*
X103231260Y-89762309D01*
X103229092Y-89732686D01*
X103225560Y-89703712D01*
X103220631Y-89675502D01*
X103214270Y-89648172D01*
X103206443Y-89621838D01*
X103197114Y-89596614D01*
X103186251Y-89572615D01*
X103173817Y-89549957D01*
X103159780Y-89528756D01*
X103144104Y-89509127D01*
X103126755Y-89491184D01*
X103107699Y-89475044D01*
X103086901Y-89460821D01*
X103064327Y-89448631D01*
X103039942Y-89438589D01*
X102927781Y-89507891D01*
X102818448Y-89580746D01*
X102711860Y-89656989D01*
X102607930Y-89736452D01*
X102506573Y-89818970D01*
X102407705Y-89904375D01*
X102311239Y-89992501D01*
X102217092Y-90083181D01*
X102125176Y-90176248D01*
X102035408Y-90271536D01*
X101947701Y-90368878D01*
X101861971Y-90468108D01*
X101778133Y-90569058D01*
X101696100Y-90671563D01*
X101537112Y-90880568D01*
X100906712Y-91768743D01*
X100311844Y-92674778D01*
X99750338Y-93598175D01*
X99220025Y-94538439D01*
X98718733Y-95495074D01*
X98244292Y-96467583D01*
X97794531Y-97455472D01*
X97367282Y-98458243D01*
X97365956Y-98459556D01*
X97364630Y-98460875D01*
X97261118Y-98810021D01*
X97151684Y-99153091D01*
X97046280Y-99493183D01*
X96998200Y-99663082D01*
X96954860Y-99833400D01*
X96917504Y-100004524D01*
X96887376Y-100176841D01*
X96865720Y-100350740D01*
X96853781Y-100526608D01*
X96852802Y-100704832D01*
X93730746Y-100704832D01*
X93797392Y-100455854D01*
X94299696Y-98901179D01*
X94879817Y-97367836D01*
X95535391Y-95854833D01*
X96264053Y-94361177D01*
X97063440Y-92885877D01*
X97931186Y-91427940D01*
X98864929Y-89986374D01*
X99862303Y-88560187D01*
X103296591Y-83824148D01*
X103672802Y-83291121D01*
X104030687Y-82754777D01*
X104372016Y-82213782D01*
X104589590Y-81849326D01*
X123348671Y-81849326D01*
X123349116Y-81885110D01*
X123352197Y-81922522D01*
X123357705Y-81960698D01*
X123365429Y-81998773D01*
X123375161Y-82035882D01*
X123386691Y-82071162D01*
X123399810Y-82103749D01*
X123406900Y-82118762D01*
X123414309Y-82132778D01*
X123422011Y-82145688D01*
X123429979Y-82157384D01*
X123438187Y-82167759D01*
X123446609Y-82176704D01*
X123455219Y-82184112D01*
X123463991Y-82189874D01*
X123472899Y-82193882D01*
X123481916Y-82196028D01*
X123491017Y-82196205D01*
X123500174Y-82194304D01*
X123558299Y-82174394D01*
X123615115Y-82151447D01*
X123670647Y-82125574D01*
X123724920Y-82096885D01*
X123777959Y-82065491D01*
X123829788Y-82031502D01*
X123929916Y-81956181D01*
X124025501Y-81871807D01*
X124116741Y-81779262D01*
X124203834Y-81679431D01*
X124286978Y-81573197D01*
X124366371Y-81461443D01*
X124442209Y-81345055D01*
X124514691Y-81224915D01*
X124584014Y-81101906D01*
X124650376Y-80976914D01*
X124713975Y-80850821D01*
X124833674Y-80598868D01*
X124833678Y-80598868D01*
X125199960Y-79825209D01*
X125422665Y-79316247D01*
X125529149Y-79048081D01*
X125626766Y-78777210D01*
X125711298Y-78508448D01*
X125778529Y-78246607D01*
X125824242Y-77996502D01*
X125837712Y-77877355D01*
X125844221Y-77762946D01*
X125843241Y-77653879D01*
X125834247Y-77550754D01*
X125816711Y-77454173D01*
X125790105Y-77364738D01*
X125753904Y-77283050D01*
X125707579Y-77209712D01*
X125650603Y-77145325D01*
X125582450Y-77090490D01*
X125505659Y-77213759D01*
X125433708Y-77334738D01*
X125366107Y-77453740D01*
X125302362Y-77571079D01*
X125184471Y-77802026D01*
X125076100Y-78030089D01*
X124659053Y-78963736D01*
X123365241Y-81760382D01*
X123360461Y-81772658D01*
X123356524Y-81786098D01*
X123353402Y-81800592D01*
X123351070Y-81816034D01*
X123349502Y-81832314D01*
X123348671Y-81849326D01*
X104589590Y-81849326D01*
X104698554Y-81666803D01*
X105012069Y-81112506D01*
X105314329Y-80549558D01*
X105607102Y-79976627D01*
X105892153Y-79392378D01*
X106202465Y-78703881D01*
X106477213Y-78009422D01*
X106714382Y-77310236D01*
X106911957Y-76607554D01*
X107067921Y-75902608D01*
X107180261Y-75196632D01*
X107246960Y-74490857D01*
X107266002Y-73786516D01*
X107235374Y-73084842D01*
X107153058Y-72387067D01*
X107017041Y-71694423D01*
X106825306Y-71008142D01*
X106575838Y-70329458D01*
X106428824Y-69993350D01*
X106266622Y-69659603D01*
X106088978Y-69328372D01*
X105895642Y-68999809D01*
X105686361Y-68674070D01*
X105460883Y-68351309D01*
X105255426Y-68081992D01*
X105039232Y-67823339D01*
X104576575Y-67338766D01*
X104076804Y-66899066D01*
X103543811Y-66505716D01*
X102981486Y-66160192D01*
X102393721Y-65863972D01*
X101784407Y-65618532D01*
X101157435Y-65425348D01*
X100516696Y-65285898D01*
X99866082Y-65201658D01*
X99209484Y-65174104D01*
X98550793Y-65204713D01*
X98221879Y-65242290D01*
X97893901Y-65294962D01*
X97567345Y-65362913D01*
X97242698Y-65446328D01*
X96920446Y-65545390D01*
X96601076Y-65660286D01*
X96285074Y-65791199D01*
X95972926Y-65938315D01*
X95595761Y-66141096D01*
X95235807Y-66362373D01*
X94893237Y-66601234D01*
X94568226Y-66856765D01*
X94260946Y-67128052D01*
X93971571Y-67414184D01*
X93700274Y-67714245D01*
X93447229Y-68027324D01*
X93212610Y-68352506D01*
X92996589Y-68688880D01*
X92799340Y-69035530D01*
X92621037Y-69391546D01*
X92461852Y-69756012D01*
X92321961Y-70128015D01*
X92201535Y-70506644D01*
X92100748Y-70890984D01*
X92019774Y-71280122D01*
X91958786Y-71673145D01*
X91917958Y-72069139D01*
X91897463Y-72467193D01*
X91897475Y-72866391D01*
X91918166Y-73265821D01*
X91959711Y-73664571D01*
X92022282Y-74061726D01*
X92106054Y-74456373D01*
X92211200Y-74847600D01*
X92337892Y-75234492D01*
X92486305Y-75616138D01*
X92656613Y-75991622D01*
X92848987Y-76360033D01*
X93063603Y-76720458D01*
X93300633Y-77071982D01*
X93415638Y-77226883D01*
X93533332Y-77375564D01*
X93653553Y-77518749D01*
X93776139Y-77657163D01*
X93900926Y-77791531D01*
X94027752Y-77922577D01*
X94286868Y-78177605D01*
X94822401Y-78679693D01*
X95096214Y-78938351D01*
X95372321Y-79209814D01*
X95246234Y-79249451D01*
X95120915Y-79284204D01*
X94996263Y-79314338D01*
X94872176Y-79340116D01*
X94748555Y-79361802D01*
X94625298Y-79379658D01*
X94502304Y-79393950D01*
X94379473Y-79404939D01*
X94256704Y-79412890D01*
X94133896Y-79418065D01*
X93887762Y-79421145D01*
X93640263Y-79416288D01*
X93390593Y-79405600D01*
X92992580Y-79377983D01*
X92598871Y-79337401D01*
X92209662Y-79284005D01*
X91825148Y-79217946D01*
X91445526Y-79139374D01*
X91070990Y-79048440D01*
X90701737Y-78945295D01*
X90337962Y-78830089D01*
X89979862Y-78702972D01*
X89627631Y-78564097D01*
X89281466Y-78413612D01*
X88941562Y-78251670D01*
X88608115Y-78078420D01*
X88281320Y-77894013D01*
X87961375Y-77698600D01*
X87648473Y-77492332D01*
X87342811Y-77275359D01*
X87044585Y-77047831D01*
X86753990Y-76809901D01*
X86471222Y-76561717D01*
X86196477Y-76303432D01*
X85929950Y-76035195D01*
X85671838Y-75757158D01*
X85422335Y-75469470D01*
X85181639Y-75172283D01*
X84949943Y-74865747D01*
X84727445Y-74550013D01*
X84514340Y-74225231D01*
X84310823Y-73891553D01*
X84117090Y-73549129D01*
X83933337Y-73198109D01*
X83759761Y-72838644D01*
X83582504Y-72439864D01*
X83418732Y-72038211D01*
X83268284Y-71633606D01*
X83131002Y-71225966D01*
X83006727Y-70815209D01*
X82895301Y-70401256D01*
X82796563Y-69984024D01*
X82710356Y-69563431D01*
X82677396Y-69374145D01*
X85209762Y-69374145D01*
X85219680Y-69617836D01*
X85245504Y-69874488D01*
X85286931Y-70138983D01*
X85343660Y-70406208D01*
X85415388Y-70671044D01*
X85501813Y-70928378D01*
X85602633Y-71173092D01*
X85658346Y-71289118D01*
X85717544Y-71400070D01*
X85780190Y-71505310D01*
X85846246Y-71604197D01*
X85915673Y-71696093D01*
X85988435Y-71780357D01*
X86064492Y-71856350D01*
X86143809Y-71923433D01*
X86226346Y-71980967D01*
X86312066Y-72028311D01*
X86400931Y-72064826D01*
X86492903Y-72089872D01*
X86503466Y-72090773D01*
X86513811Y-72089102D01*
X86523923Y-72085002D01*
X86533785Y-72078614D01*
X86543381Y-72070082D01*
X86552697Y-72059546D01*
X86561714Y-72047149D01*
X86570419Y-72033032D01*
X86586823Y-72000208D01*
X86601781Y-71962211D01*
X86615166Y-71920174D01*
X86626850Y-71875235D01*
X86636704Y-71828528D01*
X86644600Y-71781189D01*
X86650412Y-71734354D01*
X86654011Y-71689159D01*
X86655268Y-71646739D01*
X86654057Y-71608229D01*
X86650248Y-71574765D01*
X86643716Y-71547484D01*
X85844676Y-69097441D01*
X85838531Y-69080489D01*
X85831050Y-69063409D01*
X85822292Y-69046255D01*
X85812316Y-69029086D01*
X85788946Y-68994927D01*
X85761415Y-68961383D01*
X85730193Y-68928910D01*
X85695754Y-68897960D01*
X85658572Y-68868987D01*
X85619118Y-68842444D01*
X85577866Y-68818784D01*
X85535289Y-68798461D01*
X85491859Y-68781929D01*
X85469972Y-68775226D01*
X85448049Y-68769641D01*
X85426149Y-68765229D01*
X85404332Y-68762049D01*
X85382656Y-68760157D01*
X85361181Y-68759609D01*
X85339965Y-68760462D01*
X85319069Y-68762773D01*
X85298550Y-68766598D01*
X85278468Y-68771994D01*
X85256540Y-68855193D01*
X85238854Y-68946108D01*
X85216053Y-69148530D01*
X85209762Y-69374145D01*
X82677396Y-69374145D01*
X82636520Y-69139397D01*
X82574896Y-68711839D01*
X82525326Y-68280678D01*
X82487651Y-67845830D01*
X82461711Y-67407215D01*
X82447348Y-66964752D01*
X82444403Y-66518358D01*
X82452717Y-66067953D01*
X82466774Y-65840470D01*
X87851370Y-65840470D01*
X87865322Y-66157150D01*
X87885054Y-66286171D01*
X87913718Y-66393385D01*
X87946333Y-66389622D01*
X87977719Y-66383836D01*
X88007904Y-66376099D01*
X88036914Y-66366482D01*
X88064778Y-66355054D01*
X88091521Y-66341887D01*
X88117171Y-66327052D01*
X88141756Y-66310619D01*
X88165301Y-66292659D01*
X88187835Y-66273243D01*
X88209385Y-66252441D01*
X88229977Y-66230324D01*
X88268399Y-66182429D01*
X88303316Y-66130123D01*
X88334948Y-66073973D01*
X88363509Y-66014544D01*
X88389218Y-65952402D01*
X88412291Y-65888113D01*
X88432946Y-65822242D01*
X88451400Y-65755356D01*
X88467869Y-65688021D01*
X88482571Y-65620802D01*
X88615442Y-65008907D01*
X88760715Y-64415089D01*
X88919382Y-63835843D01*
X89092437Y-63267666D01*
X89277080Y-62718329D01*
X103053172Y-62718329D01*
X103056560Y-62738568D01*
X103061235Y-62759075D01*
X103067153Y-62779807D01*
X103074267Y-62800721D01*
X103091903Y-62842925D01*
X103113779Y-62885346D01*
X103139531Y-62927643D01*
X103168794Y-62969476D01*
X103201204Y-63010502D01*
X103236397Y-63050381D01*
X103274008Y-63088772D01*
X103313674Y-63125333D01*
X103355029Y-63159724D01*
X103397710Y-63191603D01*
X103441351Y-63220630D01*
X103485590Y-63246463D01*
X103530061Y-63268761D01*
X103574401Y-63287184D01*
X104201525Y-63543803D01*
X104804217Y-63837466D01*
X105381360Y-64166771D01*
X105931838Y-64530313D01*
X106454535Y-64926691D01*
X106948335Y-65354501D01*
X107412120Y-65812339D01*
X107844776Y-66298804D01*
X108245186Y-66812492D01*
X108612234Y-67352001D01*
X108944803Y-67915926D01*
X109241777Y-68502865D01*
X109502040Y-69111415D01*
X109724476Y-69740173D01*
X109907969Y-70387737D01*
X110051402Y-71052702D01*
X110114916Y-71431621D01*
X110166733Y-71810322D01*
X110207124Y-72188775D01*
X110236361Y-72566949D01*
X110254715Y-72944812D01*
X110262457Y-73322334D01*
X110259859Y-73699484D01*
X110247192Y-74076231D01*
X110224727Y-74452544D01*
X110192735Y-74828391D01*
X110151488Y-75203743D01*
X110101258Y-75578567D01*
X110042314Y-75952833D01*
X109974929Y-76326511D01*
X109815921Y-77071974D01*
X109813973Y-77082484D01*
X109812586Y-77094106D01*
X109811446Y-77120292D01*
X109812398Y-77149748D01*
X109815343Y-77181693D01*
X109820179Y-77215343D01*
X109826805Y-77249916D01*
X109835121Y-77284628D01*
X109845027Y-77318696D01*
X109856420Y-77351338D01*
X109869201Y-77381771D01*
X109876081Y-77395915D01*
X109883269Y-77409212D01*
X109890754Y-77421566D01*
X109898523Y-77432878D01*
X109906563Y-77443051D01*
X109914862Y-77451986D01*
X109923407Y-77459586D01*
X109932185Y-77465754D01*
X109941184Y-77470390D01*
X109950392Y-77473397D01*
X109959795Y-77474678D01*
X109969382Y-77474135D01*
X110016974Y-77464703D01*
X110063503Y-77450459D01*
X110108957Y-77431646D01*
X110153329Y-77408506D01*
X110196608Y-77381281D01*
X110238783Y-77350213D01*
X110279847Y-77315544D01*
X110319789Y-77277518D01*
X110396267Y-77192358D01*
X110468141Y-77096671D01*
X110535333Y-76992397D01*
X110597766Y-76881471D01*
X110655362Y-76765832D01*
X110708044Y-76647419D01*
X110755733Y-76528168D01*
X110798354Y-76410018D01*
X110835827Y-76294906D01*
X110868076Y-76184771D01*
X110895023Y-76081550D01*
X110916590Y-75987181D01*
X110913947Y-75987181D01*
X111008350Y-75491830D01*
X111082787Y-74994020D01*
X111137386Y-74494531D01*
X111172272Y-73994145D01*
X111187572Y-73493643D01*
X111183413Y-72993806D01*
X111159920Y-72495415D01*
X111117221Y-71999250D01*
X111055441Y-71506092D01*
X110974708Y-71016723D01*
X110875147Y-70531924D01*
X110756886Y-70052475D01*
X110620050Y-69579157D01*
X110464766Y-69112752D01*
X110291160Y-68654040D01*
X110099360Y-68203802D01*
X109889490Y-67762820D01*
X109661679Y-67331874D01*
X109416051Y-66911744D01*
X109152735Y-66503213D01*
X108871855Y-66107061D01*
X108573539Y-65724070D01*
X108257913Y-65355019D01*
X107925104Y-65000690D01*
X107575237Y-64661864D01*
X107208440Y-64339321D01*
X106824839Y-64033844D01*
X106424559Y-63746212D01*
X106007729Y-63477207D01*
X105574473Y-63227610D01*
X105124920Y-62998202D01*
X104659194Y-62789763D01*
X104567412Y-62753730D01*
X104473743Y-62722015D01*
X104378346Y-62694595D01*
X104281378Y-62671446D01*
X104183000Y-62652544D01*
X104083370Y-62637867D01*
X103982647Y-62627392D01*
X103880989Y-62621094D01*
X103778557Y-62618951D01*
X103675508Y-62620939D01*
X103572002Y-62627036D01*
X103468197Y-62637218D01*
X103364253Y-62651461D01*
X103260328Y-62669743D01*
X103156581Y-62692040D01*
X103053172Y-62718329D01*
X89277080Y-62718329D01*
X89280870Y-62707054D01*
X89485674Y-62150504D01*
X89707841Y-61594512D01*
X89948363Y-61035574D01*
X89948361Y-61035574D01*
X89953269Y-61023335D01*
X89957576Y-61009994D01*
X89961287Y-60995645D01*
X89964407Y-60980380D01*
X89968890Y-60947471D01*
X89971059Y-60912007D01*
X89971055Y-60910596D01*
X118947210Y-60910596D01*
X118947688Y-60939057D01*
X118949903Y-60969518D01*
X118953745Y-61001455D01*
X118959106Y-61034346D01*
X118965879Y-61067667D01*
X118973953Y-61100895D01*
X118983221Y-61133507D01*
X118993574Y-61164979D01*
X119004904Y-61194789D01*
X119017102Y-61222413D01*
X119030059Y-61247329D01*
X119043667Y-61269012D01*
X119050682Y-61278478D01*
X119057818Y-61286940D01*
X120213385Y-62554622D01*
X120500572Y-62879992D01*
X120779015Y-63210168D01*
X120913698Y-63377282D01*
X121044684Y-63545864D01*
X121171468Y-63716005D01*
X121293547Y-63887793D01*
X121407244Y-64057211D01*
X121514856Y-64227449D01*
X121712906Y-64569322D01*
X121889865Y-64911287D01*
X122047898Y-65251222D01*
X122189173Y-65587002D01*
X122315855Y-65916503D01*
X122430113Y-66237602D01*
X122534111Y-66548174D01*
X122719996Y-67129243D01*
X122890844Y-67642720D01*
X122976044Y-67868802D01*
X123063986Y-68071613D01*
X123156833Y-68249031D01*
X123205774Y-68327554D01*
X123256754Y-68398932D01*
X123259398Y-68398939D01*
X123304839Y-68448832D01*
X123347218Y-68477012D01*
X123386265Y-68484293D01*
X123421709Y-68471489D01*
X123453280Y-68439412D01*
X123480705Y-68388877D01*
X123522040Y-68235684D01*
X123543545Y-68018418D01*
X123543056Y-67743585D01*
X123518406Y-67417693D01*
X123467428Y-67047250D01*
X123387955Y-66638762D01*
X123277821Y-66198738D01*
X123134860Y-65733684D01*
X122956905Y-65250109D01*
X122741789Y-64754518D01*
X122487346Y-64253420D01*
X122191410Y-63753323D01*
X121851813Y-63260733D01*
X121578518Y-62899312D01*
X121299084Y-62547720D01*
X121156464Y-62376744D01*
X121011588Y-62209586D01*
X120864216Y-62046698D01*
X120714108Y-61888536D01*
X120561023Y-61735551D01*
X120404721Y-61588198D01*
X120244962Y-61446929D01*
X120081506Y-61312199D01*
X119914112Y-61184461D01*
X119742540Y-61064168D01*
X119566550Y-60951773D01*
X119385901Y-60847731D01*
X119362717Y-60836190D01*
X119336230Y-60825474D01*
X119307046Y-60815727D01*
X119275769Y-60807093D01*
X119243004Y-60799715D01*
X119209355Y-60793735D01*
X119175427Y-60789299D01*
X119141825Y-60786548D01*
X119109153Y-60785626D01*
X119078015Y-60786678D01*
X119049017Y-60789845D01*
X119035509Y-60792267D01*
X119022763Y-60795272D01*
X119010854Y-60798878D01*
X118999857Y-60803102D01*
X118989849Y-60807963D01*
X118980905Y-60813478D01*
X118973100Y-60819666D01*
X118966510Y-60826544D01*
X118961211Y-60834131D01*
X118957278Y-60842444D01*
X118954323Y-60851626D01*
X118951896Y-60861766D01*
X118948576Y-60884658D01*
X118947210Y-60910596D01*
X89971055Y-60910596D01*
X89970949Y-60874730D01*
X89968594Y-60836380D01*
X89964031Y-60797696D01*
X89957293Y-60759419D01*
X89948416Y-60722289D01*
X89937434Y-60687046D01*
X89931165Y-60670363D01*
X89924382Y-60654431D01*
X89917091Y-60639340D01*
X89909296Y-60625183D01*
X89901001Y-60612054D01*
X89892210Y-60600044D01*
X89882928Y-60589246D01*
X89873159Y-60579753D01*
X89862907Y-60571657D01*
X89852177Y-60565051D01*
X89840974Y-60560026D01*
X89829301Y-60556677D01*
X89730849Y-60551434D01*
X89631665Y-60575252D01*
X89532071Y-60626438D01*
X89432389Y-60703294D01*
X89332942Y-60804126D01*
X89234052Y-60927237D01*
X89039230Y-61233516D01*
X88850500Y-61608565D01*
X88670441Y-62038821D01*
X88501629Y-62510718D01*
X88346642Y-63010690D01*
X88208057Y-63525173D01*
X88088451Y-64040601D01*
X87990402Y-64543410D01*
X87916488Y-65020035D01*
X87869284Y-65456910D01*
X87851370Y-65840470D01*
X82466774Y-65840470D01*
X82503397Y-65247748D01*
X85050925Y-65247748D01*
X85051272Y-65259760D01*
X85052772Y-65272905D01*
X85055370Y-65287078D01*
X85059007Y-65302172D01*
X85063629Y-65318079D01*
X85069180Y-65334694D01*
X85082841Y-65369619D01*
X85099540Y-65406094D01*
X85118828Y-65443267D01*
X85140256Y-65480285D01*
X85163373Y-65516296D01*
X85187731Y-65550446D01*
X85212880Y-65581883D01*
X85225610Y-65596318D01*
X85238369Y-65609755D01*
X85251101Y-65622087D01*
X85263750Y-65633208D01*
X85276259Y-65643011D01*
X85288573Y-65651390D01*
X85300634Y-65658238D01*
X85312388Y-65663449D01*
X85323777Y-65666916D01*
X85334746Y-65668531D01*
X85345238Y-65668190D01*
X85355197Y-65665785D01*
X85365134Y-65661840D01*
X85375564Y-65656980D01*
X85397711Y-65644706D01*
X85421245Y-65629340D01*
X85445775Y-65611256D01*
X85470910Y-65590831D01*
X85496258Y-65568442D01*
X85521427Y-65544463D01*
X85546027Y-65519271D01*
X85569666Y-65493242D01*
X85591952Y-65466752D01*
X85612494Y-65440177D01*
X85630901Y-65413892D01*
X85646780Y-65388275D01*
X85659742Y-65363700D01*
X85665006Y-65351921D01*
X85669393Y-65340543D01*
X85672855Y-65329615D01*
X85675343Y-65319182D01*
X86201863Y-62699804D01*
X86293447Y-62278674D01*
X86397515Y-61864559D01*
X86514024Y-61457405D01*
X86642932Y-61057157D01*
X86784195Y-60663762D01*
X86937771Y-60277164D01*
X87103618Y-59897310D01*
X87281693Y-59524146D01*
X87471954Y-59157617D01*
X87674356Y-58797669D01*
X87888859Y-58444247D01*
X88115420Y-58097298D01*
X88353995Y-57756767D01*
X88604542Y-57422599D01*
X88867019Y-57094741D01*
X89141383Y-56773138D01*
X89292920Y-56603985D01*
X89447690Y-56436778D01*
X89765717Y-56107797D01*
X90093046Y-55785389D01*
X90427258Y-55468747D01*
X90765935Y-55157067D01*
X91106658Y-54849541D01*
X91784569Y-54243727D01*
X91787219Y-54243727D01*
X91794543Y-54236422D01*
X91802097Y-54227485D01*
X91817692Y-54205188D01*
X91833605Y-54177791D01*
X91849437Y-54146247D01*
X91864788Y-54111509D01*
X91879259Y-54074530D01*
X91892451Y-54036265D01*
X91903965Y-53997666D01*
X91913402Y-53959688D01*
X91920362Y-53923283D01*
X91924446Y-53889405D01*
X91925285Y-53873711D01*
X91925256Y-53859007D01*
X91924307Y-53845411D01*
X91922391Y-53833043D01*
X91919456Y-53822022D01*
X91915452Y-53812466D01*
X91910331Y-53804496D01*
X91904042Y-53798230D01*
X91896534Y-53793788D01*
X91887759Y-53791289D01*
X91406218Y-53714560D01*
X90700872Y-54218770D01*
X90030353Y-54761628D01*
X89396003Y-55341043D01*
X88799162Y-55954920D01*
X88241171Y-56601167D01*
X87723372Y-57277692D01*
X87247105Y-57982401D01*
X86813712Y-58713201D01*
X86424533Y-59467999D01*
X86080909Y-60244704D01*
X85784182Y-61041221D01*
X85535692Y-61855458D01*
X85336780Y-62685322D01*
X85188788Y-63528720D01*
X85093056Y-64383560D01*
X85050925Y-65247748D01*
X82503397Y-65247748D01*
X82524043Y-64913616D01*
X82664524Y-63773971D01*
X82872558Y-62651495D01*
X83146546Y-61548665D01*
X83484886Y-60467958D01*
X83885979Y-59411851D01*
X84348223Y-58382819D01*
X84870017Y-57383339D01*
X85449761Y-56415888D01*
X86085855Y-55482943D01*
X86776697Y-54586980D01*
X87520687Y-53730476D01*
X87557873Y-53692401D01*
X118163855Y-53692401D01*
X118165621Y-53738149D01*
X118169731Y-53783234D01*
X118176267Y-53826714D01*
X118185311Y-53867648D01*
X118196944Y-53905094D01*
X118203757Y-53922214D01*
X118211247Y-53938109D01*
X118219426Y-53952661D01*
X118228302Y-53965752D01*
X118237887Y-53977265D01*
X118248191Y-53987082D01*
X119100939Y-54721213D01*
X119922580Y-55496612D01*
X120709728Y-56311451D01*
X121458993Y-57163901D01*
X122166990Y-58052130D01*
X122830331Y-58974312D01*
X123445628Y-59928615D01*
X124009494Y-60913211D01*
X124518542Y-61926270D01*
X124969384Y-62965964D01*
X125358633Y-64030461D01*
X125682902Y-65117935D01*
X125938802Y-66226554D01*
X126122948Y-67354490D01*
X126231950Y-68499913D01*
X126262423Y-69660994D01*
X126233317Y-72994742D01*
X126234048Y-73005686D01*
X126236190Y-73017619D01*
X126239663Y-73030445D01*
X126244391Y-73044066D01*
X126250296Y-73058387D01*
X126257298Y-73073312D01*
X126274286Y-73104584D01*
X126294732Y-73137113D01*
X126318010Y-73170126D01*
X126343498Y-73202853D01*
X126370570Y-73234521D01*
X126398604Y-73264360D01*
X126426975Y-73291598D01*
X126455060Y-73315465D01*
X126468799Y-73325892D01*
X126482233Y-73335188D01*
X126495283Y-73343255D01*
X126507872Y-73349996D01*
X126519920Y-73355317D01*
X126531351Y-73359119D01*
X126542087Y-73361307D01*
X126552048Y-73361785D01*
X126561158Y-73360455D01*
X126569338Y-73357222D01*
X126585950Y-73347957D01*
X126604747Y-73336189D01*
X126625311Y-73322141D01*
X126647225Y-73306040D01*
X126670068Y-73288109D01*
X126693423Y-73268574D01*
X126716871Y-73247659D01*
X126739994Y-73225589D01*
X126762373Y-73202589D01*
X126783589Y-73178884D01*
X126803223Y-73154698D01*
X126820858Y-73130256D01*
X126836075Y-73105784D01*
X126842645Y-73093607D01*
X126848454Y-73081506D01*
X126853449Y-73069509D01*
X126857578Y-73057646D01*
X126860789Y-73045943D01*
X126863028Y-73034430D01*
X126863024Y-73031782D01*
X126968337Y-72276769D01*
X127046961Y-71518532D01*
X127098625Y-70758062D01*
X127123059Y-69996352D01*
X127119991Y-69234394D01*
X127089149Y-68473179D01*
X127030263Y-67713702D01*
X126943060Y-66956952D01*
X126827270Y-66203924D01*
X126682622Y-65455608D01*
X126508843Y-64712997D01*
X126305663Y-63977083D01*
X126072810Y-63248859D01*
X125810014Y-62529317D01*
X125517002Y-61819448D01*
X125193503Y-61120245D01*
X125043566Y-60820621D01*
X124889455Y-60525811D01*
X124731213Y-60235543D01*
X124568881Y-59949546D01*
X124232121Y-59389280D01*
X123879518Y-58842843D01*
X123511411Y-58308064D01*
X123128143Y-57782773D01*
X122730053Y-57264800D01*
X122317485Y-56751974D01*
X122012144Y-56403295D01*
X121531714Y-55889849D01*
X120934267Y-55284254D01*
X120609811Y-54969592D01*
X120277878Y-54659124D01*
X119945729Y-54361926D01*
X119620621Y-54087075D01*
X119309815Y-53843649D01*
X119020570Y-53640724D01*
X118886301Y-53557287D01*
X118760145Y-53487378D01*
X118643008Y-53432133D01*
X118535798Y-53392687D01*
X118439423Y-53370174D01*
X118354790Y-53365728D01*
X118282806Y-53380485D01*
X118224379Y-53415579D01*
X118217141Y-53423233D01*
X118210316Y-53432723D01*
X118203914Y-53443931D01*
X118197946Y-53456739D01*
X118187352Y-53486684D01*
X118178614Y-53521619D01*
X118171814Y-53560599D01*
X118167033Y-53602684D01*
X118164353Y-53646932D01*
X118163855Y-53692401D01*
X87557873Y-53692401D01*
X88316225Y-52915908D01*
X89161709Y-52145751D01*
X90055538Y-51422482D01*
X90996113Y-50748579D01*
X91905999Y-50164251D01*
X92835808Y-49621731D01*
X93784026Y-49121016D01*
X94749134Y-48662104D01*
X95729618Y-48244992D01*
X96723961Y-47869676D01*
X98748156Y-47244424D01*
X100809590Y-46786324D01*
X102896130Y-46495353D01*
X104995646Y-46371488D01*
X107096008Y-46414706D01*
G37*
G36*
X162377062Y-76560014D02*
G01*
X162466053Y-76571995D01*
X162554628Y-76589883D01*
X162641971Y-76613383D01*
X162727264Y-76642200D01*
X162809688Y-76676040D01*
X162888427Y-76714609D01*
X162962663Y-76757612D01*
X163031577Y-76804754D01*
X163085767Y-76849538D01*
X163138683Y-76902949D01*
X163189545Y-76964127D01*
X163237575Y-77032212D01*
X163281992Y-77106343D01*
X163322018Y-77185659D01*
X163356875Y-77269301D01*
X163385782Y-77356408D01*
X163407961Y-77446120D01*
X163422633Y-77537575D01*
X163426910Y-77583688D01*
X163429019Y-77629914D01*
X163428861Y-77676147D01*
X163426339Y-77722277D01*
X163421356Y-77768198D01*
X163413815Y-77813802D01*
X163403618Y-77858982D01*
X163390667Y-77903630D01*
X163374866Y-77947638D01*
X163356117Y-77990900D01*
X163334323Y-78033306D01*
X163309386Y-78074751D01*
X163309394Y-78074751D01*
X163272867Y-78127409D01*
X163234319Y-78176283D01*
X163193884Y-78221434D01*
X163151695Y-78262921D01*
X163107886Y-78300806D01*
X163062591Y-78335149D01*
X163015943Y-78366010D01*
X162968076Y-78393451D01*
X162919125Y-78417531D01*
X162869221Y-78438312D01*
X162818500Y-78455854D01*
X162767096Y-78470216D01*
X162715140Y-78481461D01*
X162662768Y-78489649D01*
X162610114Y-78494839D01*
X162557310Y-78497093D01*
X162504490Y-78496472D01*
X162451789Y-78493035D01*
X162399340Y-78486843D01*
X162347276Y-78477957D01*
X162295732Y-78466438D01*
X162244841Y-78452345D01*
X162194736Y-78435740D01*
X162145552Y-78416683D01*
X162097422Y-78395235D01*
X162050480Y-78371456D01*
X162004860Y-78345407D01*
X161960694Y-78317148D01*
X161918118Y-78286740D01*
X161877265Y-78254243D01*
X161838268Y-78219718D01*
X161801261Y-78183226D01*
X161739043Y-78112784D01*
X161680918Y-78035045D01*
X161627691Y-77950956D01*
X161580170Y-77861469D01*
X161539159Y-77767532D01*
X161505466Y-77670096D01*
X161479897Y-77570109D01*
X161470410Y-77519456D01*
X161463256Y-77468521D01*
X161458537Y-77417424D01*
X161456352Y-77366283D01*
X161456803Y-77315216D01*
X161459990Y-77264343D01*
X161466014Y-77213781D01*
X161474976Y-77163651D01*
X161486976Y-77114070D01*
X161502116Y-77065157D01*
X161520496Y-77017030D01*
X161542217Y-76969810D01*
X161567379Y-76923613D01*
X161596084Y-76878560D01*
X161628432Y-76834768D01*
X161664524Y-76792356D01*
X161704461Y-76751444D01*
X161748343Y-76712149D01*
X161778960Y-76688160D01*
X161811212Y-76666273D01*
X161844995Y-76646453D01*
X161880207Y-76628661D01*
X161916747Y-76612861D01*
X161954513Y-76599017D01*
X161993401Y-76587091D01*
X162033310Y-76577047D01*
X162115781Y-76562456D01*
X162201109Y-76554950D01*
X162288475Y-76554234D01*
X162377062Y-76560014D01*
G37*
G36*
X168574599Y-97892042D02*
G01*
X168576528Y-98316687D01*
X168582512Y-98519456D01*
X168593032Y-98715969D01*
X168608977Y-98906313D01*
X168631241Y-99090571D01*
X168660713Y-99268830D01*
X168698286Y-99441175D01*
X168744850Y-99607690D01*
X168801298Y-99768462D01*
X168833506Y-99846720D01*
X168868520Y-99923575D01*
X168906450Y-99999036D01*
X168947408Y-100073115D01*
X168991505Y-100145822D01*
X169038853Y-100217167D01*
X169089563Y-100287161D01*
X169143746Y-100355816D01*
X169201515Y-100423141D01*
X169262980Y-100489147D01*
X169328252Y-100553846D01*
X169397444Y-100617247D01*
X168741278Y-101302519D01*
X166238326Y-101778769D01*
X166183825Y-101661860D01*
X166132595Y-101543491D01*
X166084868Y-101423936D01*
X166040878Y-101303470D01*
X166000857Y-101182368D01*
X165965036Y-101060906D01*
X165933650Y-100939358D01*
X165906930Y-100818001D01*
X165885108Y-100697109D01*
X165868419Y-100576957D01*
X165857093Y-100457820D01*
X165851365Y-100339974D01*
X165851465Y-100223694D01*
X165857627Y-100109254D01*
X165870084Y-99996931D01*
X165889067Y-99886999D01*
X166214339Y-99609305D01*
X166537131Y-99339765D01*
X166860171Y-99078348D01*
X167186187Y-98825024D01*
X167517909Y-98579761D01*
X167858065Y-98342530D01*
X168209383Y-98113298D01*
X168390080Y-98001672D01*
X168574591Y-97892035D01*
X168574599Y-97892042D01*
G37*
G36*
X190676668Y-109743539D02*
G01*
X190723601Y-110086139D01*
X190761232Y-110427436D01*
X190775145Y-110597044D01*
X190785035Y-110765663D01*
X190790336Y-110933073D01*
X190790482Y-111099053D01*
X190784907Y-111263382D01*
X190773046Y-111425838D01*
X190754333Y-111586202D01*
X190728201Y-111744252D01*
X190694085Y-111899767D01*
X190651419Y-112052527D01*
X190651412Y-112052542D01*
X190628843Y-112117935D01*
X190602414Y-112181664D01*
X190572281Y-112243739D01*
X190538599Y-112304170D01*
X190501524Y-112362968D01*
X190461211Y-112420142D01*
X190371495Y-112529661D01*
X190270693Y-112632809D01*
X190160051Y-112729666D01*
X190040813Y-112820314D01*
X189914222Y-112904835D01*
X189781523Y-112983309D01*
X189643960Y-113055819D01*
X189502778Y-113122445D01*
X189359219Y-113183269D01*
X189214528Y-113238372D01*
X189069951Y-113287835D01*
X188926729Y-113331741D01*
X188786109Y-113370169D01*
X186994879Y-112179541D01*
X186998080Y-112096487D01*
X187004606Y-112013072D01*
X187014311Y-111929371D01*
X187027046Y-111845458D01*
X187042664Y-111761405D01*
X187061019Y-111677286D01*
X187081962Y-111593175D01*
X187105347Y-111509146D01*
X187131027Y-111425272D01*
X187158853Y-111341627D01*
X187188680Y-111258284D01*
X187220359Y-111175317D01*
X187288685Y-111010807D01*
X187362654Y-110848684D01*
X187611167Y-110854407D01*
X187851071Y-110845099D01*
X188082938Y-110821234D01*
X188307337Y-110783284D01*
X188524837Y-110731722D01*
X188736008Y-110667022D01*
X188941420Y-110589655D01*
X189141642Y-110500096D01*
X189337245Y-110398815D01*
X189528797Y-110286288D01*
X189716869Y-110162985D01*
X189902030Y-110029381D01*
X190084850Y-109885948D01*
X190265899Y-109733159D01*
X190445746Y-109571486D01*
X190624961Y-109401404D01*
X190676668Y-109743539D01*
G37*
G36*
X165224967Y-101942808D02*
G01*
X165005239Y-101952400D01*
X164780797Y-101959014D01*
X164551891Y-101962155D01*
X164318768Y-101961328D01*
X164081676Y-101956035D01*
X163840863Y-101945781D01*
X163596577Y-101930071D01*
X163349066Y-101908407D01*
X163346419Y-101908407D01*
X163426870Y-101776865D01*
X163509429Y-101651798D01*
X163594034Y-101532739D01*
X163680623Y-101419218D01*
X163769135Y-101310767D01*
X163859507Y-101206916D01*
X163951676Y-101107197D01*
X164045582Y-101011140D01*
X164141163Y-100918277D01*
X164238355Y-100828138D01*
X164337098Y-100740255D01*
X164437329Y-100654158D01*
X164642008Y-100485449D01*
X164851897Y-100318258D01*
X165224967Y-101942808D01*
G37*
G36*
X173628750Y-99710787D02*
G01*
X173660719Y-99925582D01*
X173695801Y-100132973D01*
X173735052Y-100333389D01*
X173779532Y-100527254D01*
X173830298Y-100714996D01*
X173888408Y-100897041D01*
X173954921Y-101073814D01*
X174030895Y-101245743D01*
X174117387Y-101413253D01*
X174215457Y-101576772D01*
X174326161Y-101736725D01*
X174450559Y-101893538D01*
X174589708Y-102047639D01*
X174744666Y-102199454D01*
X173728667Y-103051413D01*
X173621288Y-102943555D01*
X173509340Y-102842494D01*
X173393341Y-102747878D01*
X173273809Y-102659356D01*
X173151258Y-102576578D01*
X173026208Y-102499194D01*
X172899174Y-102426851D01*
X172770673Y-102359201D01*
X172511340Y-102236571D01*
X172252344Y-102128498D01*
X171997821Y-102032176D01*
X171751905Y-101944800D01*
X171302439Y-101785657D01*
X171107159Y-101708280D01*
X170937029Y-101628623D01*
X170862687Y-101587063D01*
X170796184Y-101543881D01*
X170738036Y-101498727D01*
X170688759Y-101451248D01*
X170648872Y-101401096D01*
X170618890Y-101347918D01*
X170599331Y-101291365D01*
X170590712Y-101231085D01*
X170590302Y-101200725D01*
X170591992Y-101172097D01*
X170595695Y-101145120D01*
X170601326Y-101119712D01*
X170608797Y-101095793D01*
X170618023Y-101073281D01*
X170628918Y-101052095D01*
X170641395Y-101032152D01*
X170655368Y-101013372D01*
X170670751Y-100995674D01*
X170687457Y-100978975D01*
X170705401Y-100963195D01*
X170724496Y-100948252D01*
X170744655Y-100934065D01*
X170787824Y-100907633D01*
X170834218Y-100883247D01*
X170883146Y-100860256D01*
X170985848Y-100815855D01*
X171090410Y-100769222D01*
X171141664Y-100743440D01*
X171191313Y-100715147D01*
X173569914Y-99257284D01*
X173628750Y-99710787D01*
G37*
D11*
%TO.C,D2*%
X148225000Y-104000000D03*
X154775000Y-104000000D03*
%TD*%
%TO.C,D3*%
X116950000Y-130000000D03*
X123500000Y-130000000D03*
%TD*%
D12*
%TO.C,SW1*%
X152500000Y-138500000D03*
X130500000Y-138500000D03*
%TD*%
D13*
%TO.C,BT1*%
X128500000Y-121650000D03*
X128500000Y-92350000D03*
%TD*%
D11*
%TO.C,D1*%
X142950000Y-82500000D03*
X149500000Y-82500000D03*
%TD*%
M02*
