%TF.GenerationSoftware,KiCad,Pcbnew,9.0.7*%
%TF.CreationDate,2026-05-17T21:17:37+02:00*%
%TF.ProjectId,hochzeits-pcb,686f6368-7a65-4697-9473-2d7063622e6b,rev?*%
%TF.SameCoordinates,Original*%
%TF.FileFunction,Profile,NP*%
%FSLAX46Y46*%
G04 Gerber Fmt 4.6, Leading zero omitted, Abs format (unit mm)*
G04 Created by KiCad (PCBNEW 9.0.7) date 2026-05-17 21:17:37*
%MOMM*%
%LPD*%
G01*
G04 APERTURE LIST*
%TA.AperFunction,Profile*%
%ADD10C,0.066145*%
%TD*%
G04 APERTURE END LIST*
D10*
X107000000Y-44000000D02*
X108270633Y-44092475D01*
X109532998Y-44240906D01*
X110785356Y-44445102D01*
X112025967Y-44704868D01*
X113253090Y-45020010D01*
X114464986Y-45390335D01*
X115659913Y-45815649D01*
X116836133Y-46295757D01*
X117991904Y-46830467D01*
X119125486Y-47419585D01*
X120235140Y-48062916D01*
X121319124Y-48760267D01*
X121874355Y-49147088D01*
X122415064Y-49546517D01*
X122941487Y-49958511D01*
X123453859Y-50383028D01*
X123952419Y-50820025D01*
X124437402Y-51269459D01*
X124909044Y-51731287D01*
X125367582Y-52205468D01*
X125813253Y-52691958D01*
X126246293Y-53190715D01*
X126666938Y-53701696D01*
X127075426Y-54224859D01*
X127471991Y-54760161D01*
X127856872Y-55307559D01*
X128230304Y-55867011D01*
X128592523Y-56438474D01*
X128875850Y-56910896D01*
X129146500Y-57388508D01*
X129404631Y-57871229D01*
X129650402Y-58358976D01*
X129883973Y-58851669D01*
X130105501Y-59349226D01*
X130315147Y-59851565D01*
X130513068Y-60358606D01*
X130699424Y-60870267D01*
X130874374Y-61386466D01*
X131038076Y-61907122D01*
X131190690Y-62432154D01*
X131332374Y-62961479D01*
X131463288Y-63495018D01*
X131693437Y-64574407D01*
X131930816Y-65996282D01*
X132097361Y-67421553D01*
X132193244Y-68847660D01*
X132218635Y-70272046D01*
X132173705Y-71692154D01*
X132058624Y-73105425D01*
X131873563Y-74509301D01*
X131618692Y-75901224D01*
X131294182Y-77278636D01*
X130900204Y-78638980D01*
X130436928Y-79979697D01*
X129904524Y-81298229D01*
X129303164Y-82592019D01*
X128633016Y-83858508D01*
X127894254Y-85095139D01*
X127087046Y-86299352D01*
X127326389Y-86236001D01*
X127564616Y-86165612D01*
X127802347Y-86089084D01*
X128040203Y-86007316D01*
X128278803Y-85921207D01*
X128518768Y-85831657D01*
X129005274Y-85645826D01*
X130288953Y-85174786D01*
X131559490Y-84717140D01*
X132191302Y-84481713D01*
X132821596Y-84235681D01*
X133450959Y-83974396D01*
X134079981Y-83693205D01*
X134504529Y-83489234D01*
X134923350Y-83274015D01*
X135335612Y-83047278D01*
X135740488Y-82808751D01*
X136137147Y-82558162D01*
X136524760Y-82295241D01*
X136902497Y-82019716D01*
X137269530Y-81731316D01*
X137625029Y-81429770D01*
X137968164Y-81114805D01*
X138298106Y-80786152D01*
X138614027Y-80443538D01*
X138915095Y-80086692D01*
X139200482Y-79715344D01*
X139469359Y-79329221D01*
X139720896Y-78928053D01*
X139991338Y-78443319D01*
X140236533Y-77950102D01*
X140461559Y-77447731D01*
X140671494Y-76935535D01*
X141066395Y-75878986D01*
X141461854Y-74775091D01*
X141898488Y-73618486D01*
X142144939Y-73018741D01*
X142416916Y-72403807D01*
X142719495Y-71773013D01*
X143057754Y-71125689D01*
X143436770Y-70461164D01*
X143861620Y-69778768D01*
X143947470Y-69643360D01*
X144030498Y-69503642D01*
X144110860Y-69360514D01*
X144188710Y-69214876D01*
X144264204Y-69067625D01*
X144337496Y-68919661D01*
X144478098Y-68625188D01*
X144258494Y-67649228D01*
X144093709Y-66696224D01*
X143982130Y-65763831D01*
X143922145Y-64849705D01*
X143912141Y-63951500D01*
X143950506Y-63066873D01*
X144035628Y-62193477D01*
X144165894Y-61328969D01*
X144339693Y-60471003D01*
X144555411Y-59617234D01*
X144811437Y-58765318D01*
X145106158Y-57912910D01*
X145437963Y-57057665D01*
X145805237Y-56197238D01*
X146206370Y-55329285D01*
X146639749Y-54451460D01*
X146655888Y-54421839D01*
X146673979Y-54392557D01*
X146715651Y-54335318D01*
X146764020Y-54280349D01*
X146818342Y-54228260D01*
X146877873Y-54179659D01*
X146941869Y-54135155D01*
X147009586Y-54095356D01*
X147080279Y-54060870D01*
X147153205Y-54032306D01*
X147227619Y-54010273D01*
X147265152Y-54001896D01*
X147302777Y-53995379D01*
X147340403Y-53990799D01*
X147377935Y-53988232D01*
X147415282Y-53987755D01*
X147452349Y-53989442D01*
X147489044Y-53993370D01*
X147525274Y-53999616D01*
X147560946Y-54008255D01*
X147595967Y-54019363D01*
X147630243Y-54033016D01*
X147663683Y-54049291D01*
X148034132Y-54253416D01*
X148400062Y-54468718D01*
X148761047Y-54694904D01*
X149116660Y-54931678D01*
X149466475Y-55178745D01*
X149810066Y-55435813D01*
X150147006Y-55702585D01*
X150476868Y-55978767D01*
X150799228Y-56264065D01*
X151113657Y-56558185D01*
X151419730Y-56860831D01*
X151717021Y-57171709D01*
X152005103Y-57490524D01*
X152283549Y-57816983D01*
X152551934Y-58150790D01*
X152809831Y-58491651D01*
X153526850Y-56975584D01*
X153709693Y-56570033D01*
X153876350Y-56164017D01*
X154028497Y-55756079D01*
X154167806Y-55344761D01*
X154295954Y-54928605D01*
X154414614Y-54506155D01*
X154525460Y-54075953D01*
X154630167Y-53636541D01*
X154680452Y-53466662D01*
X154745335Y-53328520D01*
X154823848Y-53220501D01*
X154915024Y-53140995D01*
X155017894Y-53088390D01*
X155131492Y-53061076D01*
X155254850Y-53057440D01*
X155387001Y-53075872D01*
X155526977Y-53114760D01*
X155673810Y-53172493D01*
X155826534Y-53247459D01*
X155984180Y-53338047D01*
X156310370Y-53559645D01*
X156644642Y-53824395D01*
X156979254Y-54119407D01*
X157306467Y-54431789D01*
X157618542Y-54748652D01*
X157907738Y-55057104D01*
X158386536Y-55597215D01*
X158680940Y-55948995D01*
X159017215Y-56383164D01*
X159343110Y-56844514D01*
X159656681Y-57330396D01*
X159955981Y-57838165D01*
X160239066Y-58365173D01*
X160503989Y-58908773D01*
X160748806Y-59466318D01*
X160971569Y-60035161D01*
X161170334Y-60612654D01*
X161343155Y-61196150D01*
X161488086Y-61783003D01*
X161603181Y-62370565D01*
X161686496Y-62956189D01*
X161736084Y-63537228D01*
X161750000Y-64111035D01*
X161726297Y-64674963D01*
X161724503Y-64708397D01*
X161724073Y-64741705D01*
X161724991Y-64774854D01*
X161727241Y-64807812D01*
X161730806Y-64840545D01*
X161735672Y-64873020D01*
X161741821Y-64905204D01*
X161749238Y-64937065D01*
X161757908Y-64968569D01*
X161767813Y-64999684D01*
X161778938Y-65030376D01*
X161791267Y-65060613D01*
X161804784Y-65090361D01*
X161819473Y-65119589D01*
X161835318Y-65148262D01*
X161852302Y-65176347D01*
X161870411Y-65203813D01*
X161889628Y-65230626D01*
X161909937Y-65256752D01*
X161931322Y-65282160D01*
X161953767Y-65306816D01*
X161977255Y-65330686D01*
X162001772Y-65353740D01*
X162027301Y-65375942D01*
X162053826Y-65397261D01*
X162081331Y-65417663D01*
X162109800Y-65437115D01*
X162139217Y-65455585D01*
X162169566Y-65473039D01*
X162200832Y-65489445D01*
X162232997Y-65504769D01*
X162266046Y-65518980D01*
X162834145Y-65759647D01*
X163396097Y-66011604D01*
X163951397Y-66275228D01*
X164499543Y-66550894D01*
X165040030Y-66838977D01*
X165572355Y-67139855D01*
X166096014Y-67453902D01*
X166610503Y-67781496D01*
X167115318Y-68123011D01*
X167609956Y-68478823D01*
X168093912Y-68849310D01*
X168566683Y-69234846D01*
X169027765Y-69635807D01*
X169476655Y-70052570D01*
X169912847Y-70485510D01*
X170335840Y-70935003D01*
X170634169Y-71274870D01*
X170935916Y-71640554D01*
X171239725Y-72028973D01*
X171544239Y-72437047D01*
X172149958Y-73299830D01*
X172742221Y-74204256D01*
X173310175Y-75125673D01*
X173842969Y-76039431D01*
X174329751Y-76920882D01*
X174759668Y-77745374D01*
X177159441Y-82502584D01*
X177315157Y-82838242D01*
X177445102Y-83176071D01*
X177549492Y-83515451D01*
X177628538Y-83855761D01*
X177682454Y-84196381D01*
X177711452Y-84536691D01*
X177715747Y-84876070D01*
X177695552Y-85213900D01*
X177651079Y-85549560D01*
X177582541Y-85882429D01*
X177490152Y-86211887D01*
X177374126Y-86537314D01*
X177234675Y-86858091D01*
X177072012Y-87173596D01*
X176886350Y-87483211D01*
X176677904Y-87786314D01*
X176427816Y-88106386D01*
X176147878Y-88426516D01*
X175841104Y-88745026D01*
X175510510Y-89060238D01*
X175159112Y-89370474D01*
X174789924Y-89674055D01*
X174405961Y-89969303D01*
X174010240Y-90254541D01*
X173605776Y-90528090D01*
X173195583Y-90788271D01*
X172782676Y-91033407D01*
X172370072Y-91261819D01*
X171960786Y-91471830D01*
X171557832Y-91661760D01*
X171164226Y-91829932D01*
X170782984Y-91974668D01*
X169909527Y-92264426D01*
X169032597Y-92517721D01*
X168150955Y-92736290D01*
X167263360Y-92921870D01*
X166368572Y-93076196D01*
X165465351Y-93201005D01*
X164552456Y-93298033D01*
X163628649Y-93369016D01*
X163519411Y-93378231D01*
X163412193Y-93392123D01*
X163307338Y-93410906D01*
X163205193Y-93434792D01*
X163106102Y-93463997D01*
X163057809Y-93480659D01*
X163010409Y-93498731D01*
X162963946Y-93518239D01*
X162918461Y-93539210D01*
X162873999Y-93561670D01*
X162830602Y-93585645D01*
X162788313Y-93611164D01*
X162747176Y-93638251D01*
X162707233Y-93666934D01*
X162668529Y-93697240D01*
X162631105Y-93729195D01*
X162595005Y-93762825D01*
X162560273Y-93798158D01*
X162526951Y-93835221D01*
X162495082Y-93874039D01*
X162464709Y-93914639D01*
X162435877Y-93957049D01*
X162408627Y-94001294D01*
X162383002Y-94047401D01*
X162359047Y-94095398D01*
X162336804Y-94145310D01*
X162316316Y-94197164D01*
X162003739Y-95063346D01*
X161854629Y-95494018D01*
X161710757Y-95925558D01*
X161572466Y-96359826D01*
X161440098Y-96798682D01*
X161313992Y-97243986D01*
X161194490Y-97697599D01*
X161624680Y-97276799D01*
X162072296Y-96884096D01*
X162536454Y-96518815D01*
X163016272Y-96180280D01*
X163510867Y-95867816D01*
X164019354Y-95580745D01*
X165074475Y-95080084D01*
X166174571Y-94672890D01*
X167312575Y-94353756D01*
X168481422Y-94117276D01*
X169674047Y-93958044D01*
X170883385Y-93870652D01*
X172102369Y-93849694D01*
X173323935Y-93889764D01*
X174541016Y-93985454D01*
X175746548Y-94131358D01*
X176933465Y-94322070D01*
X178094702Y-94552183D01*
X179223192Y-94816290D01*
X179459341Y-94296698D01*
X179705462Y-93785816D01*
X179963094Y-93285343D01*
X180233776Y-92796982D01*
X180519045Y-92322435D01*
X180820442Y-91863401D01*
X181139504Y-91421584D01*
X181477771Y-90998684D01*
X181836780Y-90596402D01*
X182218071Y-90216441D01*
X182623182Y-89860502D01*
X182835151Y-89692073D01*
X183053652Y-89530286D01*
X183278877Y-89375356D01*
X183511019Y-89227495D01*
X183750270Y-89086916D01*
X183996822Y-88953830D01*
X184250868Y-88828452D01*
X184512601Y-88710993D01*
X184782211Y-88601666D01*
X185059892Y-88500684D01*
X185192209Y-88458779D01*
X185325041Y-88423532D01*
X185458097Y-88395215D01*
X185591088Y-88374099D01*
X185723722Y-88360455D01*
X185855709Y-88354554D01*
X185986757Y-88356669D01*
X186116577Y-88367070D01*
X186244878Y-88386028D01*
X186371368Y-88413816D01*
X186495758Y-88450703D01*
X186617756Y-88496963D01*
X186737072Y-88552865D01*
X186853416Y-88618681D01*
X186966495Y-88694682D01*
X187021721Y-88736588D01*
X187076021Y-88781141D01*
X187243853Y-88930220D01*
X187406651Y-89086500D01*
X187563844Y-89249616D01*
X187714864Y-89419204D01*
X187859140Y-89594901D01*
X187996103Y-89776341D01*
X188125183Y-89963160D01*
X188245809Y-90154995D01*
X188357414Y-90351480D01*
X188459425Y-90552252D01*
X188551275Y-90756945D01*
X188632393Y-90965197D01*
X188702210Y-91176643D01*
X188760155Y-91390917D01*
X188805659Y-91607657D01*
X188838152Y-91826498D01*
X188847768Y-91926643D01*
X188852859Y-92025119D01*
X188853507Y-92121854D01*
X188849790Y-92216775D01*
X188841788Y-92309811D01*
X188829582Y-92400889D01*
X188813251Y-92489938D01*
X188792876Y-92576884D01*
X188768536Y-92661656D01*
X188740311Y-92744181D01*
X188708281Y-92824388D01*
X188672526Y-92902204D01*
X188633126Y-92977556D01*
X188590160Y-93050374D01*
X188543710Y-93120584D01*
X188493854Y-93188115D01*
X188440673Y-93252894D01*
X188384247Y-93314848D01*
X188324655Y-93373907D01*
X188261977Y-93429997D01*
X188196294Y-93483047D01*
X188127685Y-93532984D01*
X188056231Y-93579736D01*
X187982010Y-93623231D01*
X187905103Y-93663397D01*
X187825591Y-93700161D01*
X187743552Y-93733452D01*
X187659067Y-93763197D01*
X187572217Y-93789323D01*
X187483079Y-93811760D01*
X187391735Y-93830434D01*
X187298265Y-93845274D01*
X187002717Y-93895216D01*
X186713733Y-93962409D01*
X186431866Y-94046430D01*
X186157664Y-94146857D01*
X185891679Y-94263268D01*
X185634461Y-94395240D01*
X185386560Y-94542350D01*
X185148527Y-94704177D01*
X184920912Y-94880297D01*
X184704265Y-95070289D01*
X184499137Y-95273729D01*
X184306079Y-95490196D01*
X184125640Y-95719267D01*
X183958371Y-95960520D01*
X183804822Y-96213532D01*
X183667705Y-96473779D01*
X184730382Y-97016444D01*
X185807790Y-97622299D01*
X186877067Y-98283530D01*
X187928100Y-98998835D01*
X188950779Y-99766912D01*
X189934991Y-100586459D01*
X190870625Y-101456173D01*
X191747568Y-102374752D01*
X192555710Y-103340894D01*
X193284937Y-104353296D01*
X193616799Y-104876439D01*
X193925140Y-105410658D01*
X194208697Y-105955791D01*
X194466205Y-106511675D01*
X194696402Y-107078148D01*
X194898022Y-107655046D01*
X195069802Y-108242207D01*
X195210478Y-108839469D01*
X195318786Y-109446668D01*
X195393461Y-110063641D01*
X195433241Y-110690227D01*
X195436861Y-111326261D01*
X195411978Y-111788190D01*
X195358865Y-112262656D01*
X195277072Y-112744462D01*
X195166150Y-113228412D01*
X195025648Y-113709308D01*
X194944165Y-113946986D01*
X194855118Y-114181951D01*
X194758451Y-114413555D01*
X194654109Y-114641147D01*
X194542035Y-114864077D01*
X194422172Y-115081695D01*
X194294465Y-115293353D01*
X194158858Y-115498400D01*
X194015293Y-115696187D01*
X193863716Y-115886065D01*
X193704069Y-116067382D01*
X193536297Y-116239491D01*
X193360343Y-116401740D01*
X193176151Y-116553481D01*
X192983665Y-116694064D01*
X192782829Y-116822838D01*
X192573587Y-116939156D01*
X192355881Y-117042366D01*
X192129657Y-117131819D01*
X191894858Y-117206865D01*
X191651427Y-117266855D01*
X191399309Y-117311140D01*
X190924810Y-118799698D01*
X190419646Y-120298828D01*
X189877214Y-121796778D01*
X189290909Y-123281799D01*
X188979240Y-124015788D01*
X188654125Y-124742138D01*
X188314741Y-125459380D01*
X187960260Y-126166045D01*
X187589858Y-126860664D01*
X187202708Y-127541768D01*
X186797985Y-128207889D01*
X186374864Y-128857557D01*
X185743063Y-129743308D01*
X185080088Y-130576198D01*
X184386146Y-131356633D01*
X183661443Y-132085021D01*
X182906183Y-132761768D01*
X182120571Y-133387282D01*
X181304815Y-133961970D01*
X180459118Y-134486238D01*
X179583686Y-134960494D01*
X178678725Y-135385144D01*
X177744440Y-135760596D01*
X176781036Y-136087256D01*
X175788720Y-136365532D01*
X174767695Y-136595830D01*
X173718168Y-136778557D01*
X172640344Y-136914121D01*
X172151394Y-136971257D01*
X171673543Y-137040795D01*
X171204994Y-137124720D01*
X170743948Y-137225015D01*
X170515677Y-137281922D01*
X170288607Y-137343666D01*
X170062513Y-137410494D01*
X169837172Y-137482655D01*
X169612358Y-137560397D01*
X169387846Y-137643968D01*
X169163411Y-137733615D01*
X168938829Y-137829588D01*
X168801380Y-137886442D01*
X168663495Y-137935538D01*
X168525356Y-137976992D01*
X168387148Y-138010923D01*
X168249055Y-138037447D01*
X168111259Y-138056682D01*
X167973945Y-138068745D01*
X167837297Y-138073753D01*
X167701497Y-138071823D01*
X167566729Y-138063073D01*
X167433177Y-138047620D01*
X167301025Y-138025581D01*
X167170457Y-137997073D01*
X167041655Y-137962214D01*
X166914803Y-137921121D01*
X166790086Y-137873911D01*
X166667686Y-137820701D01*
X166547787Y-137761608D01*
X166430574Y-137696751D01*
X166316229Y-137626246D01*
X166204936Y-137550210D01*
X166096878Y-137468760D01*
X165992241Y-137382015D01*
X165891206Y-137290090D01*
X165793957Y-137193104D01*
X165700679Y-137091173D01*
X165611555Y-136984416D01*
X165526768Y-136872948D01*
X165446502Y-136756887D01*
X165370941Y-136636351D01*
X165300268Y-136511457D01*
X165234667Y-136382322D01*
X165141495Y-136194766D01*
X165044544Y-136012849D01*
X164943818Y-135836195D01*
X164839321Y-135664429D01*
X164731056Y-135497175D01*
X164619028Y-135334056D01*
X164503241Y-135174696D01*
X164383697Y-135018720D01*
X164260402Y-134865752D01*
X164133360Y-134715415D01*
X164002573Y-134567335D01*
X163868047Y-134421134D01*
X163729784Y-134276436D01*
X163587790Y-134132867D01*
X163292619Y-133847608D01*
X162896759Y-133467790D01*
X162509947Y-133081286D01*
X162132305Y-132687922D01*
X161763954Y-132287523D01*
X161405012Y-131879916D01*
X161055600Y-131464924D01*
X160715839Y-131042376D01*
X160385849Y-130612094D01*
X160065749Y-130173907D01*
X159755660Y-129727638D01*
X159455702Y-129273114D01*
X159165996Y-128810160D01*
X158886661Y-128338602D01*
X158617817Y-127858265D01*
X158359585Y-127368975D01*
X158112085Y-126870557D01*
X157907182Y-127554448D01*
X157686188Y-128214553D01*
X157448822Y-128853071D01*
X157194807Y-129472198D01*
X156923862Y-130074132D01*
X156635710Y-130661071D01*
X156330070Y-131235212D01*
X156006664Y-131798753D01*
X155665213Y-132353892D01*
X155305437Y-132902826D01*
X154927057Y-133447753D01*
X154529795Y-133990870D01*
X154113372Y-134534374D01*
X153677507Y-135080465D01*
X152746340Y-136189191D01*
X153964844Y-136147301D01*
X155218168Y-136122498D01*
X155851793Y-136124710D01*
X156486808Y-136141042D01*
X157120778Y-136174777D01*
X157751263Y-136229196D01*
X158375825Y-136307584D01*
X158992028Y-136413222D01*
X159597433Y-136549393D01*
X160189603Y-136719381D01*
X160766099Y-136926467D01*
X161324484Y-137173934D01*
X161862319Y-137465066D01*
X162122770Y-137628031D01*
X162377169Y-137803144D01*
X162636897Y-138001063D01*
X162883007Y-138209641D01*
X163115087Y-138428559D01*
X163332726Y-138657500D01*
X163535514Y-138896146D01*
X163723039Y-139144179D01*
X163894891Y-139401281D01*
X164050658Y-139667135D01*
X164189930Y-139941422D01*
X164312297Y-140223825D01*
X164417346Y-140514026D01*
X164504668Y-140811707D01*
X164573851Y-141116550D01*
X164624484Y-141428238D01*
X164656157Y-141746452D01*
X164668459Y-142070875D01*
X164667442Y-142145160D01*
X164663424Y-142217673D01*
X164656445Y-142288379D01*
X164646541Y-142357242D01*
X164633753Y-142424228D01*
X164618117Y-142489300D01*
X164599672Y-142552424D01*
X164578457Y-142613563D01*
X164554509Y-142672683D01*
X164527867Y-142729749D01*
X164498569Y-142784725D01*
X164466654Y-142837575D01*
X164432160Y-142888264D01*
X164395124Y-142936757D01*
X164355586Y-142983019D01*
X164313583Y-143027013D01*
X164269154Y-143068706D01*
X164222337Y-143108061D01*
X164173171Y-143145043D01*
X164121693Y-143179617D01*
X164067942Y-143211747D01*
X164011956Y-143241398D01*
X163953774Y-143268534D01*
X163893433Y-143293121D01*
X163830973Y-143315123D01*
X163766430Y-143334504D01*
X163699844Y-143351229D01*
X163631253Y-143365264D01*
X163560695Y-143376571D01*
X163488209Y-143385117D01*
X163413832Y-143390866D01*
X163337602Y-143393781D01*
X161072771Y-143436109D01*
X157754900Y-143486387D01*
X157754638Y-143580856D01*
X157750418Y-143674669D01*
X157742299Y-143767696D01*
X157730337Y-143859808D01*
X157714590Y-143950875D01*
X157695117Y-144040768D01*
X157671974Y-144129359D01*
X157645220Y-144216516D01*
X157614911Y-144302112D01*
X157581106Y-144386017D01*
X157543863Y-144468101D01*
X157503238Y-144548235D01*
X157459290Y-144626289D01*
X157412076Y-144702135D01*
X157361654Y-144775643D01*
X157308081Y-144846683D01*
X157251416Y-144915127D01*
X157191716Y-144980844D01*
X157129038Y-145043706D01*
X157063440Y-145103583D01*
X156994980Y-145160346D01*
X156923715Y-145213866D01*
X156849703Y-145264012D01*
X156773002Y-145310656D01*
X156693670Y-145353668D01*
X156611763Y-145392920D01*
X156527340Y-145428281D01*
X156440458Y-145459622D01*
X156351176Y-145486815D01*
X156259550Y-145509729D01*
X156165638Y-145528235D01*
X156069498Y-145542204D01*
X155735113Y-145579358D01*
X155405068Y-145609753D01*
X155077006Y-145633824D01*
X154748572Y-145652004D01*
X154417409Y-145664727D01*
X154081160Y-145672428D01*
X153737470Y-145675540D01*
X153383982Y-145674497D01*
X127436296Y-145489286D01*
X127213986Y-145484909D01*
X126994420Y-145475750D01*
X126777428Y-145461801D01*
X126562839Y-145443055D01*
X126350483Y-145419503D01*
X126140188Y-145391138D01*
X125931785Y-145357951D01*
X125725103Y-145319936D01*
X125519971Y-145277085D01*
X125316219Y-145229389D01*
X125113677Y-145176841D01*
X124912172Y-145119433D01*
X124711536Y-145057158D01*
X124511598Y-144990006D01*
X124312186Y-144917972D01*
X124113130Y-144841047D01*
X123950454Y-144771299D01*
X123802604Y-144698110D01*
X123668625Y-144621667D01*
X123547563Y-144542155D01*
X123438460Y-144459762D01*
X123340363Y-144374673D01*
X123252316Y-144287076D01*
X123173363Y-144197157D01*
X123102549Y-144105103D01*
X123038919Y-144011099D01*
X122981517Y-143915333D01*
X122929388Y-143817991D01*
X122837128Y-143619325D01*
X122754494Y-143416593D01*
X122673846Y-143211288D01*
X122587538Y-143004902D01*
X122487929Y-142798926D01*
X122430748Y-142696559D01*
X122367376Y-142594854D01*
X122296857Y-142493997D01*
X122218235Y-142394176D01*
X122130556Y-142295577D01*
X122032864Y-142198386D01*
X121924204Y-142102790D01*
X121803620Y-142008975D01*
X121670157Y-141917129D01*
X121522859Y-141827436D01*
X121190281Y-141633057D01*
X120865949Y-141436196D01*
X120547942Y-141235860D01*
X120234339Y-141031057D01*
X119923215Y-140820795D01*
X119612650Y-140604083D01*
X119300721Y-140379927D01*
X118985506Y-140147337D01*
X118928477Y-140107844D01*
X118867736Y-140071626D01*
X118803599Y-140038548D01*
X118736384Y-140008474D01*
X118666410Y-139981268D01*
X118593995Y-139956795D01*
X118519455Y-139934918D01*
X118443109Y-139915502D01*
X118365275Y-139898412D01*
X118286271Y-139883511D01*
X118206414Y-139870664D01*
X118126022Y-139859735D01*
X117964905Y-139843089D01*
X117805464Y-139832487D01*
X116602219Y-139743577D01*
X115410199Y-139605142D01*
X114230519Y-139417641D01*
X113064295Y-139181530D01*
X111912644Y-138897267D01*
X110776683Y-138565310D01*
X109657526Y-138186114D01*
X108556291Y-137760139D01*
X107474094Y-137287841D01*
X106412050Y-136769678D01*
X105371277Y-136206107D01*
X104352889Y-135597586D01*
X103358004Y-134944571D01*
X102387738Y-134247521D01*
X101443206Y-133506892D01*
X100525526Y-132723142D01*
X99807022Y-132063764D01*
X99110382Y-131384615D01*
X98436135Y-130686017D01*
X97784813Y-129968293D01*
X97156948Y-129231764D01*
X96553069Y-128476751D01*
X95973709Y-127703577D01*
X95419397Y-126912563D01*
X94890665Y-126104031D01*
X94388044Y-125278302D01*
X93912065Y-124435698D01*
X93463259Y-123576541D01*
X93042156Y-122701153D01*
X92649288Y-121809855D01*
X92285186Y-120902969D01*
X91950380Y-119980817D01*
X91593705Y-118881541D01*
X91276689Y-117773126D01*
X90999245Y-116656541D01*
X90761284Y-115532755D01*
X90562715Y-114402737D01*
X90403450Y-113267455D01*
X90283400Y-112127880D01*
X90202475Y-110984979D01*
X90160587Y-109839722D01*
X90157646Y-108693078D01*
X90193564Y-107546014D01*
X90268250Y-106399501D01*
X90381616Y-105254508D01*
X90533573Y-104112002D01*
X90724031Y-102972954D01*
X90952902Y-101838331D01*
X91144874Y-101013101D01*
X91357337Y-100197177D01*
X91589822Y-99390313D01*
X91841861Y-98592268D01*
X92112983Y-97802795D01*
X92402720Y-97021651D01*
X92710603Y-96248592D01*
X93036164Y-95483373D01*
X93378933Y-94725751D01*
X93738441Y-93975481D01*
X94114220Y-93232319D01*
X94505800Y-92496021D01*
X94912712Y-91766342D01*
X95334488Y-91043040D01*
X96220754Y-89614584D01*
X96717737Y-88859347D01*
X97222037Y-88120885D01*
X97733035Y-87395136D01*
X98250110Y-86678037D01*
X100366777Y-83814916D01*
X101033042Y-82890219D01*
X101703337Y-81909090D01*
X102358377Y-80882072D01*
X102674150Y-80354649D01*
X102978877Y-79819708D01*
X103270147Y-79278564D01*
X103545550Y-78732538D01*
X103802675Y-78182945D01*
X104039112Y-77631105D01*
X104252449Y-77078334D01*
X104440276Y-76525951D01*
X104600182Y-75975273D01*
X104729757Y-75427618D01*
X104809854Y-74979420D01*
X104863527Y-74529750D01*
X104890643Y-74080050D01*
X104891071Y-73631760D01*
X104864678Y-73186323D01*
X104811334Y-72745180D01*
X104730906Y-72309773D01*
X104623263Y-71881544D01*
X104488273Y-71461934D01*
X104325803Y-71052386D01*
X104135723Y-70654341D01*
X103917901Y-70269241D01*
X103672204Y-69898527D01*
X103398501Y-69543641D01*
X103096660Y-69206025D01*
X102935147Y-69044144D01*
X102766550Y-68887121D01*
X102558173Y-68709664D01*
X102342689Y-68544424D01*
X102120647Y-68391432D01*
X101892597Y-68250720D01*
X101659091Y-68122320D01*
X101420677Y-68006262D01*
X101177908Y-67902578D01*
X100931332Y-67811300D01*
X100681501Y-67732459D01*
X100428965Y-67666087D01*
X100174273Y-67612215D01*
X99917978Y-67570875D01*
X99660628Y-67542098D01*
X99402774Y-67525915D01*
X99144967Y-67522359D01*
X98887756Y-67531460D01*
X98631693Y-67553251D01*
X98377327Y-67587762D01*
X98125210Y-67635026D01*
X97875890Y-67695073D01*
X97629920Y-67767935D01*
X97387848Y-67853643D01*
X97150225Y-67952230D01*
X96917603Y-68063727D01*
X96690530Y-68188164D01*
X96469558Y-68325574D01*
X96255236Y-68475988D01*
X96048116Y-68639438D01*
X95848747Y-68815955D01*
X95657680Y-69005570D01*
X95475465Y-69208316D01*
X95302652Y-69424223D01*
X95075034Y-69753079D01*
X94877092Y-70095624D01*
X94708427Y-70450230D01*
X94568641Y-70815269D01*
X94457333Y-71189115D01*
X94374105Y-71570138D01*
X94318557Y-71956711D01*
X94290291Y-72347207D01*
X94288907Y-72739997D01*
X94314005Y-73133453D01*
X94365188Y-73525949D01*
X94442054Y-73915855D01*
X94544206Y-74301545D01*
X94671244Y-74681390D01*
X94822768Y-75053763D01*
X94998381Y-75417036D01*
X95177623Y-75730706D01*
X95378989Y-76029463D01*
X95600973Y-76312842D01*
X95842072Y-76580376D01*
X96100783Y-76831601D01*
X96375601Y-77066053D01*
X96665023Y-77283265D01*
X96967545Y-77482773D01*
X97281663Y-77664111D01*
X97605873Y-77826814D01*
X97938672Y-77970418D01*
X98278555Y-78094457D01*
X98624020Y-78198467D01*
X98973562Y-78281981D01*
X99325677Y-78344535D01*
X99678861Y-78385664D01*
X99900325Y-78404226D01*
X100010142Y-78415010D01*
X100063425Y-78421497D01*
X100115092Y-78428988D01*
X100164743Y-78437688D01*
X100211979Y-78447803D01*
X100256402Y-78459538D01*
X100297612Y-78473098D01*
X100335210Y-78488690D01*
X100352530Y-78497311D01*
X100368796Y-78506517D01*
X100383961Y-78516334D01*
X100397972Y-78526787D01*
X100410781Y-78537901D01*
X100422338Y-78549703D01*
X100479194Y-78622651D01*
X100521700Y-78697963D01*
X100550499Y-78775402D01*
X100566232Y-78854727D01*
X100569541Y-78935699D01*
X100561069Y-79018079D01*
X100541456Y-79101628D01*
X100511346Y-79186106D01*
X100471380Y-79271274D01*
X100422200Y-79356892D01*
X100364447Y-79442722D01*
X100298765Y-79528523D01*
X100146176Y-79699085D01*
X99969570Y-79866662D01*
X99774081Y-80029340D01*
X99564845Y-80185205D01*
X99346997Y-80332342D01*
X99125673Y-80468836D01*
X98906007Y-80592772D01*
X98693136Y-80702237D01*
X98492194Y-80795315D01*
X98308317Y-80870092D01*
X97718380Y-81075485D01*
X97124883Y-81251359D01*
X96528684Y-81398054D01*
X95930643Y-81515909D01*
X95331617Y-81605263D01*
X94732465Y-81666457D01*
X94134046Y-81699830D01*
X93537218Y-81705722D01*
X92942839Y-81684472D01*
X92351768Y-81636420D01*
X91764863Y-81561905D01*
X91182984Y-81461267D01*
X90606988Y-81334846D01*
X90037733Y-81182981D01*
X89476079Y-81006012D01*
X88922884Y-80804279D01*
X88379006Y-80578121D01*
X87845304Y-80327877D01*
X87322636Y-80053888D01*
X86811860Y-79756493D01*
X86313836Y-79436032D01*
X85829422Y-79092843D01*
X85359475Y-78727268D01*
X84904855Y-78339645D01*
X84466421Y-77930313D01*
X84045029Y-77499614D01*
X83641540Y-77047886D01*
X83256811Y-76575469D01*
X82891701Y-76082702D01*
X82547069Y-75569925D01*
X82223772Y-75037478D01*
X81922670Y-74485700D01*
X81603854Y-73830704D01*
X81316363Y-73164160D01*
X81059788Y-72487061D01*
X80833719Y-71800401D01*
X80637747Y-71105174D01*
X80471462Y-70402373D01*
X80226319Y-68978025D01*
X80095014Y-67535306D01*
X80074272Y-66082165D01*
X80160817Y-64626552D01*
X80351376Y-63176415D01*
X80642673Y-61739704D01*
X81031433Y-60324367D01*
X81514381Y-58938355D01*
X82088242Y-57589615D01*
X82749741Y-56286097D01*
X83495603Y-55035751D01*
X84322553Y-53846526D01*
X85227316Y-52726370D01*
X86041649Y-51838788D01*
X86896635Y-50997793D01*
X87790014Y-50203523D01*
X88719526Y-49456119D01*
X89682912Y-48755720D01*
X90677913Y-48102465D01*
X91702269Y-47496494D01*
X92753720Y-46937947D01*
X93830006Y-46426962D01*
X94928869Y-45963681D01*
X96048048Y-45548241D01*
X97185284Y-45180782D01*
X98338318Y-44861445D01*
X99504889Y-44590369D01*
X100682739Y-44367692D01*
X101869608Y-44193555D01*
X103155905Y-44060261D01*
X104440896Y-43983700D01*
X105722842Y-43963678D01*
X107000000Y-44000000D01*
M02*
