%TF.GenerationSoftware,KiCad,Pcbnew,9.0.7*%
%TF.CreationDate,2026-05-17T21:17:37+02:00*%
%TF.ProjectId,hochzeits-pcb,686f6368-7a65-4697-9473-2d7063622e6b,rev?*%
%TF.SameCoordinates,Original*%
%TF.FileFunction,Copper,L1,Top*%
%TF.FilePolarity,Positive*%
%FSLAX46Y46*%
G04 Gerber Fmt 4.6, Leading zero omitted, Abs format (unit mm)*
G04 Created by KiCad (PCBNEW 9.0.7) date 2026-05-17 21:17:37*
%MOMM*%
%LPD*%
G01*
G04 APERTURE LIST*
G04 Aperture macros list*
%AMRoundRect*
0 Rectangle with rounded corners*
0 $1 Rounding radius*
0 $2 $3 $4 $5 $6 $7 $8 $9 X,Y pos of 4 corners*
0 Add a 4 corners polygon primitive as box body*
4,1,4,$2,$3,$4,$5,$6,$7,$8,$9,$2,$3,0*
0 Add four circle primitives for the rounded corners*
1,1,$1+$1,$2,$3*
1,1,$1+$1,$4,$5*
1,1,$1+$1,$6,$7*
1,1,$1+$1,$8,$9*
0 Add four rect primitives between the rounded corners*
20,1,$1+$1,$2,$3,$4,$5,0*
20,1,$1+$1,$4,$5,$6,$7,0*
20,1,$1+$1,$6,$7,$8,$9,0*
20,1,$1+$1,$8,$9,$2,$3,0*%
G04 Aperture macros list end*
%ADD10C,0.300000*%
%TA.AperFunction,NonConductor*%
%ADD11C,0.300000*%
%TD*%
%TA.AperFunction,SMDPad,CuDef*%
%ADD12RoundRect,0.250001X-1.074999X-2.324999X1.074999X-2.324999X1.074999X2.324999X-1.074999X2.324999X0*%
%TD*%
%TA.AperFunction,SMDPad,CuDef*%
%ADD13RoundRect,0.500000X1.500000X0.500000X-1.500000X0.500000X-1.500000X-0.500000X1.500000X-0.500000X0*%
%TD*%
%TA.AperFunction,SMDPad,CuDef*%
%ADD14R,3.600000X5.000000*%
%TD*%
%TA.AperFunction,Conductor*%
%ADD15C,0.200000*%
%TD*%
G04 APERTURE END LIST*
D10*
D11*
X157054510Y-106229400D02*
X158197368Y-106229400D01*
X157625939Y-106800828D02*
X157625939Y-105657971D01*
D10*
D11*
X149054510Y-78729400D02*
X150197368Y-78729400D01*
X149625939Y-79300828D02*
X149625939Y-78157971D01*
D10*
D11*
X123054510Y-134229400D02*
X124197368Y-134229400D01*
X123625939Y-134800828D02*
X123625939Y-133657971D01*
D10*
D11*
X116054510Y-133729400D02*
X117197368Y-133729400D01*
D10*
D11*
X147554510Y-107729400D02*
X148697368Y-107729400D01*
D10*
D11*
X142554510Y-78729400D02*
X143697368Y-78729400D01*
D12*
%TO.P,D2,1,K*%
%TO.N,Net-(BT1--)*%
X148225000Y-104000000D03*
%TO.P,D2,2,A*%
%TO.N,Net-(D1-A)*%
X154775000Y-104000000D03*
%TD*%
%TO.P,D3,1,K*%
%TO.N,Net-(BT1--)*%
X116950000Y-130000000D03*
%TO.P,D3,2,A*%
%TO.N,Net-(D1-A)*%
X123500000Y-130000000D03*
%TD*%
D13*
%TO.P,SW1,1*%
%TO.N,Net-(BT1-+)*%
X152500000Y-138500000D03*
%TO.P,SW1,2*%
%TO.N,Net-(D1-A)*%
X130500000Y-138500000D03*
%TD*%
D14*
%TO.P,BT1,1,+*%
%TO.N,Net-(BT1-+)*%
X128500000Y-121650000D03*
%TO.P,BT1,2,-*%
%TO.N,Net-(BT1--)*%
X128500000Y-92350000D03*
%TD*%
D12*
%TO.P,D1,1,K*%
%TO.N,Net-(BT1--)*%
X142950000Y-82500000D03*
%TO.P,D1,2,A*%
%TO.N,Net-(D1-A)*%
X149500000Y-82500000D03*
%TD*%
D15*
%TO.N,Net-(BT1--)*%
X116950000Y-130000000D02*
X115625000Y-128675000D01*
X115625000Y-128675000D02*
X115625000Y-98875000D01*
X115625000Y-98875000D02*
X126500000Y-88000000D01*
X126500000Y-88000000D02*
X128500000Y-88000000D01*
X128500000Y-88000000D02*
X128500000Y-92350000D01*
X142950000Y-82500000D02*
X142950000Y-98725000D01*
X142950000Y-98725000D02*
X148225000Y-104000000D01*
X128500000Y-92350000D02*
X133100000Y-92350000D01*
X133100000Y-92350000D02*
X142950000Y-82500000D01*
%TO.N,Net-(D1-A)*%
X154775000Y-104000000D02*
X154775000Y-87775000D01*
X154775000Y-87775000D02*
X149500000Y-82500000D01*
X116500000Y-118000000D02*
X118500000Y-116000000D01*
X123500000Y-125000000D02*
X116500000Y-118000000D01*
X123500000Y-130000000D02*
X123500000Y-125000000D01*
X118500000Y-116000000D02*
X146500000Y-116000000D01*
X146500000Y-116000000D02*
X154775000Y-107725000D01*
X154775000Y-107725000D02*
X154775000Y-104000000D01*
X130500000Y-138500000D02*
X123500000Y-131500000D01*
X123500000Y-131500000D02*
X123500000Y-130000000D01*
%TO.N,Net-(BT1-+)*%
X148650000Y-121650000D02*
X151000000Y-124000000D01*
X128500000Y-121650000D02*
X148650000Y-121650000D01*
X151000000Y-137000000D02*
X152500000Y-138500000D01*
X151000000Y-124000000D02*
X151000000Y-137000000D01*
%TD*%
M02*
